<?xml version="1.0" standalone="no"?>
<!DOCTYPE svg PUBLIC "-//W3C//DTD SVG 1.1//EN" "http://www.w3.org/Graphics/SVG/1.1/DTD/svg11.dtd" >
<svg xmlns="http://www.w3.org/2000/svg" xmlns:xlink="http://www.w3.org/1999/xlink" version="1.1">
<metadata>
Created by FontForge 20170731 at Tue Jun  6 06:33:20 2017
 By Aleksey,,,
Copyright 2017 The Asap Condensed Project Authors (https://github.com/Omnibus-Type/AsapCondensed) with Reserved Font Name "Asap".
</metadata>
<defs>
<font id="AsapCondensed-Medium" horiz-adv-x="482" >
  <font-face 
    font-family="Asap Condensed Medium"
    font-weight="500"
    font-stretch="normal"
    units-per-em="1000"
    panose-1="2 15 6 6 3 2 2 6 2 3"
    ascent="800"
    descent="-200"
    x-height="523"
    cap-height="702"
    bbox="-310 -238 1046 1012"
    underline-thickness="70"
    underline-position="-163"
    unicode-range="U+000D-FB02"
  />
<missing-glyph horiz-adv-x="514" 
d="M7 700h500v-700h-500v700zM426 650h-340l171 -255zM227 350l-171 255v-510zM456 605l-169 -255l169 -255v510zM427 50l-171 255l-169 -255h340z" />
    <glyph glyph-name="fi" unicode="fi" horiz-adv-x="540" 
d="M464 500v-477q0 -25 -46 -25h-10q-46 0 -46 25v415h-172v-415q0 -25 -46 -25h-10q-46 0 -46 25v415h-24q-12 0 -17.5 8.5t-5.5 27.5v13q0 19 5.5 27.5t17.5 8.5h24v97q0 75 35.5 106t86.5 31q28 0 52.5 -9t24.5 -27q0 -11 -7.5 -33t-17.5 -22q-3 0 -13 3t-21 3
q-19 0 -28.5 -12t-9.5 -45v-92h228q46 0 46 -23zM466 677v-53q0 -25 -52 -25t-52 25v53q0 25 52 25t52 -25z" />
    <glyph glyph-name="fl" unicode="fl" horiz-adv-x="556" 
d="M88 23v415h-24q-12 0 -17.5 8.5t-5.5 27.5v13q0 19 5.5 27.5t17.5 8.5h24v97q0 75 35.5 106t86.5 31q28 0 52.5 -9t24.5 -27q0 -11 -7.5 -33t-17.5 -22q-3 0 -13 3t-21 3q-19 0 -28.5 -12t-9.5 -45v-92h57q12 0 17.5 -8.5t5.5 -27.5v-13q0 -19 -5.5 -27.5t-17.5 -8.5h-57
v-415q0 -25 -46 -25h-10q-46 0 -46 25zM387.5 23q-32.5 30 -32.5 100v605q0 25 45 25h11q46 0 46 -25v-600q0 -50 33 -50q10 0 17.5 2.5t11.5 2.5q10 0 17 -20.5t7 -34.5q0 -18 -24.5 -26.5t-51.5 -8.5q-47 0 -79.5 30z" />
    <glyph glyph-name="f_f" unicode="ff" horiz-adv-x="572" 
d="M550.5 514.5q5.5 -8.5 5.5 -27.5v-13q0 -19 -5.5 -27.5t-17.5 -8.5h-57v-415q0 -25 -46 -25h-10q-46 0 -46 25v415h-184v-415q0 -25 -46 -25h-10q-46 0 -46 25v415h-24q-12 0 -17.5 8.5t-5.5 27.5v13q0 19 5.5 27.5t17.5 8.5h24v97q0 75 35.5 106t86.5 31q28 0 52.5 -9
t24.5 -27q0 -11 -7.5 -33t-17.5 -22q-3 0 -13 3t-21 3q-19 0 -28.5 -12t-9.5 -45v-92h184v97q0 75 35.5 106t86.5 31q28 0 52.5 -9t24.5 -27q0 -11 -7.5 -33t-17.5 -22q-3 0 -13 3t-21 3q-19 0 -28.5 -12t-9.5 -45v-92h57q12 0 17.5 -8.5z" />
    <glyph glyph-name=".notdef" horiz-adv-x="514" 
d="M7 700h500v-700h-500v700zM426 650h-340l171 -255zM227 350l-171 255v-510zM456 605l-169 -255l169 -255v510zM427 50l-171 255l-169 -255h340z" />
    <glyph glyph-name=".null" horiz-adv-x="0" 
 />
    <glyph glyph-name="nonmarkingreturn" unicode="&#xd;" horiz-adv-x="137" 
 />
    <glyph glyph-name="space" unicode=" " horiz-adv-x="137" 
 />
    <glyph glyph-name="exclam" unicode="!" horiz-adv-x="246" 
d="M88 214q-8 6 -8 19v444q0 25 44 25h29q21 0 32 -6.5t11 -17.5l-34 -445q-2 -13 -9.5 -19t-27.5 -6h-8q-21 0 -29 6zM66 23v73q0 25 43 25h23q43 0 43 -25v-73q0 -25 -43 -25h-23q-43 0 -43 25z" />
    <glyph glyph-name="quotedbl" unicode="&#x22;" horiz-adv-x="309" 
d="M58 487l-22 180v10q0 25 46 25h10q46 0 46 -25q0 -9 -23 -190q-3 -17 -26 -17h-5q-23 0 -26 17zM193 487l-22 180v10q0 25 45 25h10q46 0 46 -25q0 -17 -22 -190q-4 -17 -26 -17h-6q-22 0 -25 17z" />
    <glyph glyph-name="numbersign" unicode="#" horiz-adv-x="514" 
d="M79 19q0 -1 8 63q14 96 16 110h-61q-12 0 -17.5 8.5t-5.5 27.5v15q0 19 5.5 27.5t17.5 8.5h75l18 136h-63q-12 0 -17.5 8.5t-5.5 27.5v15q0 19 5.5 27.5t17.5 8.5h75l23 160q2 13 11.5 18.5t30.5 5.5h10q36 0 33 -23l-23 -161h93l23 160q2 12 11.5 18t29.5 6h12
q36 0 33 -23l-22 -161h59q12 0 17.5 -8.5t5.5 -27.5v-15q0 -19 -5.5 -27.5t-17.5 -8.5h-72l-19 -136h65q12 0 17.5 -8.5t5.5 -27.5v-15q0 -19 -5.5 -27.5t-17.5 -8.5h-78l-24 -170q-3 -24 -41 -24h-11q-33 0 -33 22q0 10 23 172h-92l-25 -170q-2 -12 -11 -18t-30 -6h-10
q-34 0 -34 21zM295 279l19 136h-93l-19 -136h93z" />
    <glyph glyph-name="dollar" unicode="$" horiz-adv-x="440" 
d="M209 -68q-4 4 -4 13v49q-88 0 -146 37q-13 7 -20.5 14.5t-7.5 19.5q-2 21 6.5 44.5t21.5 23.5q4 0 7 -2t5 -3q29 -21 61.5 -30.5t72.5 -9.5v221q-53 25 -87.5 48.5t-56.5 61.5t-22 95q0 79 45 130.5t121 62.5v36v2q0 15 18 15h6q10 0 14 -4t4 -13v-33q75 -2 121 -29
q11 -7 13 -19q1 -17 -8.5 -43t-21.5 -26q-4 0 -19 5q-39 18 -84 18l-1 -214l7 -4q51 -25 82 -47t53 -59.5t22 -94.5q0 -81 -44 -133t-120 -66v-53q0 -9 -4 -13t-14 -4h-6q-10 0 -14 4zM205 610q-31 -10 -48 -33t-17 -57q1 -31 17.5 -54t47.5 -42v186zM293 130.5
q17 24.5 17 59.5t-16.5 57t-46.5 39v-190q29 10 46 34.5z" />
    <glyph glyph-name="percent" unicode="%" horiz-adv-x="686" 
d="M81 413.5q-37 35.5 -37 127.5q0 166 128 166q55 0 91.5 -36.5t36.5 -129.5q0 -92 -37 -127.5t-91 -35.5t-91 35.5zM166 -2q-6 4 -6 9q0 4 5 14l289 662q8 22 35 22h21q10 0 15 -3.5t5 -8.5q0 -3 -1 -6l-2 -6l-289 -665q-10 -22 -36 -22h-21q-9 0 -15 4zM214.5 469
q10.5 27 10.5 72q0 46 -10.5 74t-41.5 28q-32 0 -42.5 -28t-10.5 -74q0 -45 11 -72t42 -27t41.5 27zM424 29.5q-37 35.5 -37 127.5q0 93 36.5 129t91.5 36q54 0 91.5 -36.5t37.5 -128.5q0 -91 -37.5 -127t-91.5 -36t-91 35.5zM557 85q11 27 11 72q0 46 -10.5 73.5
t-42.5 27.5q-30 0 -41 -28t-11 -73t10.5 -72t41.5 -27t42 27z" />
    <glyph glyph-name="ampersand" unicode="&#x26;" horiz-adv-x="520" 
d="M496.5 61.5q6.5 -21.5 6.5 -32.5q0 -36 -72 -36q-59 0 -86 43q-36 -21 -67 -32t-73 -11q-80 0 -130.5 52.5t-50.5 157.5q0 73 25 120.5t70 62.5v4q-35 17 -56 55.5t-21 91.5q0 82 44.5 126t119.5 44q31 0 56.5 -8.5t25.5 -26.5q0 -15 -7.5 -37t-16.5 -22q-4 0 -16.5 4.5
t-26.5 4.5q-39 0 -56 -30.5t-17 -68.5q0 -42 24 -76t65 -34h80l12 102q2 25 38 25h20q36 0 36 -25v-102h47q22 0 22 -36v-13q0 -36 -22 -36h-47v-185q0 -36 8 -50.5t24 -14.5q9 0 15.5 2.5t9.5 2.5q10 0 16.5 -21.5zM155 108q25 -30 64 -30q23 0 45.5 8t54.5 24q-2 14 -2 21
v197h-85q-53 0 -77.5 -28t-24.5 -95t25 -97z" />
    <glyph glyph-name="quotesingle" unicode="'" horiz-adv-x="164" 
d="M63 474q-6 4 -8 13l-22 180v10q0 25 46 25h10q46 0 46 -25q0 -9 -23 -190q-3 -17 -25 -17h-6q-12 0 -18 4z" />
    <glyph glyph-name="parenleft" unicode="(" horiz-adv-x="249" 
d="M202 -198q-76 81 -117.5 208.5t-41.5 275.5q0 147 41.5 275t117.5 210q11 12 23 12t24.5 -9.5t12.5 -21.5q0 -13 -7 -21q-62 -83 -91.5 -196.5t-29.5 -248.5t29 -248t91 -196q8 -11 8 -20q0 -10 -12.5 -21.5t-24.5 -11.5q-13 0 -23 13z" />
    <glyph glyph-name="parenright" unicode=")" horiz-adv-x="249" 
d="M-0.5 -200q-12.5 11 -12.5 22q0 10 7 18q61 83 90.5 197t29.5 249q0 286 -120 445q-7 10 -7 20q0 11 12.5 21.5t24.5 10.5t23 -12q76 -82 117.5 -209.5t41.5 -275.5q0 -147 -41.5 -274.5t-117.5 -209.5q-10 -13 -23 -13q-12 0 -24.5 11z" />
    <glyph glyph-name="asterisk" unicode="*" horiz-adv-x="299" 
d="M60 436q-9 7 -9 14q0 8 7 16l54 88l-76 29q-9 4 -12.5 8t-3.5 10q0 11 5.5 19t14.5 8t14 -3l71 -26v87q0 23 23 23t23 -23v-87l70 26q5 3 13 3q9 0 15 -7.5t6 -19.5q0 -6 -3.5 -10t-12.5 -8l-77 -29l55 -88q6 -9 6 -16t-9 -14t-17 -7q-9 0 -17 11l-52 82l-53 -82
q-8 -11 -17 -11t-18 7z" />
    <glyph glyph-name="plus" unicode="+" horiz-adv-x="449" 
d="M192.5 4q-8.5 5 -8.5 17v172h-127q-12 0 -17 7.5t-5 25.5v7q0 38 22 38h127v172q0 12 8.5 17.5t27.5 5.5h9q19 0 27 -5.5t8 -17.5v-172h129q11 0 16 -8.5t5 -27.5v-7q0 -19 -5 -27t-16 -8h-129v-172q0 -12 -8 -17t-27 -5h-9q-19 0 -27.5 5z" />
    <glyph glyph-name="comma" unicode="," horiz-adv-x="188" 
d="M22.5 -115q-10.5 4 -10.5 13q0 5 3 14t4 13q14 45 21.5 79t7.5 82q0 35 43 35h13q22 0 33 -8.5t11 -23.5q0 -55 -18 -103t-43 -76.5t-42 -28.5q-12 0 -22.5 4z" />
    <glyph glyph-name="hyphen" unicode="-" horiz-adv-x="256" 
d="M25 261v9q0 19 5.5 27t16.5 8h161q11 0 16 -8t5 -27v-9q0 -19 -5 -27.5t-16 -8.5h-161q-22 0 -22 36z" />
    <glyph glyph-name="period" unicode="." horiz-adv-x="188" 
d="M39 23v73q0 25 44 25h22q44 0 44 -25v-73q0 -25 -44 -25h-22q-44 0 -44 25z" />
    <glyph glyph-name="slash" unicode="/" horiz-adv-x="320" 
d="M-15 -57q0 6 3 15l252 722q9 23 39 23h12q29 0 29 -20q0 -3 -3 -15l-252 -722q-9 -23 -39 -23h-11q-30 0 -30 20z" />
    <glyph glyph-name="zero" unicode="0" horiz-adv-x="459" 
d="M83.5 82q-52.5 89 -52.5 268t52.5 268t144.5 89q93 0 146 -89t53 -268t-53 -268t-146 -89q-92 0 -144.5 89zM296.5 140q24.5 62 24.5 210t-24.5 210t-67.5 62t-67 -61.5t-24 -210.5t24 -210.5t67 -61.5t67.5 62z" />
    <glyph glyph-name="one" unicode="1" horiz-adv-x="459" 
d="M45.5 8.5q-5.5 8.5 -5.5 27.5v13q0 19 5.5 27.5t17.5 8.5h125v513l-135 -21q-12 0 -18 19.5t-6 40.5q0 17 20 22l208 44q12 0 23 -6.5t11 -15.5v-596h104q12 0 17.5 -8.5t5.5 -27.5v-13q0 -19 -5.5 -27.5t-17.5 -8.5h-332q-12 0 -17.5 8.5z" />
    <glyph glyph-name="two" unicode="2" horiz-adv-x="459" 
d="M30.5 19q-6.5 19 -6.5 38q0 12 3 16l230 329q32 45 43 71.5t11 55.5q0 44 -27.5 68t-74.5 24q-35 0 -57.5 -10t-51.5 -28q-15 -12 -21 -12q-12 0 -26 21t-14 35q0 21 28 39.5t70 29.5t81 11q90 0 144 -46.5t54 -125.5q0 -35 -9.5 -65t-33.5 -68t-72 -101l-146 -217h241
q12 0 17.5 -8t5.5 -27v-13q0 -19 -5.5 -27.5t-17.5 -8.5h-350q-9 0 -15.5 19z" />
    <glyph glyph-name="three" unicode="3" horiz-adv-x="459" 
d="M119 1.5q-43 8.5 -70.5 23.5t-27.5 33q0 14 14.5 35.5t24.5 21.5q5 0 23 -9q25 -13 49 -20.5t56 -7.5q50 0 87 30.5t37 97.5q0 65 -34 93.5t-99 28.5h-39q-12 0 -17.5 8.5t-5.5 27.5v13q0 19 5.5 27t17.5 8h33q40 0 66.5 18.5t38.5 45.5t12 53q0 38 -23.5 65t-77.5 27
q-30 0 -50.5 -7t-37.5 -16t-21 -9q-10 0 -24 22t-14 37q0 25 52.5 42t108.5 17q88 0 139.5 -46t51.5 -127q0 -54 -27.5 -90t-72.5 -54v-4q53 -16 88 -64t35 -121q0 -66 -27.5 -113t-75.5 -71t-108 -24q-44 0 -87 8.5z" />
    <glyph glyph-name="four" unicode="4" horiz-adv-x="459" 
d="M273 23v137h-236q-9 0 -18 23t-9 40q0 5 2 11l252 452q10 16 43 16h29q38 0 38 -25v-432h48q12 0 17.5 -8.5t5.5 -27.5v-13q0 -19 -5.5 -27.5t-17.5 -8.5h-48v-137q0 -25 -38 -25h-25q-38 0 -38 25zM272 245v170q0 63 10 126l-4 2l-164 -298h158z" />
    <glyph glyph-name="five" unicode="5" horiz-adv-x="459" 
d="M114.5 2.5q-38.5 9.5 -60.5 24.5t-22 30q0 14 15 36t25 22q6 0 20 -8q25 -13 48.5 -21t56.5 -8q50 0 84 35.5t34 98.5q0 64 -36 97t-107 33h-80q-18 0 -24.5 7.5t-6.5 25.5l18 292q1 17 9 25t25 8h254q12 0 17.5 -8.5t5.5 -27.5v-16q0 -17 -5.5 -25t-17.5 -8h-192
l-12 -188h36q94 0 157 -49.5t63 -165.5t-63.5 -167.5t-154.5 -51.5q-48 0 -86.5 9.5z" />
    <glyph glyph-name="six" unicode="6" horiz-adv-x="459" 
d="M86 59.5q-52 65.5 -52 186.5q0 145 62 248t139.5 156t112.5 53q16 0 26.5 -23.5t10.5 -38.5q0 -11 -9 -14q-88 -35 -144 -98t-78 -147q46 30 104 30q45 0 83 -24t61 -70.5t23 -110.5q0 -67 -26.5 -115t-71.5 -73t-99 -25q-90 0 -142 65.5zM296.5 112q28.5 33 28.5 92
q0 60 -28.5 91.5t-71.5 31.5q-42 0 -86 -27q-2 -40 -2 -59q0 -88 27 -125t66 -37q38 0 66.5 33z" />
    <glyph glyph-name="seven" unicode="7" horiz-adv-x="459" 
d="M83 2q-11 4 -11 14q0 1 5 16l235 583h-259q-12 0 -17.5 8.5t-5.5 27.5v13q0 19 5.5 27.5t17.5 8.5h352q7 0 15 -22.5t8 -39.5q0 -6 -2 -12l-244 -611q-7 -17 -45 -17h-19q-24 0 -35 4z" />
    <glyph glyph-name="eight" unicode="8" horiz-adv-x="459" 
d="M89 46q-53 53 -53 148q0 128 98 179q-37 26 -57.5 63t-20.5 93q0 84 49 131t128 47q76 0 126 -45t50 -126q0 -111 -89 -159q49 -28 77 -69t28 -112q0 -92 -52.5 -147.5t-142.5 -55.5q-88 0 -141 53zM311 532q0 44 -22.5 67t-56.5 23q-33 0 -55 -22.5t-22 -65.5
q0 -44 23 -68.5t67 -47.5q66 43 66 114zM297 110.5q26 32.5 26 83.5q0 38 -15.5 63t-38 39.5t-63.5 34.5q-33 -23 -50.5 -54t-17.5 -78q0 -60 25.5 -90.5t66.5 -30.5t67 32.5z" />
    <glyph glyph-name="nine" unicode="9" horiz-adv-x="459" 
d="M85.5 18q-10.5 23 -10.5 39q0 11 9 14q88 35 143.5 98t78.5 147q-46 -30 -105 -30q-45 0 -83 24t-61 70t-23 110q0 67 27 115.5t72 73.5t99 25q90 0 142 -65.5t52 -186.5q0 -145 -62 -248t-139 -156t-112 -53q-17 0 -27.5 23zM320 399q3 29 3 58q0 88 -27 125t-67 37
q-23 0 -44.5 -14.5t-35.5 -42.5t-14 -68q0 -61 28.5 -92t70.5 -31q41 0 86 28z" />
    <glyph glyph-name="colon" unicode=":" horiz-adv-x="188" 
d="M39 427v73q0 25 44 25h22q44 0 44 -25v-73q0 -25 -44 -25h-22q-44 0 -44 25zM39 23v73q0 25 44 25h22q44 0 44 -25v-73q0 -25 -44 -25h-22q-44 0 -44 25z" />
    <glyph glyph-name="semicolon" unicode=";" horiz-adv-x="188" 
d="M39 427v73q0 25 44 25h22q44 0 44 -25v-73q0 -25 -44 -25h-22q-44 0 -44 25zM22.5 -115q-10.5 4 -10.5 13q0 5 3 14t4 13q14 45 21.5 79t7.5 82q0 35 43 35h13q22 0 33 -8.5t11 -23.5q0 -55 -18 -103t-43 -76.5t-42 -28.5q-12 0 -22.5 4z" />
    <glyph glyph-name="less" unicode="&#x3c;" horiz-adv-x="448" 
d="M52 186q-11 6 -16 14.5t-5 22.5v18q0 14 5 22.5t16 14.5l329 173q8 4 14 4q15 0 15 -29v-15q0 -17 -5 -26.5t-16 -16.5l-248 -136l248 -136q13 -7 17.5 -16.5t4.5 -27.5v-14q0 -31 -15 -31q-2 0 -12 4z" />
    <glyph glyph-name="equal" unicode="=" horiz-adv-x="449" 
d="M35 306v7q0 18 5.5 26.5t18.5 8.5h332q23 0 23 -35v-7q0 -36 -23 -36h-332q-24 0 -24 36zM35 137v7q0 19 5.5 27.5t18.5 8.5h332q12 0 17.5 -8.5t5.5 -27.5v-7q0 -36 -23 -36h-332q-24 0 -24 36z" />
    <glyph glyph-name="greater" unicode="&#x3e;" horiz-adv-x="448" 
d="M48 7q-15 0 -15 31v14q0 18 4.5 27.5t17.5 16.5l248 136l-248 136q-11 7 -16 16.5t-5 26.5v15q0 29 15 29q6 0 14 -4l329 -173q11 -6 16 -14.5t5 -22.5v-18q0 -14 -5 -22.5t-16 -14.5l-332 -175q-10 -4 -12 -4z" />
    <glyph glyph-name="question" unicode="?" horiz-adv-x="391" 
d="M120 214q-8 6 -8 19q0 36 19 77.5t55 82.5q43 49 61.5 77t18.5 60q0 42 -24.5 64t-70.5 22q-25 0 -44.5 -7t-39.5 -18q-14 -8 -20 -8q-11 0 -26 23.5t-15 36.5q0 28 50 46t107 18q59 0 103.5 -21.5t68.5 -59t24 -85.5q0 -50 -23 -87.5t-69 -87.5q-40 -44 -59.5 -72
t-24.5 -64q-2 -12 -10.5 -17t-28.5 -5h-17q-19 0 -27 6zM99 23v73q0 25 45 25h22q45 0 45 -25v-73q0 -25 -45 -25h-22q-45 0 -45 25z" />
    <glyph glyph-name="at" unicode="@" horiz-adv-x="792" 
d="M591.5 665.5q64.5 -40.5 100 -115t35.5 -173.5q0 -88 -25.5 -162t-70.5 -117t-102 -43q-37 0 -60.5 18.5t-28.5 53.5q-19 -36 -47 -54t-61 -18q-47 0 -82 43.5t-35 138.5q0 78 21.5 139.5t60 95.5t89.5 34q29 0 52 -13.5t37 -30.5q8 25 14.5 32.5t24.5 7.5h8q29 0 29 -22
l-9 -100q-4 -52 -11 -133.5t-7 -92.5q0 -22 10 -29.5t22 -7.5q29 0 55.5 37t42.5 97.5t16 127.5q0 84 -29 147.5t-81 98t-121 34.5q-90 0 -165 -56t-118.5 -153t-43.5 -214q0 -93 28 -164t79 -110.5t118 -39.5q33 0 55.5 6t45.5 16q18 7 23 7q14 0 14 -26t-48 -38t-95 -12
q-82 0 -144.5 46t-97.5 128.5t-35 188.5q0 129 51 236.5t139.5 169.5t196.5 62q85 0 149.5 -40.5zM449 320.5q5 61.5 11 86.5q-26 26 -59 26q-52 0 -75 -52.5t-23 -137.5q0 -115 58 -115q21 0 43 20.5t38 66.5q2 44 7 105.5z" />
    <glyph glyph-name="A" unicode="A" horiz-adv-x="505" 
d="M10 16q0 3 2 15l173 649q7 22 46 22h42q42 0 46 -22l173 -649q3 -9 3 -15q0 -18 -39 -18h-27q-37 0 -41 17l-38 152h-197l-37 -152q-4 -17 -40 -17h-26q-40 0 -40 18zM330 257l-64 256q-4 16 -11 65h-5l-4 -24q-2 -17 -8 -41l-63 -256h155z" />
    <glyph glyph-name="B" unicode="B" horiz-adv-x="539" 
d="M79.5 8q-7.5 8 -7.5 25v634q0 17 7.5 25t23.5 8h174q98 0 146.5 -46.5t48.5 -128.5q0 -52 -26 -96t-64 -59l1 -4q41 -14 76.5 -52.5t35.5 -113.5q0 -99 -54.5 -149.5t-162.5 -50.5h-175q-16 0 -23.5 8zM273 403q42 0 66.5 30t24.5 78q0 52 -22.5 76t-69.5 24h-93v-208h94
zM292 89q45 0 69.5 31t24.5 87q0 53 -26.5 80.5t-77.5 27.5h-103v-226h113z" />
    <glyph glyph-name="C" unicode="C" horiz-adv-x="459" 
d="M109.5 80q-63.5 87 -63.5 271q0 180 65 268t199 88q26 0 52 -5t45 -12q12 -4 16.5 -12t4.5 -21q-1 -24 -10.5 -47.5t-25.5 -15.5q-38 18 -80 18q-79 0 -116.5 -63.5t-37.5 -197.5t37.5 -198.5t116.5 -64.5q46 0 86 21q6 2 9 2q15 0 23.5 -20t8.5 -43q0 -24 -26 -35
q-18 -8 -46 -14t-59 -6q-135 0 -198.5 87z" />
    <glyph glyph-name="D" unicode="D" horiz-adv-x="577" 
d="M79 8q-7 8 -7 25v634q0 17 7 25t23 8h174q252 0 252 -350q0 -183 -65 -266.5t-187 -83.5h-174q-16 0 -23 8zM273 92q69 0 106 61t37 197q0 258 -143 258h-91v-516h91z" />
    <glyph glyph-name="E" unicode="E" horiz-adv-x="457" 
d="M79 8q-7 8 -7 25v634q0 17 7 25t23 8h290q22 0 22 -36v-20q0 -36 -22 -36h-211v-204h189q22 0 22 -36v-20q0 -36 -22 -36h-189v-220h211q12 0 17 -8.5t5 -27.5v-20q0 -19 -5 -27.5t-17 -8.5h-290q-16 0 -23 8z" />
    <glyph glyph-name="F" unicode="F" horiz-adv-x="423" 
d="M72 23v644q0 17 7 25t23 8h264q22 0 22 -36v-20q0 -36 -22 -36h-185v-204h170q22 0 22 -36v-20q0 -36 -22 -36h-170v-289q0 -25 -44 -25h-21q-44 0 -44 25z" />
    <glyph glyph-name="G" unicode="G" horiz-adv-x="552" 
d="M489 357v-289q0 -37 -57.5 -56t-127.5 -19q-129 0 -193.5 87t-64.5 266q0 183 66 272t199 89q39 0 78 -10t63.5 -25.5t24.5 -29.5q0 -16 -15.5 -41.5t-27.5 -25.5q-3 0 -21 10t-42 18t-56 8q-83 0 -120 -65t-37 -194q0 -265 148 -265q41 0 76 10v201h-76q-22 0 -22 36v20
q0 36 22 36h153q30 0 30 -33z" />
    <glyph glyph-name="H" unicode="H" horiz-adv-x="601" 
d="M72 23v654q0 25 44 25h23q42 0 42 -25v-272h237v272q0 25 44 25h21q44 0 44 -25v-654q0 -25 -44 -25h-21q-44 0 -44 25v289h-237v-289q0 -25 -42 -25h-23q-44 0 -44 25z" />
    <glyph glyph-name="I" unicode="I" horiz-adv-x="262" 
d="M76 23v654q0 25 44 25h23q43 0 43 -25v-654q0 -25 -43 -25h-23q-44 0 -44 25z" />
    <glyph glyph-name="J" unicode="J" horiz-adv-x="355" 
d="M40 3q-31 10 -31 26q0 18 8.5 42t19.5 24q6 0 22 -4t32 -4q44 0 63 28t19 89v473q0 25 44 25h22q44 0 44 -25v-473q0 -100 -43 -155.5t-134 -55.5q-35 0 -66 10z" />
    <glyph glyph-name="K" unicode="K" horiz-adv-x="510" 
d="M508 12q0 -7 -10 -10.5t-33 -3.5h-34q-20 0 -32 3t-18 12l-195 322h-3v-312q0 -25 -45 -25h-20q-44 0 -44 25v654q0 25 44 25h20q45 0 45 -25v-308h4l189 318q6 9 17.5 12t30.5 3h28q41 0 41 -14q0 -9 -8 -20l-198 -311l215 -327q6 -11 6 -18z" />
    <glyph glyph-name="L" unicode="L" horiz-adv-x="408" 
d="M79 8q-7 8 -7 25v644q0 25 44 25h21q44 0 44 -25v-585h191q12 0 17.5 -8.5t5.5 -27.5v-20q0 -19 -5.5 -27.5t-17.5 -8.5h-270q-16 0 -23 8z" />
    <glyph glyph-name="M" unicode="M" horiz-adv-x="689" 
d="M304 251l-105 203q-13 25 -27 63l-4 -2q5 -37 5 -66v-426q0 -25 -44 -25h-18q-44 0 -44 25v654q0 25 44 25h24q34 0 44 -21l150 -290q11 -22 16 -48q7 28 17 48l150 290q11 21 44 21h24q44 0 44 -25v-654q0 -25 -44 -25h-18q-44 0 -44 25v426q0 29 5 66l-4 2
q-14 -38 -27 -63l-105 -203q-7 -17 -27 -17h-29q-20 0 -27 17z" />
    <glyph glyph-name="N" unicode="N" horiz-adv-x="590" 
d="M67 23v654q0 25 44 25h24q16 0 26.5 -4.5t16.5 -17.5l217 -412q13 -25 28 -68l5 2q-8 37 -8 70v405q0 25 44 25h15q44 0 44 -25v-654q0 -25 -44 -25h-20q-33 0 -41 19l-225 427q-13 23 -26 63l-5 -2q8 -37 8 -67v-415q0 -25 -44 -25h-15q-44 0 -44 25z" />
    <glyph glyph-name="O" unicode="O" horiz-adv-x="599" 
d="M110.5 81.5q-64.5 88.5 -64.5 269.5q0 356 253 356q254 0 254 -356q0 -358 -254 -358q-124 0 -188.5 88.5zM406.5 149q35.5 64 35.5 202t-35.5 200.5t-106.5 62.5q-72 0 -107 -62t-35 -201q0 -138 35.5 -202t106.5 -64t106.5 64z" />
    <glyph glyph-name="P" unicode="P" 
d="M68 23v644q0 17 7.5 25t23.5 8h167q73 0 130 -43t57 -160q0 -84 -32.5 -130.5t-73.5 -62.5t-73 -16h-98v-265q0 -25 -44 -25h-20q-44 0 -44 25zM266 379q30 0 54 26t24 92q0 62 -24.5 86.5t-58.5 24.5h-85v-229h90z" />
    <glyph glyph-name="Q" unicode="Q" horiz-adv-x="599" 
d="M347 -69q-38 20 -78 41.5t-79 41.5q-72 36 -108 119t-36 217q0 181 64.5 269t188.5 88q254 0 254 -357q0 -279 -154 -338v-4l178 -83q12 -6 12 -16q-1 -8 -10 -26.5t-21 -33.5t-23 -15q-9 0 -188 97zM406.5 148q35.5 64 35.5 202t-35.5 201t-106.5 63t-106.5 -63
t-35.5 -201q0 -139 35.5 -202.5t106.5 -63.5t106.5 64z" />
    <glyph glyph-name="R" unicode="R" horiz-adv-x="513" 
d="M70 23v644q0 33 31 33h154q97 0 147 -43t50 -140q0 -120 -93 -169v-4q21 -11 37 -40t32 -78l62 -195q1 -4 2 -7.5t1 -6.5q0 -19 -46 -19h-22q-17 0 -29 5t-15 14l-58 195q-15 47 -34.5 64t-57.5 17h-52v-270q0 -25 -45 -25h-19q-45 0 -45 25zM266 389q32 0 54.5 32.5
t22.5 80.5q0 54 -22 80t-60 26h-83v-219h88z" />
    <glyph glyph-name="S" unicode="S" horiz-adv-x="437" 
d="M113 6.5q-42 12.5 -71 35.5q-6 6 -9 11.5t-3 14.5q0 21 9 43.5t21 22.5q5 0 11.5 -3.5t10.5 -5.5q50 -37 118 -37q46 0 75.5 26t29.5 74q0 44 -25 69t-75 51q-54 28 -87 52.5t-53.5 62t-20.5 92.5q0 91 57.5 143t149.5 52q35 0 68 -8.5t57 -23.5q10 -6 10 -18
q0 -18 -10 -43t-21 -25q-4 0 -18 6q-40 18 -85 18t-73 -24.5t-28 -67.5q0 -31 13.5 -52.5t35.5 -36.5t64 -38q49 -26 80 -50t50 -60.5t19 -90.5q0 -92 -57.5 -147t-153.5 -55q-47 0 -89 12.5z" />
    <glyph glyph-name="T" unicode="T" horiz-adv-x="454" 
d="M173 23v585h-135q-11 0 -16 8.5t-5 27.5v20q0 19 5 27.5t16 8.5h378q12 0 17 -8.5t5 -27.5v-20q0 -19 -5 -27.5t-17 -8.5h-134v-585q0 -25 -44 -25h-21q-44 0 -44 25z" />
    <glyph glyph-name="U" unicode="U" horiz-adv-x="583" 
d="M123 47q-60 54 -60 151v479q0 25 44 25h21q44 0 44 -25v-478q0 -50 33.5 -82t86.5 -32t86 32t33 82v478q0 25 44 25h21q44 0 44 -25v-479q0 -97 -60 -151t-168 -54q-109 0 -169 54z" />
    <glyph glyph-name="V" unicode="V" horiz-adv-x="508" 
d="M186 15l-168 654q-1 3 -2 7t-1 8q0 18 45 18h21q37 0 42 -20l120 -509l8 -57h3l9 58l122 508q5 20 43 20h19q45 0 45 -18q0 -5 -3 -16l-168 -653q-4 -17 -42 -17h-52q-37 0 -41 17z" />
    <glyph glyph-name="W" unicode="W" horiz-adv-x="752" 
d="M153 15l-136 653l-2 13q0 21 46 21h17q43 0 47 -20l79 -450q4 -21 11 -81l5 -42l21 125l84 450q2 10 11.5 14t27.5 4h29q18 0 27.5 -4t11.5 -14l84 -452q8 -40 18 -124q1 6 12 74l8 50l77 450q3 20 47 20h14q46 0 46 -21l-2 -13l-138 -653q-3 -17 -39 -17h-48
q-35 0 -38 17l-82 402l-15 120l-15 -120l-82 -402q-4 -17 -39 -17h-47q-36 0 -40 17z" />
    <glyph glyph-name="X" unicode="X" horiz-adv-x="506" 
d="M17 16q0 4 8 20l161 329l-142 299q-8 13 -8 20q0 18 47 18h28q18 0 28.5 -3t14.5 -13l102 -247l107 247q4 10 15 13t29 3h23q47 0 47 -18q0 -4 -7 -20l-147 -296l159 -332q7 -16 7 -20q0 -18 -47 -18h-27q-37 0 -43 16l-118 277l-123 -277q-4 -10 -14 -13t-29 -3h-24
q-47 0 -47 18z" />
    <glyph glyph-name="Y" unicode="Y" horiz-adv-x="484" 
d="M187 23v290l-165 351q-7 14 -7 20q0 18 47 18h27q18 0 29 -3.5t15 -12.5l112 -272l113 273q3 9 14 12t30 3h22q45 -1 45 -18q0 -8 -6 -20l-166 -354v-287q0 -25 -44 -25h-21q-45 0 -45 25z" />
    <glyph glyph-name="Z" unicode="Z" horiz-adv-x="507" 
d="M40.5 22.5q-9.5 22.5 -9.5 40.5q0 6 2 12l301 533h-257q-11 0 -16 9.5t-5 29.5v14q0 21 5 30t16 9h365q9 0 18 -23t9 -41q0 -8 -1 -11l-300 -533h279q22 0 22 -39v-14q0 -21 -5.5 -30t-16.5 -9h-388q-9 0 -18.5 22.5z" />
    <glyph glyph-name="bracketleft" unicode="[" horiz-adv-x="239" 
d="M68.5 -130q-6.5 8 -6.5 25v840q0 17 6.5 25t22.5 8h104q12 0 16.5 -7t4.5 -25v-8q0 -18 -4.5 -25t-16.5 -7h-50v-762h50q12 0 16.5 -7.5t4.5 -25.5v-7q0 -18 -4.5 -25t-16.5 -7h-104q-16 0 -22.5 8z" />
    <glyph glyph-name="backslash" unicode="\" horiz-adv-x="289" 
d="M203 3l-199 660q-3 13 -3 20q0 9 7 14t20 5h18q27 0 34 -24l200 -660q3 -15 3 -19q0 -9 -7 -14.5t-20 -5.5h-20q-27 0 -33 24z" />
    <glyph glyph-name="bracketright" unicode="]" horiz-adv-x="239" 
d="M28.5 -130.5q-5.5 7.5 -5.5 24.5v7q0 33 22 33h50v762h-50q-11 0 -16.5 7.5t-5.5 24.5v8q0 17 5.5 24.5t16.5 7.5h104q15 0 22 -8t7 -25v-840q0 -17 -7 -25t-22 -8h-104q-11 0 -16.5 7.5z" />
    <glyph glyph-name="asciicircum" unicode="^" horiz-adv-x="360" 
d="M38 324.5q-6 5.5 -6 14.5q0 4 2 14l103 309q4 12 12 17.5t20 5.5h23q12 0 19.5 -5t11.5 -18l103 -309q2 -10 2 -14q0 -20 -24 -20h-13q-30 0 -37 25l-74 246l-74 -246q-9 -25 -36 -25h-14q-12 0 -18 5.5z" />
    <glyph glyph-name="underscore" unicode="_" horiz-adv-x="427" 
d="M-11.5 -132.5q-5.5 6.5 -5.5 21.5v8q0 29 22 29h417q22 0 22 -29v-8q0 -15 -5.5 -21.5t-16.5 -6.5h-417q-11 0 -16.5 6.5z" />
    <glyph glyph-name="grave" unicode="`" horiz-adv-x="256" 
d="M129 602l-32 42q-34 45 -42 56.5t-8 18.5q0 8 11 11t35 3q50 0 63 -27q24 -50 37 -77.5t13 -34.5t-5 -9.5t-18 -2.5q-41 0 -54 20z" />
    <glyph glyph-name="a" unicode="a" horiz-adv-x="481" 
d="M85.5 34q-38.5 41 -38.5 115q0 97 70 140t189 44v38q0 33 -19 53.5t-61 20.5q-31 0 -54.5 -7.5t-42.5 -17t-23 -9.5q-11 0 -25.5 23t-14.5 35q0 14 23.5 28t61.5 23.5t79 9.5q87 0 132.5 -42t45.5 -116v-216q0 -67 6 -97t6 -34q0 -14 -24.5 -20t-45.5 -6q-15 0 -22 13.5
t-14 43.5q-49 -63 -123 -63q-67 0 -105.5 41zM306 131v125q-73 -1 -115.5 -22.5t-42.5 -80.5q0 -72 68 -72q56 0 90 50z" />
    <glyph glyph-name="b" unicode="b" 
d="M218 12q-30 19 -52 55l-10 -53q-3 -9 -12.5 -12.5t-25.5 -3.5h-7q-41 0 -41 25v705q0 25 44 25h16q44 0 44 -25v-243q20 21 43 33t56 12q76 0 120.5 -70t44.5 -196q0 -82 -19.5 -143t-54.5 -94.5t-81 -33.5q-35 0 -65 19zM311.5 127q19.5 47 19.5 138t-21 134.5t-64 43.5
q-42 0 -72 -36v-268q17 -28 37.5 -43.5t42.5 -15.5q38 0 57.5 47z" />
    <glyph glyph-name="c" unicode="c" horiz-adv-x="408" 
d="M95 57.5q-52 64.5 -52 205.5q0 143 54 205t155 62q49 0 90 -16t41 -37q0 -14 -13 -37t-22 -23q-5 0 -13 5q-19 10 -36.5 16.5t-40.5 6.5q-54 0 -80.5 -42t-26.5 -138q0 -99 25 -143t83 -44q26 0 44.5 6t35.5 16q5 2 8.5 5t5.5 3q12 0 24.5 -22t12.5 -36t-22.5 -27
t-55 -21.5t-59.5 -8.5q-106 0 -158 64.5z" />
    <glyph glyph-name="d" unicode="d" horiz-adv-x="481" 
d="M117 26.5q-35 33.5 -54 94.5t-19 143q0 126 44.5 196t120.5 70q58 0 99 -45v243q0 25 44 25h16q44 0 44 -25v-572q0 -65 5.5 -95.5t5.5 -36.5q0 -12 -27 -18.5t-47 -6.5q-17 0 -23.5 16.5t-11.5 51.5q-21 -36 -50.5 -55t-64.5 -19q-47 0 -82 33.5zM271 96q21 16 37 45
v266q-30 36 -71 36q-44 0 -65.5 -44.5t-21.5 -134.5t19.5 -137t58.5 -47q22 0 43 16z" />
    <glyph glyph-name="e" unicode="e" horiz-adv-x="454" 
d="M96 59q-53 66 -53 199q0 137 51.5 204.5t148.5 67.5q90 0 134.5 -67.5t44.5 -196.5q0 -10 -15 -28t-24 -18h-232q4 -75 29.5 -108.5t77.5 -33.5q33 0 55 9t37.5 19.5t18.5 10.5q12 0 26 -23t14 -35q0 -15 -22.5 -30.5t-58 -25.5t-71.5 -10q-108 0 -161 66zM319 297
q0 76 -19 113t-59 37q-43 0 -65 -36t-26 -114h169z" />
    <glyph glyph-name="f" unicode="f" horiz-adv-x="286" 
d="M88 23v415h-24q-12 0 -17.5 8.5t-5.5 27.5v13q0 19 5.5 27.5t17.5 8.5h24v97q0 75 35.5 106t86.5 31q28 0 52.5 -9t24.5 -27q0 -11 -7.5 -33t-17.5 -22q-3 0 -13 3t-21 3q-19 0 -28.5 -12t-9.5 -45v-92h57q12 0 17.5 -8.5t5.5 -27.5v-13q0 -19 -5.5 -27.5t-17.5 -8.5h-57
v-415q0 -25 -46 -25h-10q-46 0 -46 25z" />
    <glyph glyph-name="g" unicode="g" horiz-adv-x="471" 
d="M41 -85q0 42 20.5 73.5t57.5 49.5v3q-17 12 -26 31t-9 42q0 55 48 92q-36 21 -55 59.5t-19 90.5q0 81 45 127.5t125 46.5q22 0 52 -7h144q12 0 17 -8t5 -26v-13q0 -17 -4.5 -24.5t-15.5 -7.5q-36 0 -49 2l-2 -2q21 -39 21 -89q0 -76 -42 -122t-115 -49
q-33 -2 -51.5 -15.5t-18.5 -40.5q0 -28 23 -38t70 -17l28 -5q62 -11 96 -39t34 -88q0 -73 -51 -113t-147 -40q-181 0 -181 127zM286.5 279q21.5 21 21.5 76q0 57 -21.5 78.5t-59.5 21.5t-59 -21.5t-21 -78.5q0 -56 21 -76.5t59 -20.5t59.5 21zM330 -68q0 33 -24 45t-74 19
q-38 6 -56 11q-47 -26 -47 -74q0 -68 101 -68q100 0 100 67z" />
    <glyph glyph-name="h" unicode="h" horiz-adv-x="485" 
d="M72 23v705q0 25 44 25h18q43 0 43 -25v-266q22 31 53.5 49.5t69.5 18.5q54 0 88.5 -38t34.5 -114v-355q0 -25 -43 -25h-17q-44 0 -44 25v340q0 79 -62 79q-29 0 -50.5 -19.5t-29.5 -39.5v-360q0 -25 -44 -25h-17q-44 0 -44 25z" />
    <glyph glyph-name="i" unicode="i" horiz-adv-x="254" 
d="M76 624v53q0 25 52 25t52 -25v-53q0 -25 -52 -25t-52 25zM76 23v477q0 25 46 25h10q46 0 46 -25v-477q0 -25 -46 -25h-10q-46 0 -46 25z" />
    <glyph glyph-name="j" unicode="j" horiz-adv-x="249" 
d="M76 624v53q0 25 52 25t52 -25v-53q0 -25 -52 -25t-52 25zM-16 -176q0 13 6.5 33.5t17.5 20.5q3 0 12 -2.5t22 -2.5q34 0 34 61v566q0 25 46 25h10q46 0 46 -25v-571q0 -76 -34.5 -108.5t-81.5 -32.5q-78 0 -78 36z" />
    <glyph glyph-name="k" unicode="k" horiz-adv-x="452" 
d="M433 13q0 -8 -10 -11.5t-33 -3.5h-30q-17 0 -23.5 2.5t-12.5 12.5l-136 242h-8v-232q0 -25 -43 -25h-17q-44 0 -44 25v705q0 25 44 25h17q43 0 43 -25v-438h5l128 220q5 9 14.5 12t27.5 3h29q39 0 39 -14q0 -7 -8 -21l-130 -216l141 -244q7 -13 7 -17z" />
    <glyph glyph-name="l" unicode="l" horiz-adv-x="270" 
d="M101.5 23q-32.5 30 -32.5 100v605q0 25 45 25h11q46 0 46 -25v-600q0 -50 33 -50q10 0 17.5 2.5t11.5 2.5q10 0 17 -20.5t7 -34.5q0 -18 -24.5 -26.5t-51.5 -8.5q-47 0 -79.5 30z" />
    <glyph glyph-name="m" unicode="m" horiz-adv-x="720" 
d="M623.5 491q33.5 -39 33.5 -117v-351q0 -25 -43 -25h-17q-44 0 -44 25v336q0 83 -59 83q-25 0 -45.5 -16.5t-32.5 -40.5v-12v-350q0 -25 -43 -25h-18q-44 0 -44 25v336q0 83 -59 83q-28 0 -49 -19t-29 -40v-360q0 -25 -43 -25h-18q-43 0 -43 25v343q0 66 -5 96t-5 34
q0 13 27.5 19.5t46.5 6.5q16 0 21.5 -12.5t8.5 -30t4 -25.5q21 34 53.5 55t71.5 21t68 -18.5t43 -56.5q23 33 57.5 54t73.5 21q55 0 88.5 -39z" />
    <glyph glyph-name="n" unicode="n" 
d="M70 23v343q0 66 -5 96t-5 34q0 13 27.5 19.5t46.5 6.5q16 0 21.5 -12.5t8.5 -30t4 -25.5q23 35 56 55.5t72 20.5q60 0 92 -40t32 -112v-355q0 -25 -43 -25h-17q-45 0 -45 25v340q0 79 -61 79q-24 0 -45 -16t-35 -43v-360q0 -25 -43 -25h-18q-43 0 -43 25z" />
    <glyph glyph-name="o" unicode="o" horiz-adv-x="477" 
d="M93 61.5q-50 68.5 -50 198.5t50.5 200t145.5 70q96 0 145.5 -69.5t49.5 -200.5q0 -130 -49.5 -198.5t-145.5 -68.5t-146 68.5zM306.5 122q21.5 44 21.5 139q0 96 -21.5 140t-68.5 44q-46 0 -67 -44t-21 -140t21 -139.5t67 -43.5q47 0 68.5 44z" />
    <glyph glyph-name="p" unicode="p" horiz-adv-x="484" 
d="M71 -183v549q0 65 -5.5 95.5t-5.5 35.5q0 13 26.5 19t47.5 6q15 0 21 -13t9 -30t4 -23q21 36 50.5 55t64.5 19q47 0 82.5 -33.5t54.5 -95t19 -142.5q0 -126 -45 -196t-121 -70q-32 0 -55.5 12t-43.5 33v-221q0 -24 -44 -24h-15q-44 0 -44 24zM332 259q0 90 -19.5 137
t-57.5 47q-22 0 -43 -16t-38 -45v-266q31 -36 73 -36q85 0 85 179z" />
    <glyph glyph-name="q" unicode="q" horiz-adv-x="481" 
d="M309 -183v221q-20 -21 -43.5 -33t-55.5 -12q-77 0 -121.5 69.5t-44.5 196.5q0 82 19.5 143t54.5 94.5t82 33.5q34 0 64.5 -19t51.5 -55q2 14 11 53q3 9 12 12.5t25 3.5h8q41 0 41 -25v-683q0 -24 -45 -24h-16q-43 0 -43 24zM308 116v268q-17 28 -37.5 43.5t-41.5 15.5
q-79 0 -79 -185q0 -91 21 -134.5t65 -43.5t72 36z" />
    <glyph glyph-name="r" unicode="r" horiz-adv-x="337" 
d="M75 23v343q0 66 -6 96t-6 34q0 14 25 20t46 6q15 0 21.5 -14.5t10 -31t4.5 -22.5q44 76 98 76q27 0 39.5 -12.5t12.5 -31.5q0 -18 -6.5 -41t-15.5 -23q-5 0 -18.5 5t-29.5 5q-24 0 -45 -20t-28 -38v-351q0 -25 -45 -25h-11q-46 0 -46 25z" />
    <glyph glyph-name="s" unicode="s" horiz-adv-x="353" 
d="M97.5 0.5q-31.5 9.5 -51 24.5t-19.5 29t15 37t25 23q3 0 18 -10t32.5 -17.5t39.5 -7.5q32 0 49 16t17 47q0 32 -20 53t-61 42q-51 24 -77.5 57t-26.5 89q0 67 42.5 107t109.5 40q43 0 79.5 -13.5t36.5 -33.5q0 -14 -12.5 -38t-21.5 -24q-2 0 -23 11.5t-48 11.5t-44 -14
t-17 -39q0 -31 19 -50t56 -40q55 -26 82 -61t27 -94q0 -69 -45 -112t-115 -43q-35 0 -66.5 9.5z" />
    <glyph glyph-name="t" unicode="t" horiz-adv-x="298" 
d="M115 23.5q-34 30.5 -34 101.5v313h-26q-12 0 -17.5 8.5t-5.5 27.5v13q0 19 5.5 27.5t17.5 8.5h26l13 102q2 25 38 25h16q36 0 36 -25v-102h58q12 0 17 -8.5t5 -27.5v-13q0 -19 -5 -27.5t-17 -8.5h-58v-305q0 -31 9 -43t26 -12q10 0 19 2.5t13 2.5q10 0 16.5 -21.5
t6.5 -33.5q0 -19 -25 -27t-52 -8q-48 0 -82 30.5z" />
    <glyph glyph-name="u" unicode="u" 
d="M95 29.5q-33 37.5 -33 106.5v363q0 25 43 25h17q44 0 44 -25v-345q0 -36 15.5 -55t45.5 -19q25 0 46 16t35 43v360q0 25 43 25h18q43 0 43 -25v-343q0 -66 5 -96t5 -35q0 -13 -27 -19t-47 -6q-16 0 -21.5 12.5t-8.5 30t-4 25.5q-23 -35 -55.5 -55.5t-70.5 -20.5
q-60 0 -93 37.5z" />
    <glyph glyph-name="v" unicode="v" horiz-adv-x="412" 
d="M142 15l-122 476q-2 12 -2 16q0 18 43 18h22q36 0 40 -17l60 -272q9 -44 22 -134h6l4 29q11 79 16 105l60 272q4 17 42 17h20q40 0 40 -18q0 -9 -2 -16l-121 -476q-5 -17 -41 -17h-46q-36 0 -41 17z" />
    <glyph glyph-name="w" unicode="w" horiz-adv-x="616" 
d="M123 15l-106 472l-2 18q0 20 46 20q51 0 54 -17l47 -299q5 -33 4 -26q6 -29 13 -81h5q6 48 19 109l56 296q3 18 39 18h21q37 0 41 -18l56 -296q16 -82 19 -108h5q8 56 17 106l47 299q3 17 52 17q45 0 45 -20l-2 -16l-106 -474q-3 -17 -37 -17h-34q-34 0 -37 17l-61 286
q-5 24 -13 86h-4q-5 -40 -13 -86l-62 -286q-4 -17 -37 -17h-34q-35 0 -38 17z" />
    <glyph glyph-name="x" unicode="x" horiz-adv-x="404" 
d="M16.5 3.5q-5.5 3.5 -5.5 11.5q0 5 3.5 11.5t4.5 8.5l126 232l-119 220q-1 3 -3.5 10t-2.5 11q0 17 46 17h20q20 0 30 -3t14 -13l60 -139l14 -35q5 16 13 35l60 139q4 10 15 13t30 3h19q45 0 45 -17q0 -7 -8 -21l-119 -219l126 -233q7 -14 7 -20q0 -8 -6 -11.5t-20 -3.5
h-41q-20 0 -30 2t-13 11l-66 155q-7 14 -15 38q-8 -24 -14 -38l-68 -155q-4 -9 -13.5 -11t-29.5 -2h-41q-13 0 -18.5 3.5z" />
    <glyph glyph-name="y" unicode="y" horiz-adv-x="402" 
d="M390 507q0 -4 -3 -18l-188 -675q-7 -21 -45 -21h-20q-39 0 -39 17q0 6 3 17l69 229q-16 2 -21 16l-127 415q-4 18 -4 19q0 19 42 19h23q36 0 40 -18l63 -251q5 -20 19 -90h5l8 38l10 52l63 252q4 17 42 17h17q43 0 43 -18z" />
    <glyph glyph-name="z" unicode="z" horiz-adv-x="405" 
d="M38.5 20.5q-7.5 20.5 -7.5 37.5q0 6 2 12l210 368h-176q-22 0 -22 36v13q0 36 22 36h283q6 0 13 -21.5t7 -37.5q0 -6 -2 -12l-209 -367h192q22 0 22 -36v-13q0 -36 -22 -36h-298q-7 0 -14.5 20.5z" />
    <glyph glyph-name="braceleft" unicode="{" horiz-adv-x="249" 
d="M110 -110q-26 28 -26 88v180q0 48 -8.5 74t-33.5 38q-13 6 -19.5 15t-6.5 23v14q0 14 6.5 23t19.5 15q25 12 33.5 38t8.5 74v180q0 59 26 87.5t58 28.5h43q12 0 17.5 -7.5t5.5 -24.5v-7q0 -17 -5 -24.5t-16 -7.5h-12q-19 0 -25.5 -13t-6.5 -41v-187q0 -55 -22 -91
t-46 -51q22 -11 45 -47.5t23 -92.5v-186q0 -28 6.5 -41.5t24.5 -13.5h12q11 0 16.5 -7.5t5.5 -24.5v-7q0 -17 -5.5 -24.5t-17.5 -7.5h-43q-32 0 -58 28z" />
    <glyph glyph-name="bar" unicode="|" horiz-adv-x="200" 
d="M61 -115v860q0 24 34 24h11q18 0 26 -6t8 -18v-860q0 -12 -8 -18t-26 -6h-11q-34 0 -34 24z" />
    <glyph glyph-name="braceright" unicode="}" horiz-adv-x="249" 
d="M24.5 -130.5q-5.5 7.5 -5.5 24.5v7q0 17 5.5 24.5t16.5 7.5h12q18 0 24.5 13.5t6.5 41.5v186q0 56 23 92.5t45 47.5q-24 15 -46 51t-22 91v187q0 28 -6.5 41t-25.5 13h-12q-11 0 -16 7.5t-5 24.5v7q0 17 5.5 24.5t17.5 7.5h42q32 0 58 -28.5t26 -87.5v-180q0 -48 9 -74
t34 -38q13 -6 19.5 -15t6.5 -23v-14q0 -14 -6.5 -23t-19.5 -15q-25 -12 -34 -38.5t-9 -73.5v-180q0 -60 -26 -88t-58 -28h-42q-12 0 -17.5 7.5z" />
    <glyph glyph-name="asciitilde" unicode="~" horiz-adv-x="437" 
d="M62 227q-16 5 -16 16q0 7 4 14q31 69 100 69q17 0 36 -5t46 -15q6 -2 28 -9.5t37 -7.5q12 0 21 5t19 18q12 16 26 16q7 0 14 -3l9 -3q10 -3 14 -6.5t4 -9.5q0 -7 -4 -14q-33 -69 -100 -69q-17 0 -36.5 5t-46.5 15q-45 17 -66 17q-11 0 -20 -5t-19 -19q-6 -8 -11.5 -11
t-12.5 -3q-4 0 -14 2z" />
    <glyph glyph-name="uni00A0" unicode="&#xa0;" horiz-adv-x="137" 
 />
    <glyph glyph-name="exclamdown" unicode="&#xa1;" horiz-adv-x="246" 
d="M72 427v73q0 25 44 25h22q44 0 44 -25v-73q0 -25 -44 -25h-22q-44 0 -44 25zM51 -156q0 36 36 446q1 13 8 19t27 6h9q21 0 28.5 -6t7.5 -19v-444q0 -25 -43 -25h-30q-43 0 -43 23z" />
    <glyph glyph-name="cent" unicode="&#xa2;" horiz-adv-x="440" 
d="M368 23q-22 -13 -54.5 -21.5t-59.5 -8.5v-49q0 -20 -21 -20q-22 0 -22 20v52q-85 11 -126.5 76t-41.5 191q0 128 43.5 190.5t124.5 73.5v37q0 20 21 20q22 0 22 -20v-34q49 -1 89 -17t40 -36q0 -14 -13 -37t-22 -23q-5 0 -13 5q-19 10 -36.5 16.5t-40.5 6.5h-4v-367h5
q26 0 44.5 6t35.5 16q5 2 8.5 5t5.5 3q12 0 24.5 -22t12.5 -36t-22 -27zM165.5 146.5q14.5 -42.5 45.5 -58.5v347q-30 -15 -45 -56.5t-15 -113.5q0 -76 14.5 -118.5z" />
    <glyph glyph-name="sterling" unicode="&#xa3;" horiz-adv-x="411" 
d="M19 8q-6 8 -6 25v17q0 12 7.5 19t24.5 17q25 14 38.5 30.5t13.5 47.5v167h-49q-12 0 -17.5 8.5t-5.5 27.5v13q0 19 5.5 27.5t17.5 8.5h49v83q0 208 179 208q38 0 69.5 -8t31.5 -28q0 -14 -8.5 -35.5t-19.5 -21.5q-4 0 -22 4.5t-38 4.5q-47 0 -69 -28.5t-22 -90.5v-88h104
q12 0 17.5 -8.5t5.5 -27.5v-13q0 -19 -5.5 -27.5t-17.5 -8.5h-104v-81q0 -78 -14.5 -113t-37.5 -52h222q12 0 17 -8.5t5 -27.5v-13q0 -19 -5 -27.5t-17 -8.5h-329q-14 0 -20 8z" />
    <glyph glyph-name="currency" unicode="&#xa4;" horiz-adv-x="462" 
d="M71 132l-10 10q-9 9 -9 20q0 10 11 23l29 29q-24 45 -24 98q0 56 25 101l-31 29q-10 10 -10 23q0 11 8 18l11 13q9 9 19 9q12 0 22 -12l26 -26q41 33 90 33q48 0 92 -32l25 25q11 11 22 11t20 -10l11 -10q9 -9 9 -19q0 -12 -11 -23l-30 -31q24 -46 24 -99q0 -52 -24 -98
l29 -29q12 -12 12 -23q0 -4 -3 -9.5t-8 -10.5l-9 -10q-11 -9 -20 -9q-12 0 -23 11l-23 24q-42 -32 -93 -32q-49 0 -91 31l-24 -24q-10 -10 -22 -10q-9 0 -20 9zM289 231q24 29 24 81q0 53 -24 82.5t-61 29.5q-36 0 -60 -29.5t-24 -82.5q0 -52 24 -81t60 -29q37 0 61 29z" />
    <glyph glyph-name="yen" unicode="&#xa5;" horiz-adv-x="470" 
d="M463 664l-117 -250h61q11 0 16 -7t5 -23v-10q0 -16 -5 -23t-16 -7h-94l-16 -34v-53h110q11 0 16 -7t5 -23v-10q0 -16 -5 -23t-16 -7h-110v-164q0 -25 -44 -25h-21q-45 0 -45 25v164h-122q-22 0 -22 30v10q0 30 22 30h122v56l-15 31h-107q-22 0 -22 30v10q0 30 22 30h75
l-118 250q-7 14 -7 20q0 18 47 18h27q18 0 29 -3.5t15 -12.5l112 -272l113 273q3 9 14 12t30 3h22q45 -1 45 -18q0 -8 -6 -20z" />
    <glyph glyph-name="brokenbar" unicode="&#xa6;" horiz-adv-x="200" 
d="M61 421v324q0 25 34 25h11q34 0 34 -25v-324q0 -25 -34 -25h-11q-34 0 -34 25zM61 -115v323q0 25 34 25h11q34 0 34 -25v-323q0 -25 -34 -25h-11q-34 0 -34 25z" />
    <glyph glyph-name="section" unicode="&#xa7;" horiz-adv-x="355" 
d="M81 10.5q-40 17.5 -40 38.5q0 14 14 38t23 24q2 0 15.5 -8.5t29.5 -15t36 -6.5q28 0 43.5 13t15.5 36q0 24 -16 38t-55 34l-19 10q-46 23 -72.5 54.5t-26.5 88.5q0 36 15 64.5t41 47.5q-45 41 -45 101q0 65 43 101.5t108 36.5q41 0 78.5 -13.5t37.5 -34.5q0 -13 -12 -37
t-22 -24q-2 0 -23.5 11.5t-48.5 11.5t-42.5 -12.5t-15.5 -35.5q0 -19 11 -32.5t24 -20.5t46 -23q49 -24 77.5 -57.5t28.5 -91.5q0 -71 -54 -110q44 -42 44 -103q0 -65 -43.5 -103t-108.5 -38q-47 0 -87 17.5zM236 342q0 30 -18 45.5t-55 31.5q-39 -15 -39 -57q0 -31 18 -47
t55 -31q39 13 39 58z" />
    <glyph glyph-name="dieresis" unicode="&#xa8;" horiz-adv-x="256" 
d="M17 624v53q0 25 44 25t44 -25v-53q0 -25 -45 -25q-43 0 -43 25zM153 624v53q0 25 45 25q43 0 43 -25v-53q0 -25 -44 -25t-44 25z" />
    <glyph glyph-name="copyright" unicode="&#xa9;" horiz-adv-x="592" 
d="M150 36q-65 42 -103 123t-38 194q0 112 38 192.5t103 122t146 41.5t146 -41.5t102.5 -122t37.5 -192.5q0 -113 -37.5 -194t-102.5 -123t-146 -42t-146 42zM413.5 82.5q52.5 35.5 83.5 104.5t31 166q0 98 -31 166.5t-83.5 103t-117.5 34.5t-117.5 -34.5t-83.5 -103
t-31 -166.5q0 -97 31 -166t83.5 -104.5t117.5 -35.5t117.5 35.5zM194.5 192q-36.5 51 -36.5 158q0 209 151 209q32 0 62.5 -12t30.5 -25q0 -10 -9.5 -25.5t-16.5 -15.5q-1 0 -18 12.5t-50 12.5q-44 0 -65.5 -38t-21.5 -118q0 -79 21 -117.5t65 -38.5q21 0 36.5 6.5t26 14
t12.5 7.5q9 0 17 -14.5t8 -22.5q0 -15 -34 -29.5t-66 -14.5q-76 0 -112.5 51z" />
    <glyph glyph-name="ordfeminine" unicode="&#xaa;" horiz-adv-x="281" 
d="M46.5 461q-20.5 21 -20.5 57q0 88 143 90v3q0 36 -42 36q-23 0 -45.5 -7.5t-27.5 -8.5q-5 0 -12.5 18.5t-7.5 26.5q0 12 30 22t67 10q55 0 82 -25t27 -70v-92q0 -34 3 -48.5t3 -16.5q0 -7 -19.5 -10t-33.5 -3q-9 0 -12.5 6t-6.5 20q-29 -29 -71 -29q-36 0 -56.5 21z
M169 518v42q-34 -1 -53 -8.5t-19 -30.5q0 -27 27 -27t45 24z" />
    <glyph glyph-name="guillemotleft" unicode="&#xab;" horiz-adv-x="405" 
d="M142 70l-103 155q-12 18 -12 33t12 33l103 155q8 12 21 12q12 0 28 -10.5t16 -22.5q0 -9 -7 -21l-92 -146l92 -147q7 -10 7 -20q0 -12 -15.5 -22.5t-28.5 -10.5t-21 12zM304 70l-103 155q-7 11 -9.5 18t-2.5 15t2.5 15t9.5 18l103 155q8 12 21 12q12 0 28 -10.5t16 -22.5
q0 -9 -7 -21l-91 -146l91 -147q7 -10 7 -20q0 -12 -15.5 -22.5t-28.5 -10.5t-21 12z" />
    <glyph glyph-name="logicalnot" unicode="&#xac;" horiz-adv-x="449" 
d="M336 100v158h-288q-22 0 -22 36v11q0 36 22 36h344q16 0 23 -8t7 -25v-208q0 -24 -30 -24h-27q-29 0 -29 24z" />
    <glyph glyph-name="uni00AD" unicode="&#xad;" horiz-adv-x="256" 
d="M26 261v9q0 19 5.5 27t16.5 8h159q11 0 16.5 -8t5.5 -27v-9q0 -36 -22 -36h-159q-22 0 -22 36z" />
    <glyph glyph-name="registered" unicode="&#xae;" horiz-adv-x="592" 
d="M150 36q-65 42 -103 123t-38 194q0 112 38 192.5t103 122t146 41.5t146 -41.5t102.5 -122t37.5 -192.5q0 -113 -37.5 -194t-102.5 -123t-146 -42t-146 42zM413.5 82.5q52.5 35.5 83.5 104.5t31 166q0 98 -31 166.5t-83.5 103t-117.5 34.5t-117.5 -34.5t-83.5 -103
t-31 -166.5q0 -97 31 -166t83.5 -104.5t117.5 -35.5t117.5 35.5zM194 163v374q0 19 18 19h84q58 0 85.5 -25t27.5 -79q0 -35 -15 -60t-39 -37v-3q19 -11 37 -66l37 -119q2 -4 2 -9q0 -10 -24 -10h-15q-21 0 -24 10l-35 114q-9 30 -19.5 40.5t-33.5 10.5h-24v-160
q0 -15 -25 -15h-12q-25 0 -25 15zM303 376q17 0 29.5 19.5t12.5 45.5q0 31 -12 46.5t-33 15.5h-44v-127h47z" />
    <glyph glyph-name="macron" unicode="&#xaf;" horiz-adv-x="255" 
d="M6 641v11q0 33 22 33h197q12 0 17 -8t5 -25v-11q0 -17 -5 -25t-17 -8h-197q-22 0 -22 33z" />
    <glyph glyph-name="degree" unicode="&#xb0;" horiz-adv-x="276" 
d="M60.5 477q-29.5 35 -29.5 97t29.5 97.5t76.5 35.5t76.5 -35.5t29.5 -97.5t-29.5 -97t-76.5 -35t-76.5 35zM174.5 512.5q14.5 21.5 14.5 61.5q0 39 -14.5 61t-38.5 22t-38.5 -22t-14.5 -61q0 -40 14.5 -61.5t38.5 -21.5t38.5 21.5z" />
    <glyph glyph-name="plusminus" unicode="&#xb1;" horiz-adv-x="449" 
d="M183 159v164h-125q-24 0 -24 35v7q0 36 24 36h125v165q0 30 36 30h9q36 0 36 -30v-165h126q13 0 18 -8.5t5 -27.5v-7q0 -18 -5.5 -26.5t-17.5 -8.5h-126v-164q0 -30 -36 -30h-9q-36 0 -36 30zM32 36v11q0 36 24 36h335q25 0 25 -36v-11q0 -36 -25 -36h-335q-24 0 -24 36z
" />
    <glyph glyph-name="uni00B2" unicode="&#xb2;" horiz-adv-x="280" 
d="M25.5 308q-3.5 11 -3.5 22q0 7 2 9l133 190q18 26 24.5 41.5t6.5 32.5q0 25 -16 39t-43 14q-20 0 -34.5 -6.5t-26 -14.5t-14.5 -8q-7 0 -15 12t-8 21q0 18 34 32t69 14q52 0 83.5 -27t31.5 -73q0 -29 -13 -55t-54 -80l-84 -125h139q13 0 13 -21v-7q0 -21 -13 -21h-202
q-6 0 -9.5 11z" />
    <glyph glyph-name="uni00B3" unicode="&#xb3;" horiz-adv-x="280" 
d="M56 302q-34 11 -34 27q0 8 8.5 20.5t14.5 12.5q3 0 24.5 -11t50.5 -11t50.5 18t21.5 57q0 71 -78 71h-22q-14 0 -14 21v8q0 20 14 20h19q34 0 51 21.5t17 46.5q0 22 -14 38t-45 16q-27 0 -44 -9.5t-19 -9.5q-6 0 -14.5 13t-8.5 22q0 15 30.5 24.5t63.5 9.5q51 0 81.5 -27
t30.5 -74q0 -32 -16.5 -52.5t-42.5 -31.5v-2q31 -10 51.5 -37.5t20.5 -70.5q0 -57 -34.5 -89t-88.5 -32q-40 0 -74 11z" />
    <glyph glyph-name="acute" unicode="&#xb4;" horiz-adv-x="256" 
d="M52.5 584.5q-5.5 2.5 -5.5 9.5q0 6 8 23.5t23 47.5l20 41q14 27 63 27q24 0 34.5 -3t10.5 -11q0 -6 -8.5 -19t-28.5 -39q-7 -9 -17.5 -23t-26.5 -36q-7 -10 -19.5 -15t-34.5 -5q-13 0 -18.5 2.5z" />
    <glyph glyph-name="uni00B5" unicode="&#xb5;" horiz-adv-x="453" 
d="M401.5 59q4.5 -30 4.5 -34q0 -14 -27 -20t-49 -6q-14 0 -19.5 14t-8 31.5l-3.5 24.5q-20 -34 -52.5 -55t-69.5 -21q-6 0 -16 2v-178q0 -12 -10 -18t-33 -6h-17q-44 0 -44 24v683q0 25 44 25h17q43 0 43 -25v-333q0 -86 58 -86q24 0 43 18.5t31 47.5v353q0 25 44 25h17
q43 0 43 -25v-344q0 -67 4.5 -97z" />
    <glyph glyph-name="paragraph" unicode="&#xb6;" horiz-adv-x="466" 
d="M206 -148v369q-49 7 -89.5 39.5t-64 84t-23.5 115.5q0 69 27 124t73.5 85.5t101.5 30.5h205q23 0 23 -26v-11q0 -25 -23 -25h-28v-786q0 -24 -25 -24h-11q-26 0 -26 24v786h-78v-786q0 -24 -25 -24h-11q-26 0 -26 24z" />
    <glyph glyph-name="periodcentered" unicode="&#xb7;" horiz-adv-x="214" 
d="M74 318.5q-15 15.5 -15 41.5t15 41.5t39 15.5t39.5 -15.5t15.5 -41.5t-15.5 -41.5t-39.5 -15.5t-39 15.5z" />
    <glyph glyph-name="cedilla" unicode="&#xb8;" horiz-adv-x="256" 
d="M200.5 -74q21.5 -16 21.5 -52q0 -45 -27 -65t-71 -20q-35 0 -66.5 13.5t-31.5 32.5q0 11 8 21t15 10q6 0 24 -8q26 -13 44 -13q12 0 21.5 6.5t9.5 19.5t-7.5 19t-22.5 11q-12 5 -17 9t-5 11q0 6 5.5 25t18.5 57h48l-17 -59q28 -2 49.5 -18z" />
    <glyph glyph-name="uni00B9" unicode="&#xb9;" horiz-adv-x="280" 
d="M115 311v331l-64 -14q-7 0 -10.5 12t-3.5 24q0 10 11 13l111 26q6 0 11.5 -4t5.5 -9v-379q0 -15 -24 -15h-12q-25 0 -25 15z" />
    <glyph glyph-name="ordmasculine" unicode="&#xba;" horiz-adv-x="292" 
d="M60 474.5q-30 34.5 -30 98.5q0 65 30.5 100t86.5 35t86 -35t30 -100q0 -64 -30 -98.5t-86 -34.5q-57 0 -87 34.5zM178.5 519q10.5 17 10.5 55q0 37 -10.5 54.5t-32.5 17.5t-32 -17.5t-10 -54.5t10 -54.5t32 -17.5t32.5 17z" />
    <glyph glyph-name="guillemotright" unicode="&#xbb;" horiz-adv-x="405" 
d="M49 68.5q-16 10.5 -16 22.5q0 10 7 20l92 147l-92 146q-7 12 -7 21q0 12 16.5 22.5t28.5 10.5t20 -12l103 -155q5 -9 8.5 -17t3.5 -16t-3.5 -16t-8.5 -17l-103 -155q-8 -12 -20 -12q-13 0 -29 10.5zM210 68.5q-16 10.5 -16 22.5q0 10 7 20l93 147l-93 146q-7 12 -7 21
q0 12 16.5 22.5t28.5 10.5t20 -12l103 -155q12 -18 12 -33t-12 -33l-103 -155q-8 -12 -20 -12q-13 0 -29 10.5z" />
    <glyph glyph-name="onequarter" unicode="&#xbc;" horiz-adv-x="586" 
d="M115 311v331l-64 -14q-7 0 -10.5 12t-3.5 24q0 10 11 13l111 26q6 0 11.5 -4t5.5 -9v-379q0 -15 -24 -15h-12q-25 0 -25 15zM104 7q0 1 5 11l298 665q8 19 32 19h13q15 0 15 -8q0 -3 -1 -6t-2 -5l-299 -665q-9 -19 -32 -19h-14q-15 0 -15 8zM447 12v80h-137
q-4 0 -9.5 13.5t-5.5 22.5q0 5 1 7l146 262q6 9 25 9h17q22 0 22 -14v-251h28q13 0 13 -21v-7q0 -21 -13 -21h-28v-80q0 -14 -22 -14h-15q-22 0 -22 14zM447 141v99q0 40 6 73l-3 1l-95 -173h92z" />
    <glyph glyph-name="onehalf" unicode="&#xbd;" horiz-adv-x="641" 
d="M115 311v331l-64 -14q-7 0 -10.5 12t-3.5 24q0 10 11 13l111 26q6 0 11.5 -4t5.5 -9v-379q0 -15 -24 -15h-12q-25 0 -25 15zM104 7q0 1 5 11l298 665q8 19 32 19h13q15 0 15 -8q0 -3 -1 -6t-2 -5l-299 -665q-9 -19 -32 -19h-14q-15 0 -15 8zM377.5 11q-3.5 11 -3.5 22
q0 7 2 9l133 190q18 26 24.5 41.5t6.5 32.5q0 25 -16 39t-43 14q-20 0 -34.5 -6.5t-26 -14.5t-14.5 -8q-7 0 -15 12t-8 21q0 18 34 32t69 14q52 0 83.5 -27t31.5 -73q0 -29 -13 -55t-54 -80l-84 -125h139q13 0 13 -21v-7q0 -21 -13 -21h-202q-6 0 -9.5 11z" />
    <glyph glyph-name="threequarters" unicode="&#xbe;" horiz-adv-x="627" 
d="M56 302q-34 11 -34 27q0 8 8.5 20.5t14.5 12.5q3 0 24.5 -11t50.5 -11t50.5 18t21.5 57q0 71 -78 71h-22q-14 0 -14 21v8q0 20 14 20h19q34 0 51 21.5t17 46.5q0 22 -14 38t-45 16q-27 0 -44 -9.5t-19 -9.5q-6 0 -14.5 13t-8.5 22q0 15 30.5 24.5t63.5 9.5q51 0 81.5 -27
t30.5 -74q0 -32 -16.5 -52.5t-42.5 -31.5v-2q31 -10 51.5 -37.5t20.5 -70.5q0 -57 -34.5 -89t-88.5 -32q-40 0 -74 11zM143 7q0 1 5 11l298 665q8 19 32 19h13q15 0 15 -8q0 -3 -4 -11l-299 -665q-8 -19 -31 -19h-14q-15 0 -15 8zM484 12v80h-137q-4 0 -9.5 13.5t-5.5 22.5
q0 5 1 7l146 262q6 9 25 9h17q22 0 22 -14v-251h28q13 0 13 -21v-7q0 -21 -13 -21h-28v-80q0 -14 -22 -14h-15q-22 0 -22 14zM484 141v99q0 40 6 73l-3 1l-95 -173h92z" />
    <glyph glyph-name="questiondown" unicode="&#xbf;" horiz-adv-x="391" 
d="M292 500v-73q0 -25 -45 -25h-22q-45 0 -45 25v73q0 25 45 25h22q45 0 45 -25zM271 309q8 -6 8 -19q0 -36 -19 -77.5t-55 -82.5q-43 -49 -61.5 -77t-18.5 -60q0 -42 24.5 -64t70.5 -22q25 0 44.5 7t39.5 18q14 8 20 8q11 0 26 -23.5t15 -36.5q0 -28 -50 -46t-107 -18
q-59 0 -103.5 21.5t-68.5 59t-24 85.5q0 50 23 87.5t69 87.5q40 44 59.5 72t24.5 64q2 12 10.5 17t28.5 5h17q19 0 27 -6z" />
    <glyph glyph-name="Agrave" unicode="&#xc0;" horiz-adv-x="505" 
d="M220 779l-32 42q-34 45 -42 56.5t-8 18.5q0 8 11 11t35 3q50 0 63 -27q24 -50 37 -77.5t13 -34.5t-5 -9.5t-18 -2.5q-41 0 -54 20zM10 16q0 3 2 15l173 649q7 22 46 22h42q42 0 46 -22l173 -649q3 -9 3 -15q0 -18 -39 -18h-27q-37 0 -41 17l-38 152h-197l-37 -152
q-4 -17 -40 -17h-26q-40 0 -40 18zM330 257l-64 256q-4 16 -11 65h-5l-4 -24q-2 -17 -8 -41l-63 -256h155z" />
    <glyph glyph-name="Aacute" unicode="&#xc1;" horiz-adv-x="505" 
d="M224.5 761.5q-5.5 2.5 -5.5 9.5q0 6 8 23.5t23 47.5l20 41q14 27 63 27q24 0 34.5 -3t10.5 -11q0 -6 -8.5 -19t-28.5 -39q-7 -9 -17.5 -23t-26.5 -36q-7 -10 -19.5 -15t-34.5 -5q-13 0 -18.5 2.5zM10 16q0 3 2 15l173 649q7 22 46 22h42q42 0 46 -22l173 -649q3 -9 3 -15
q0 -18 -39 -18h-27q-37 0 -41 17l-38 152h-197l-37 -152q-4 -17 -40 -17h-26q-40 0 -40 18zM330 257l-64 256q-4 16 -11 65h-5l-4 -24q-2 -17 -8 -41l-63 -256h155z" />
    <glyph glyph-name="Acircumflex" unicode="&#xc2;" horiz-adv-x="505" 
d="M144 755.5q-5 3.5 -5 8.5q0 4 7 18l54 92q14 21 47 21h11q32 0 46 -21l55 -92q7 -10 7 -17q0 -13 -20 -13h-22q-23 0 -32 15l-40 65l-39 -65q-10 -15 -33 -15h-21q-10 0 -15 3.5zM10 16q0 3 2 15l173 649q7 22 46 22h42q42 0 46 -22l173 -649q3 -9 3 -15q0 -18 -39 -18
h-27q-37 0 -41 17l-38 152h-197l-37 -152q-4 -17 -40 -17h-26q-40 0 -40 18zM330 257l-64 256q-4 16 -11 65h-5l-4 -24q-2 -17 -8 -41l-63 -256h155z" />
    <glyph glyph-name="Atilde" unicode="&#xc3;" horiz-adv-x="505" 
d="M116 769q-14 5 -14 16q0 7 3 14q26 69 85 69q23 0 69 -20q4 -2 23 -9.5t32 -7.5q10 0 17.5 5t16.5 18q10 16 22 16q4 0 12 -3l8 -3q8 -3 11.5 -6.5t3.5 -9.5q0 -4 -4 -14q-27 -69 -85 -69q-15 0 -30.5 5t-39.5 15q-15 7 -30 12t-26 5q-9 0 -16 -5t-16 -19
q-10 -14 -21 -14q-3 0 -11 2zM10 16q0 3 2 15l173 649q7 22 46 22h42q42 0 46 -22l173 -649q3 -9 3 -15q0 -18 -39 -18h-27q-37 0 -41 17l-38 152h-197l-37 -152q-4 -17 -40 -17h-26q-40 0 -40 18zM330 257l-64 256q-4 16 -11 65h-5l-4 -24q-2 -17 -8 -41l-63 -256h155z" />
    <glyph glyph-name="Adieresis" unicode="&#xc4;" horiz-adv-x="505" 
d="M142 801v53q0 25 44 25t44 -25v-53q0 -25 -45 -25q-43 0 -43 25zM278 801v53q0 25 45 25q43 0 43 -25v-53q0 -25 -44 -25t-44 25zM10 16q0 3 2 15l173 649q7 22 46 22h42q42 0 46 -22l173 -649q3 -9 3 -15q0 -18 -39 -18h-27q-37 0 -41 17l-38 152h-197l-37 -152
q-4 -17 -40 -17h-26q-40 0 -40 18zM330 257l-64 256q-4 16 -11 65h-5l-4 -24q-2 -17 -8 -41l-63 -256h155z" />
    <glyph glyph-name="Aring" unicode="&#xc5;" horiz-adv-x="505" 
d="M188 761.5q-24 24.5 -24 63.5q0 40 24 65t63 25q40 0 64 -25t24 -65q0 -39 -24 -63.5t-64 -24.5q-39 0 -63 24.5zM283.5 791.5q11.5 11.5 11.5 33.5t-11.5 34t-32.5 12t-32 -12t-12 -34q2 -45 44 -45q21 0 32.5 11.5zM10 16q0 3 2 15l173 649q7 22 46 22h42q42 0 46 -22
l173 -649q3 -9 3 -15q0 -18 -39 -18h-27q-37 0 -41 17l-38 152h-197l-37 -152q-4 -17 -40 -17h-26q-40 0 -40 18zM330 257l-64 256q-4 16 -11 65h-5l-4 -24q-2 -17 -8 -41l-63 -256h155z" />
    <glyph glyph-name="AE" unicode="&#xc6;" horiz-adv-x="746" 
d="M2 16q0 8 3 17l253 640q6 14 14 20.5t21 6.5h371q22 0 22 -36v-20q0 -36 -22 -36h-262l29 -204h211q22 0 22 -36v-20q0 -36 -22 -36h-197l32 -220h188q22 0 22 -36v-20q0 -36 -22 -36h-256q-13 0 -19.5 7t-8.5 22l-19 138h-200l-58 -152q-8 -17 -35 -17h-23q-44 0 -44 18
zM349 259l-34 246l-1 62h-3l-20 -61l-94 -247h152z" />
    <glyph glyph-name="Ccedilla" unicode="&#xc7;" horiz-adv-x="459" 
d="M407 111q15 0 23.5 -20t8.5 -43q0 -24 -26 -35q-34 -16 -86 -19l-14 -50q28 -2 49.5 -18t21.5 -52q0 -45 -27 -65t-71 -20q-35 0 -66.5 13.5t-31.5 32.5q0 11 8 21t15 10q6 0 24 -8q26 -13 44 -13q12 0 21.5 6.5t9.5 19.5t-7.5 19t-22.5 11q-12 5 -17 9t-5 11q0 6 5 23
t16 50q-120 9 -176.5 95.5t-56.5 261.5q0 180 65 268t199 88q26 0 52 -5t45 -12q12 -4 16.5 -12t4.5 -21q-1 -24 -10.5 -47.5t-25.5 -15.5q-38 18 -80 18q-79 0 -116.5 -63.5t-37.5 -197.5t37.5 -198.5t116.5 -64.5q46 0 86 21q6 2 9 2z" />
    <glyph glyph-name="Egrave" unicode="&#xc8;" horiz-adv-x="457" 
d="M213 779l-32 42q-34 45 -42 56.5t-8 18.5q0 8 11 11t35 3q50 0 63 -27q24 -50 37 -77.5t13 -34.5t-5 -9.5t-18 -2.5q-41 0 -54 20zM79 8q-7 8 -7 25v634q0 17 7 25t23 8h290q22 0 22 -36v-20q0 -36 -22 -36h-211v-204h189q22 0 22 -36v-20q0 -36 -22 -36h-189v-220h211
q12 0 17 -8.5t5 -27.5v-20q0 -19 -5 -27.5t-17 -8.5h-290q-16 0 -23 8z" />
    <glyph glyph-name="Eacute" unicode="&#xc9;" horiz-adv-x="457" 
d="M79 8q-7 8 -7 25v634q0 17 7 25t23 8h290q22 0 22 -36v-20q0 -36 -22 -36h-211v-204h189q22 0 22 -36v-20q0 -36 -22 -36h-189v-220h211q12 0 17 -8.5t5 -27.5v-20q0 -19 -5 -27.5t-17 -8.5h-290q-16 0 -23 8zM217.5 761.5q-5.5 2.5 -5.5 9.5q0 6 8 23.5t23 47.5l20 41
q14 27 63 27q24 0 34.5 -3t10.5 -11q0 -6 -8.5 -19t-28.5 -39q-7 -9 -17.5 -23t-26.5 -36q-7 -10 -19.5 -15t-34.5 -5q-13 0 -18.5 2.5z" />
    <glyph glyph-name="Ecircumflex" unicode="&#xca;" horiz-adv-x="457" 
d="M137 755.5q-5 3.5 -5 8.5q0 4 7 18l54 92q14 21 47 21h11q32 0 46 -21l55 -92q7 -10 7 -17q0 -13 -20 -13h-22q-23 0 -32 15l-40 65l-39 -65q-10 -15 -33 -15h-21q-10 0 -15 3.5zM79 8q-7 8 -7 25v634q0 17 7 25t23 8h290q22 0 22 -36v-20q0 -36 -22 -36h-211v-204h189
q22 0 22 -36v-20q0 -36 -22 -36h-189v-220h211q12 0 17 -8.5t5 -27.5v-20q0 -19 -5 -27.5t-17 -8.5h-290q-16 0 -23 8z" />
    <glyph glyph-name="Edieresis" unicode="&#xcb;" horiz-adv-x="457" 
d="M135 801v53q0 25 44 25t44 -25v-53q0 -25 -45 -25q-43 0 -43 25zM271 801v53q0 25 45 25q43 0 43 -25v-53q0 -25 -44 -25t-44 25zM79 8q-7 8 -7 25v634q0 17 7 25t23 8h290q22 0 22 -36v-20q0 -36 -22 -36h-211v-204h189q22 0 22 -36v-20q0 -36 -22 -36h-189v-220h211
q12 0 17 -8.5t5 -27.5v-20q0 -19 -5 -27.5t-17 -8.5h-290q-16 0 -23 8z" />
    <glyph glyph-name="Igrave" unicode="&#xcc;" horiz-adv-x="262" 
d="M98 779l-32 42q-34 45 -42 56.5t-8 18.5q0 8 11 11t35 3q50 0 63 -27q24 -50 37 -77.5t13 -34.5t-5 -9.5t-18 -2.5q-41 0 -54 20zM76 23v654q0 25 44 25h23q43 0 43 -25v-654q0 -25 -43 -25h-23q-44 0 -44 25z" />
    <glyph glyph-name="Iacute" unicode="&#xcd;" horiz-adv-x="262" 
d="M76 23v654q0 25 44 25h23q43 0 43 -25v-654q0 -25 -43 -25h-23q-44 0 -44 25zM102.5 761.5q-5.5 2.5 -5.5 9.5q0 6 8 23.5t23 47.5l20 41q14 27 63 27q24 0 34.5 -3t10.5 -11q0 -6 -8.5 -19t-28.5 -39q-7 -9 -17.5 -23t-26.5 -36q-7 -10 -19.5 -15t-34.5 -5
q-13 0 -18.5 2.5z" />
    <glyph glyph-name="Icircumflex" unicode="&#xce;" horiz-adv-x="262" 
d="M22 755.5q-5 3.5 -5 8.5q0 4 7 18l54 92q14 21 47 21h11q32 0 46 -21l55 -92q7 -10 7 -17q0 -13 -20 -13h-22q-23 0 -32 15l-40 65l-39 -65q-10 -15 -33 -15h-21q-10 0 -15 3.5zM76 23v654q0 25 44 25h23q43 0 43 -25v-654q0 -25 -43 -25h-23q-44 0 -44 25z" />
    <glyph glyph-name="Idieresis" unicode="&#xcf;" horiz-adv-x="262" 
d="M20 801v53q0 25 44 25t44 -25v-53q0 -25 -45 -25q-43 0 -43 25zM156 801v53q0 25 45 25q43 0 43 -25v-53q0 -25 -44 -25t-44 25zM76 23v654q0 25 44 25h23q43 0 43 -25v-654q0 -25 -43 -25h-23q-44 0 -44 25z" />
    <glyph glyph-name="Eth" unicode="&#xd0;" horiz-adv-x="577" 
d="M528 350q0 -183 -65 -266.5t-187 -83.5h-174q-16 0 -23 8t-7 25v279h-41q-11 0 -16.5 8t-5.5 27v20q0 36 22 36h41v264q0 17 7 25t23 8h174q252 0 252 -350zM379 153q37 61 37 197q0 258 -143 258h-91v-205h63q12 0 17 -8.5t5 -27.5v-20q0 -19 -5 -27t-17 -8h-63v-220h91
q69 0 106 61z" />
    <glyph glyph-name="Ntilde" unicode="&#xd1;" horiz-adv-x="590" 
d="M158 769q-14 5 -14 16q0 7 3 14q26 69 85 69q23 0 69 -20q4 -2 23 -9.5t32 -7.5q10 0 17.5 5t16.5 18q10 16 22 16q4 0 12 -3l8 -3q8 -3 11.5 -6.5t3.5 -9.5q0 -4 -4 -14q-27 -69 -85 -69q-15 0 -30.5 5t-39.5 15q-15 7 -30 12t-26 5q-9 0 -16 -5t-16 -19
q-10 -14 -21 -14q-3 0 -11 2zM67 23v654q0 25 44 25h24q16 0 26.5 -4.5t16.5 -17.5l217 -412q13 -25 28 -68l5 2q-8 37 -8 70v405q0 25 44 25h15q44 0 44 -25v-654q0 -25 -44 -25h-20q-33 0 -41 19l-225 427q-13 23 -26 63l-5 -2q8 -37 8 -67v-415q0 -25 -44 -25h-15
q-44 0 -44 25z" />
    <glyph glyph-name="Ograve" unicode="&#xd2;" horiz-adv-x="599" 
d="M267 779l-32 42q-34 45 -42 56.5t-8 18.5q0 8 11 11t35 3q50 0 63 -27q24 -50 37 -77.5t13 -34.5t-5 -9.5t-18 -2.5q-41 0 -54 20zM110.5 81.5q-64.5 88.5 -64.5 269.5q0 356 253 356q254 0 254 -356q0 -358 -254 -358q-124 0 -188.5 88.5zM406.5 149q35.5 64 35.5 202
t-35.5 200.5t-106.5 62.5q-72 0 -107 -62t-35 -201q0 -138 35.5 -202t106.5 -64t106.5 64z" />
    <glyph glyph-name="Oacute" unicode="&#xd3;" horiz-adv-x="599" 
d="M271.5 761.5q-5.5 2.5 -5.5 9.5q0 6 8 23.5t23 47.5l20 41q14 27 63 27q24 0 34.5 -3t10.5 -11q0 -6 -8.5 -19t-28.5 -39q-7 -9 -17.5 -23t-26.5 -36q-7 -10 -19.5 -15t-34.5 -5q-13 0 -18.5 2.5zM110.5 81.5q-64.5 88.5 -64.5 269.5q0 356 253 356q254 0 254 -356
q0 -358 -254 -358q-124 0 -188.5 88.5zM406.5 149q35.5 64 35.5 202t-35.5 200.5t-106.5 62.5q-72 0 -107 -62t-35 -201q0 -138 35.5 -202t106.5 -64t106.5 64z" />
    <glyph glyph-name="Ocircumflex" unicode="&#xd4;" horiz-adv-x="599" 
d="M191 755.5q-5 3.5 -5 8.5q0 4 7 18l54 92q14 21 47 21h11q32 0 46 -21l55 -92q7 -10 7 -17q0 -13 -20 -13h-22q-23 0 -32 15l-40 65l-39 -65q-10 -15 -33 -15h-21q-10 0 -15 3.5zM110.5 81.5q-64.5 88.5 -64.5 269.5q0 356 253 356q254 0 254 -356q0 -358 -254 -358
q-124 0 -188.5 88.5zM406.5 149q35.5 64 35.5 202t-35.5 200.5t-106.5 62.5q-72 0 -107 -62t-35 -201q0 -138 35.5 -202t106.5 -64t106.5 64z" />
    <glyph glyph-name="Otilde" unicode="&#xd5;" horiz-adv-x="599" 
d="M163 769q-14 5 -14 16q0 7 3 14q26 69 85 69q23 0 69 -20q4 -2 23 -9.5t32 -7.5q10 0 17.5 5t16.5 18q10 16 22 16q4 0 12 -3l8 -3q8 -3 11.5 -6.5t3.5 -9.5q0 -4 -4 -14q-27 -69 -85 -69q-15 0 -30.5 5t-39.5 15q-15 7 -30 12t-26 5q-9 0 -16 -5t-16 -19
q-10 -14 -21 -14q-3 0 -11 2zM110.5 81.5q-64.5 88.5 -64.5 269.5q0 356 253 356q254 0 254 -356q0 -358 -254 -358q-124 0 -188.5 88.5zM406.5 149q35.5 64 35.5 202t-35.5 200.5t-106.5 62.5q-72 0 -107 -62t-35 -201q0 -138 35.5 -202t106.5 -64t106.5 64z" />
    <glyph glyph-name="Odieresis" unicode="&#xd6;" horiz-adv-x="599" 
d="M189 801v53q0 25 44 25t44 -25v-53q0 -25 -45 -25q-43 0 -43 25zM325 801v53q0 25 45 25q43 0 43 -25v-53q0 -25 -44 -25t-44 25zM110.5 81.5q-64.5 88.5 -64.5 269.5q0 356 253 356q254 0 254 -356q0 -358 -254 -358q-124 0 -188.5 88.5zM406.5 149q35.5 64 35.5 202
t-35.5 200.5t-106.5 62.5q-72 0 -107 -62t-35 -201q0 -138 35.5 -202t106.5 -64t106.5 64z" />
    <glyph glyph-name="multiply" unicode="&#xd7;" horiz-adv-x="448" 
d="M396 67q10 -13 10 -21q0 -7 -11 -16l-19 -16q-12 -10 -20 -10q-10 0 -16 9l-120 164l-123 -166q-8 -8 -14 -8q-4 0 -10 4t-12 9l-15 13q-12 11 -12 20q0 8 9 18l123 164l-123 164q-9 11 -9 19q0 10 12 20l15 13q14 12 22 12q7 0 14 -8l123 -165l120 163q7 10 16 10
t20 -11l19 -15q11 -9 11 -17t-10 -21l-122 -163z" />
    <glyph glyph-name="Oslash" unicode="&#xd8;" horiz-adv-x="599" 
d="M553 351q0 -358 -254 -358q-101 0 -163 59l-36 -58q-6 -13 -17 -13q-9 0 -20 8t-11 17t5 15l46 73q-57 89 -57 257q0 356 253 356q96 0 156 -51l33 52q8 12 17 12q10 0 21 -8t11 -17q0 -6 -5 -14l-41 -65q62 -89 62 -265zM172 205l226 360q-33 49 -98 49q-72 0 -107 -62
t-35 -201q0 -87 14 -146zM406.5 149q35.5 64 35.5 202q0 98 -18 158l-229 -364q35 -60 105 -60q71 0 106.5 64z" />
    <glyph glyph-name="Ugrave" unicode="&#xd9;" horiz-adv-x="583" 
d="M259 779l-32 42q-34 45 -42 56.5t-8 18.5q0 8 11 11t35 3q50 0 63 -27q24 -50 37 -77.5t13 -34.5t-5 -9.5t-18 -2.5q-41 0 -54 20zM123 47q-60 54 -60 151v479q0 25 44 25h21q44 0 44 -25v-478q0 -50 33.5 -82t86.5 -32t86 32t33 82v478q0 25 44 25h21q44 0 44 -25v-479
q0 -97 -60 -151t-168 -54q-109 0 -169 54z" />
    <glyph glyph-name="Uacute" unicode="&#xda;" horiz-adv-x="583" 
d="M263.5 761.5q-5.5 2.5 -5.5 9.5q0 6 8 23.5t23 47.5l20 41q14 27 63 27q24 0 34.5 -3t10.5 -11q0 -6 -8.5 -19t-28.5 -39q-7 -9 -17.5 -23t-26.5 -36q-7 -10 -19.5 -15t-34.5 -5q-13 0 -18.5 2.5zM123 47q-60 54 -60 151v479q0 25 44 25h21q44 0 44 -25v-478
q0 -50 33.5 -82t86.5 -32t86 32t33 82v478q0 25 44 25h21q44 0 44 -25v-479q0 -97 -60 -151t-168 -54q-109 0 -169 54z" />
    <glyph glyph-name="Ucircumflex" unicode="&#xdb;" horiz-adv-x="583" 
d="M183 755.5q-5 3.5 -5 8.5q0 4 7 18l54 92q14 21 47 21h11q32 0 46 -21l55 -92q7 -10 7 -17q0 -13 -20 -13h-22q-23 0 -32 15l-40 65l-39 -65q-10 -15 -33 -15h-21q-10 0 -15 3.5zM123 47q-60 54 -60 151v479q0 25 44 25h21q44 0 44 -25v-478q0 -50 33.5 -82t86.5 -32
t86 32t33 82v478q0 25 44 25h21q44 0 44 -25v-479q0 -97 -60 -151t-168 -54q-109 0 -169 54z" />
    <glyph glyph-name="Udieresis" unicode="&#xdc;" horiz-adv-x="583" 
d="M181 801v53q0 25 44 25t44 -25v-53q0 -25 -45 -25q-43 0 -43 25zM317 801v53q0 25 45 25q43 0 43 -25v-53q0 -25 -44 -25t-44 25zM123 47q-60 54 -60 151v479q0 25 44 25h21q44 0 44 -25v-478q0 -50 33.5 -82t86.5 -32t86 32t33 82v478q0 25 44 25h21q44 0 44 -25v-479
q0 -97 -60 -151t-168 -54q-109 0 -169 54z" />
    <glyph glyph-name="Yacute" unicode="&#xdd;" horiz-adv-x="484" 
d="M187 23v290l-165 351q-7 14 -7 20q0 18 47 18h27q18 0 29 -3.5t15 -12.5l112 -272l113 273q3 9 14 12t30 3h22q45 -1 45 -18q0 -8 -6 -20l-166 -354v-287q0 -25 -44 -25h-21q-45 0 -45 25zM213.5 761.5q-5.5 2.5 -5.5 9.5q0 6 8 23.5t23 47.5l20 41q14 27 63 27
q24 0 34.5 -3t10.5 -11q0 -6 -8.5 -19t-28.5 -39q-7 -9 -17.5 -23t-26.5 -36q-7 -10 -19.5 -15t-34.5 -5q-13 0 -18.5 2.5z" />
    <glyph glyph-name="Thorn" unicode="&#xde;" 
d="M68 23v654q0 25 44 25h21q44 0 44 -25v-95h89q74 0 130.5 -42.5t56.5 -159.5q0 -84 -32.5 -131t-73.5 -63t-73 -16h-97v-147q0 -25 -44 -25h-21q-44 0 -44 25zM266 261q30 0 54 26.5t24 92.5q0 62 -24.5 86.5t-59.5 24.5h-83v-230h89z" />
    <glyph glyph-name="germandbls" unicode="&#xdf;" horiz-adv-x="480" 
d="M70 23v500q0 83 47 133.5t131 50.5q77 0 126 -41.5t49 -129.5q0 -52 -22.5 -92.5t-60.5 -59.5v-3q51 -17 76.5 -62.5t25.5 -114.5q0 -97 -49 -150.5t-132 -53.5h-21q-12 0 -17 8.5t-5 27.5v13q0 19 5 27.5t17 8.5h17q36 0 58 31.5t22 88.5q0 59 -23 91t-62 32h-12
q-12 0 -17 8.5t-5 27.5v14q0 35 20 35h5q31 0 52 30.5t21 80.5q0 95 -70 95q-34 0 -53 -23.5t-19 -67.5v-505q0 -25 -43 -25h-16q-45 0 -45 25z" />
    <glyph glyph-name="agrave" unicode="&#xe0;" horiz-adv-x="481" 
d="M208 602l-32 42q-34 45 -42 56.5t-8 18.5q0 8 11 11t35 3q50 0 63 -27q24 -50 37 -77.5t13 -34.5t-5 -9.5t-18 -2.5q-41 0 -54 20zM85.5 34q-38.5 41 -38.5 115q0 97 70 140t189 44v38q0 33 -19 53.5t-61 20.5q-31 0 -54.5 -7.5t-42.5 -17t-23 -9.5q-11 0 -25.5 23
t-14.5 35q0 14 23.5 28t61.5 23.5t79 9.5q87 0 132.5 -42t45.5 -116v-216q0 -67 6 -97t6 -34q0 -14 -24.5 -20t-45.5 -6q-15 0 -22 13.5t-14 43.5q-49 -63 -123 -63q-67 0 -105.5 41zM306 131v125q-73 -1 -115.5 -22.5t-42.5 -80.5q0 -72 68 -72q56 0 90 50z" />
    <glyph glyph-name="aacute" unicode="&#xe1;" horiz-adv-x="481" 
d="M212.5 584.5q-5.5 2.5 -5.5 9.5q0 6 8 23.5t23 47.5l20 41q14 27 63 27q24 0 34.5 -3t10.5 -11q0 -6 -8.5 -19t-28.5 -39q-7 -9 -17.5 -23t-26.5 -36q-7 -10 -19.5 -15t-34.5 -5q-13 0 -18.5 2.5zM85.5 34q-38.5 41 -38.5 115q0 97 70 140t189 44v38q0 33 -19 53.5
t-61 20.5q-31 0 -54.5 -7.5t-42.5 -17t-23 -9.5q-11 0 -25.5 23t-14.5 35q0 14 23.5 28t61.5 23.5t79 9.5q87 0 132.5 -42t45.5 -116v-216q0 -67 6 -97t6 -34q0 -14 -24.5 -20t-45.5 -6q-15 0 -22 13.5t-14 43.5q-49 -63 -123 -63q-67 0 -105.5 41zM306 131v125
q-73 -1 -115.5 -22.5t-42.5 -80.5q0 -72 68 -72q56 0 90 50z" />
    <glyph glyph-name="acircumflex" unicode="&#xe2;" horiz-adv-x="481" 
d="M132 578.5q-5 3.5 -5 8.5q0 4 7 18l54 92q14 21 47 21h11q32 0 46 -21l55 -92q7 -10 7 -17q0 -13 -20 -13h-22q-23 0 -32 15l-40 65l-39 -65q-10 -15 -33 -15h-21q-10 0 -15 3.5zM85.5 34q-38.5 41 -38.5 115q0 97 70 140t189 44v38q0 33 -19 53.5t-61 20.5
q-31 0 -54.5 -7.5t-42.5 -17t-23 -9.5q-11 0 -25.5 23t-14.5 35q0 14 23.5 28t61.5 23.5t79 9.5q87 0 132.5 -42t45.5 -116v-216q0 -67 6 -97t6 -34q0 -14 -24.5 -20t-45.5 -6q-15 0 -22 13.5t-14 43.5q-49 -63 -123 -63q-67 0 -105.5 41zM306 131v125q-73 -1 -115.5 -22.5
t-42.5 -80.5q0 -72 68 -72q56 0 90 50z" />
    <glyph glyph-name="atilde" unicode="&#xe3;" horiz-adv-x="481" 
d="M104 592q-14 5 -14 16q0 7 3 14q26 69 85 69q23 0 69 -20q4 -2 23 -9.5t32 -7.5q10 0 17.5 5t16.5 18q10 16 22 16q5 0 12 -3l8 -3q8 -3 11.5 -6.5t3.5 -9.5q0 -4 -4 -14q-27 -69 -85 -69q-15 0 -30.5 5t-39.5 15q-15 7 -30 12t-26 5q-9 0 -16 -5t-16 -19
q-10 -14 -21 -14q-3 0 -11 2zM85.5 34q-38.5 41 -38.5 115q0 97 70 140t189 44v38q0 33 -19 53.5t-61 20.5q-31 0 -54.5 -7.5t-42.5 -17t-23 -9.5q-11 0 -25.5 23t-14.5 35q0 14 23.5 28t61.5 23.5t79 9.5q87 0 132.5 -42t45.5 -116v-216q0 -67 6 -97t6 -34q0 -14 -24.5 -20
t-45.5 -6q-15 0 -22 13.5t-14 43.5q-49 -63 -123 -63q-67 0 -105.5 41zM306 131v125q-73 -1 -115.5 -22.5t-42.5 -80.5q0 -72 68 -72q56 0 90 50z" />
    <glyph glyph-name="adieresis" unicode="&#xe4;" horiz-adv-x="481" 
d="M130 624v53q0 25 44 25t44 -25v-53q0 -25 -45 -25q-43 0 -43 25zM266 624v53q0 25 45 25q43 0 43 -25v-53q0 -25 -44 -25t-44 25zM85.5 34q-38.5 41 -38.5 115q0 97 70 140t189 44v38q0 33 -19 53.5t-61 20.5q-31 0 -54.5 -7.5t-42.5 -17t-23 -9.5q-11 0 -25.5 23
t-14.5 35q0 14 23.5 28t61.5 23.5t79 9.5q87 0 132.5 -42t45.5 -116v-216q0 -67 6 -97t6 -34q0 -14 -24.5 -20t-45.5 -6q-15 0 -22 13.5t-14 43.5q-49 -63 -123 -63q-67 0 -105.5 41zM306 131v125q-73 -1 -115.5 -22.5t-42.5 -80.5q0 -72 68 -72q56 0 90 50z" />
    <glyph glyph-name="aring" unicode="&#xe5;" horiz-adv-x="481" 
d="M176 584.5q-24 24.5 -24 63.5q0 40 24 65t63 25q40 0 64 -25t24 -65q0 -39 -24 -63.5t-64 -24.5q-39 0 -63 24.5zM271.5 614.5q11.5 11.5 11.5 33.5t-11.5 34t-32.5 12t-32 -12t-12 -34q2 -45 44 -45q21 0 32.5 11.5zM85.5 34q-38.5 41 -38.5 115q0 97 70 140t189 44v38
q0 33 -19 53.5t-61 20.5q-31 0 -54.5 -7.5t-42.5 -17t-23 -9.5q-11 0 -25.5 23t-14.5 35q0 14 23.5 28t61.5 23.5t79 9.5q87 0 132.5 -42t45.5 -116v-216q0 -67 6 -97t6 -34q0 -14 -24.5 -20t-45.5 -6q-15 0 -22 13.5t-14 43.5q-49 -63 -123 -63q-67 0 -105.5 41zM306 131
v125q-73 -1 -115.5 -22.5t-42.5 -80.5q0 -72 68 -72q56 0 90 50z" />
    <glyph glyph-name="ae" unicode="&#xe6;" horiz-adv-x="688" 
d="M87.5 34.5q-40.5 41.5 -40.5 115.5q0 89 63 132.5t174 45.5q4 39 16 69q-15 48 -74 48q-30 0 -52 -7t-47 -19q-16 -7 -19 -7q-11 0 -25 22.5t-14 34.5q0 14 23 28.5t60 23.5t78 9q40 0 73 -10.5t54 -30.5q47 41 121 41q178 0 178 -258q0 -11 -14.5 -28.5t-24.5 -17.5
h-228q3 -77 28 -112.5t76 -35.5q32 0 54.5 9t38 19.5t18.5 10.5q11 0 25.5 -22.5t14.5 -35.5q0 -15 -22 -30.5t-58 -25.5t-74 -10q-101 0 -152 59q-24 -27 -61 -43t-80 -16q-69 0 -109.5 41.5zM551 305q0 140 -75 140q-40 0 -62 -34t-26 -106h163zM299 124q-17 49 -19 124
q-129 -4 -129 -94q0 -34 15.5 -52.5t45.5 -18.5q54 0 87 41z" />
    <glyph glyph-name="ccedilla" unicode="&#xe7;" horiz-adv-x="408" 
d="M351.5 15q-38.5 -17 -81.5 -21l-14 -50q28 -2 49.5 -18t21.5 -52q0 -45 -27 -65t-71 -20q-35 0 -66.5 13.5t-31.5 32.5q0 11 8 21t15 10q6 0 24 -8q26 -13 44 -13q12 0 21.5 6.5t9.5 19.5t-7.5 19t-22.5 11q-12 5 -17 9t-5 11q0 6 5 23t16 50q-90 9 -134.5 74t-44.5 195
q0 143 54 205t155 62q49 0 90 -16t41 -37q0 -14 -13 -37t-22 -23q-5 0 -13 5q-19 10 -36.5 16.5t-40.5 6.5q-54 0 -80.5 -42t-26.5 -138q0 -99 25 -143t83 -44q26 0 44.5 6t35.5 16q5 2 8.5 5t5.5 3q12 0 24.5 -22t12.5 -36q0 -18 -38.5 -35z" />
    <glyph glyph-name="egrave" unicode="&#xe8;" horiz-adv-x="454" 
d="M198 602l-32 42q-34 45 -42 56.5t-8 18.5q0 8 11 11t35 3q50 0 63 -27q24 -50 37 -77.5t13 -34.5t-5 -9.5t-18 -2.5q-41 0 -54 20zM96 59q-53 66 -53 199q0 137 51.5 204.5t148.5 67.5q90 0 134.5 -67.5t44.5 -196.5q0 -10 -15 -28t-24 -18h-232q4 -75 29.5 -108.5
t77.5 -33.5q33 0 55 9t37.5 19.5t18.5 10.5q12 0 26 -23t14 -35q0 -15 -22.5 -30.5t-58 -25.5t-71.5 -10q-108 0 -161 66zM319 297q0 76 -19 113t-59 37q-43 0 -65 -36t-26 -114h169z" />
    <glyph glyph-name="eacute" unicode="&#xe9;" horiz-adv-x="454" 
d="M202.5 584.5q-5.5 2.5 -5.5 9.5q0 6 8 23.5t23 47.5l20 41q14 27 63 27q24 0 34.5 -3t10.5 -11q0 -6 -8.5 -19t-28.5 -39q-7 -9 -17.5 -23t-26.5 -36q-7 -10 -19.5 -15t-34.5 -5q-13 0 -18.5 2.5zM96 59q-53 66 -53 199q0 137 51.5 204.5t148.5 67.5q90 0 134.5 -67.5
t44.5 -196.5q0 -10 -15 -28t-24 -18h-232q4 -75 29.5 -108.5t77.5 -33.5q33 0 55 9t37.5 19.5t18.5 10.5q12 0 26 -23t14 -35q0 -15 -22.5 -30.5t-58 -25.5t-71.5 -10q-108 0 -161 66zM319 297q0 76 -19 113t-59 37q-43 0 -65 -36t-26 -114h169z" />
    <glyph glyph-name="ecircumflex" unicode="&#xea;" horiz-adv-x="454" 
d="M122 578.5q-5 3.5 -5 8.5q0 4 7 18l54 92q14 21 47 21h11q32 0 46 -21l55 -92q7 -10 7 -17q0 -13 -20 -13h-22q-23 0 -32 15l-40 65l-39 -65q-10 -15 -33 -15h-21q-10 0 -15 3.5zM96 59q-53 66 -53 199q0 137 51.5 204.5t148.5 67.5q90 0 134.5 -67.5t44.5 -196.5
q0 -10 -15 -28t-24 -18h-232q4 -75 29.5 -108.5t77.5 -33.5q33 0 55 9t37.5 19.5t18.5 10.5q12 0 26 -23t14 -35q0 -15 -22.5 -30.5t-58 -25.5t-71.5 -10q-108 0 -161 66zM319 297q0 76 -19 113t-59 37q-43 0 -65 -36t-26 -114h169z" />
    <glyph glyph-name="edieresis" unicode="&#xeb;" horiz-adv-x="454" 
d="M120 624v53q0 25 44 25t44 -25v-53q0 -25 -45 -25q-43 0 -43 25zM256 624v53q0 25 45 25q43 0 43 -25v-53q0 -25 -44 -25t-44 25zM96 59q-53 66 -53 199q0 137 51.5 204.5t148.5 67.5q90 0 134.5 -67.5t44.5 -196.5q0 -10 -15 -28t-24 -18h-232q4 -75 29.5 -108.5
t77.5 -33.5q33 0 55 9t37.5 19.5t18.5 10.5q12 0 26 -23t14 -35q0 -15 -22.5 -30.5t-58 -25.5t-71.5 -10q-108 0 -161 66zM319 297q0 76 -19 113t-59 37q-43 0 -65 -36t-26 -114h169z" />
    <glyph glyph-name="igrave" unicode="&#xec;" horiz-adv-x="254" 
d="M94 602l-32 42q-34 45 -42 56.5t-8 18.5q0 8 11 11t35 3q50 0 63 -27q24 -50 37 -77.5t13 -34.5t-5 -9.5t-18 -2.5q-41 0 -54 20zM76 23v477q0 25 46 25h10q46 0 46 -25v-477q0 -25 -46 -25h-10q-46 0 -46 25z" />
    <glyph glyph-name="iacute" unicode="&#xed;" horiz-adv-x="254" 
d="M76 23v477q0 25 46 25h10q46 0 46 -25v-477q0 -25 -46 -25h-10q-46 0 -46 25zM98.5 584.5q-5.5 2.5 -5.5 9.5q0 6 8 23.5t23 47.5l20 41q14 27 63 27q24 0 34.5 -3t10.5 -11q0 -6 -8.5 -19t-28.5 -39q-7 -9 -17.5 -23t-26.5 -36q-7 -10 -19.5 -15t-34.5 -5
q-13 0 -18.5 2.5z" />
    <glyph glyph-name="icircumflex" unicode="&#xee;" horiz-adv-x="254" 
d="M18 578.5q-5 3.5 -5 8.5q0 4 7 18l54 92q14 21 47 21h11q32 0 46 -21l55 -92q7 -10 7 -17q0 -13 -20 -13h-22q-23 0 -32 15l-40 65l-39 -65q-11 -15 -33 -15h-21q-10 0 -15 3.5zM76 23v477q0 25 46 25h10q46 0 46 -25v-477q0 -25 -46 -25h-10q-46 0 -46 25z" />
    <glyph glyph-name="idieresis" unicode="&#xef;" horiz-adv-x="254" 
d="M16 624v53q0 25 44 25t44 -25v-53q0 -25 -45 -25q-43 0 -43 25zM152 624v53q0 25 45 25q43 0 43 -25v-53q0 -25 -44 -25t-44 25zM76 23v477q0 25 46 25h10q46 0 46 -25v-477q0 -25 -46 -25h-10q-46 0 -46 25z" />
    <glyph glyph-name="eth" unicode="&#xf0;" horiz-adv-x="477" 
d="M434 261q0 -131 -49.5 -199.5t-145.5 -68.5t-146 68.5t-50 198.5q0 129 50.5 197.5t145.5 68.5q23 0 42 -4q-15 36 -40 80l-79 -11q-12 0 -21 11.5t-9 23.5q0 11 17 14l64 9q-11 15 -20.5 28.5t-9.5 19.5q0 11 17 14q33 3 37 3q17 0 30 -11q10 -11 35 -43q64 11 75 11
q12 0 20 -13t8 -22q0 -13 -17 -14l-56 -7q102 -176 102 -354zM306.5 122q21.5 44 21.5 139q0 94 -21.5 137t-68.5 43t-68 -43t-21 -137q0 -95 21.5 -139t67.5 -44q47 0 68.5 44z" />
    <glyph glyph-name="ntilde" unicode="&#xf1;" 
d="M106 592q-14 5 -14 16q0 7 3 14q26 69 85 69q23 0 69 -20q4 -2 23 -9.5t32 -7.5q10 0 17.5 5t16.5 18q10 16 22 16q4 0 12 -3l8 -3q8 -3 11.5 -6.5t3.5 -9.5q0 -4 -4 -14q-27 -69 -85 -69q-15 0 -30.5 5t-39.5 15q-15 7 -30 12t-26 5q-9 0 -16 -5t-16 -19
q-10 -14 -21 -14q-3 0 -11 2zM70 23v343q0 66 -5 96t-5 34q0 13 27.5 19.5t46.5 6.5q16 0 21.5 -12.5t8.5 -30t4 -25.5q23 35 56 55.5t72 20.5q60 0 92 -40t32 -112v-355q0 -25 -43 -25h-17q-45 0 -45 25v340q0 79 -61 79q-24 0 -45 -16t-35 -43v-360q0 -25 -43 -25h-18
q-43 0 -43 25z" />
    <glyph glyph-name="ograve" unicode="&#xf2;" horiz-adv-x="477" 
d="M206 602l-32 42q-34 45 -42 56.5t-8 18.5q0 8 11 11t35 3q50 0 63 -27q24 -50 37 -77.5t13 -34.5t-5 -9.5t-18 -2.5q-41 0 -54 20zM93 61.5q-50 68.5 -50 198.5t50.5 200t145.5 70q96 0 145.5 -69.5t49.5 -200.5q0 -130 -49.5 -198.5t-145.5 -68.5t-146 68.5zM306.5 122
q21.5 44 21.5 139q0 96 -21.5 140t-68.5 44q-46 0 -67 -44t-21 -140t21 -139.5t67 -43.5q47 0 68.5 44z" />
    <glyph glyph-name="oacute" unicode="&#xf3;" horiz-adv-x="477" 
d="M210.5 584.5q-5.5 2.5 -5.5 9.5q0 6 8 23.5t23 47.5l20 41q14 27 63 27q24 0 34.5 -3t10.5 -11q0 -6 -8.5 -19t-28.5 -39q-7 -9 -17.5 -23t-26.5 -36q-7 -10 -19.5 -15t-34.5 -5q-13 0 -18.5 2.5zM93 61.5q-50 68.5 -50 198.5t50.5 200t145.5 70q96 0 145.5 -69.5
t49.5 -200.5q0 -130 -49.5 -198.5t-145.5 -68.5t-146 68.5zM306.5 122q21.5 44 21.5 139q0 96 -21.5 140t-68.5 44q-46 0 -67 -44t-21 -140t21 -139.5t67 -43.5q47 0 68.5 44z" />
    <glyph glyph-name="ocircumflex" unicode="&#xf4;" horiz-adv-x="477" 
d="M130 578.5q-5 3.5 -5 8.5q0 4 7 18l54 92q14 21 47 21h11q32 0 46 -21l55 -92q7 -10 7 -17q0 -13 -20 -13h-22q-23 0 -32 15l-40 65l-39 -65q-10 -15 -33 -15h-21q-10 0 -15 3.5zM93 61.5q-50 68.5 -50 198.5t50.5 200t145.5 70q96 0 145.5 -69.5t49.5 -200.5
q0 -130 -49.5 -198.5t-145.5 -68.5t-146 68.5zM306.5 122q21.5 44 21.5 139q0 96 -21.5 140t-68.5 44q-46 0 -67 -44t-21 -140t21 -139.5t67 -43.5q47 0 68.5 44z" />
    <glyph glyph-name="otilde" unicode="&#xf5;" horiz-adv-x="477" 
d="M102 592q-14 5 -14 16q0 7 3 14q26 69 85 69q23 0 69 -20q4 -2 23 -9.5t32 -7.5q10 0 17.5 5t16.5 18q10 16 22 16q5 0 12 -3l8 -3q8 -3 11.5 -6.5t3.5 -9.5q0 -4 -4 -14q-27 -69 -85 -69q-15 0 -30.5 5t-39.5 15q-15 7 -30 12t-26 5q-9 0 -16 -5t-16 -19
q-10 -14 -21 -14q-3 0 -11 2zM93 61.5q-50 68.5 -50 198.5t50.5 200t145.5 70q96 0 145.5 -69.5t49.5 -200.5q0 -130 -49.5 -198.5t-145.5 -68.5t-146 68.5zM306.5 122q21.5 44 21.5 139q0 96 -21.5 140t-68.5 44q-46 0 -67 -44t-21 -140t21 -139.5t67 -43.5q47 0 68.5 44z
" />
    <glyph glyph-name="odieresis" unicode="&#xf6;" horiz-adv-x="477" 
d="M128 624v53q0 25 44 25t44 -25v-53q0 -25 -45 -25q-43 0 -43 25zM264 624v53q0 25 45 25q43 0 43 -25v-53q0 -25 -44 -25t-44 25zM93 61.5q-50 68.5 -50 198.5t50.5 200t145.5 70q96 0 145.5 -69.5t49.5 -200.5q0 -130 -49.5 -198.5t-145.5 -68.5t-146 68.5zM306.5 122
q21.5 44 21.5 139q0 96 -21.5 140t-68.5 44q-46 0 -67 -44t-21 -140t21 -139.5t67 -43.5q47 0 68.5 44z" />
    <glyph glyph-name="divide" unicode="&#xf7;" horiz-adv-x="448" 
d="M176 378v57q0 25 44 25h7q44 0 44 -25v-57q0 -24 -44 -24h-7q-44 0 -44 24zM27 226v7q0 35 24 35h347q13 0 18.5 -8.5t5.5 -26.5v-7q0 -36 -24 -36h-347q-24 0 -24 36zM176 23v57q0 25 44 25h7q44 0 44 -25v-57q0 -25 -44 -25h-7q-44 0 -44 25z" />
    <glyph glyph-name="oslash" unicode="&#xf8;" horiz-adv-x="477" 
d="M434 260q0 -130 -49.5 -198.5t-145.5 -68.5q-78 0 -126 45l-26 -38q-5 -9 -15 -9q-9 0 -21 9t-12 18q0 5 7 15l34 49q-37 65 -37 178q0 130 50.5 200t145.5 70q73 0 119 -41l25 36q8 9 16 9t20.5 -9t12.5 -17q0 -5 -6 -16l-32 -46q40 -69 40 -186zM154 190l149 218
q-22 37 -65 37q-46 0 -67 -44t-21 -140q0 -43 4 -71zM306.5 122q21.5 44 21.5 139q0 43 -5 81l-152 -220q21 -44 67 -44q47 0 68.5 44z" />
    <glyph glyph-name="ugrave" unicode="&#xf9;" 
d="M206 602l-32 42q-34 45 -42 56.5t-8 18.5q0 8 11 11t35 3q50 0 63 -27q24 -50 37 -77.5t13 -34.5t-5 -9.5t-18 -2.5q-41 0 -54 20zM95 29.5q-33 37.5 -33 106.5v363q0 25 43 25h17q44 0 44 -25v-345q0 -36 15.5 -55t45.5 -19q25 0 46 16t35 43v360q0 25 43 25h18
q43 0 43 -25v-343q0 -66 5 -96t5 -35q0 -13 -27 -19t-47 -6q-16 0 -21.5 12.5t-8.5 30t-4 25.5q-23 -35 -55.5 -55.5t-70.5 -20.5q-60 0 -93 37.5z" />
    <glyph glyph-name="uacute" unicode="&#xfa;" 
d="M210.5 584.5q-5.5 2.5 -5.5 9.5q0 6 8 23.5t23 47.5l20 41q14 27 63 27q24 0 34.5 -3t10.5 -11q0 -6 -8.5 -19t-28.5 -39q-7 -9 -17.5 -23t-26.5 -36q-7 -10 -19.5 -15t-34.5 -5q-13 0 -18.5 2.5zM95 29.5q-33 37.5 -33 106.5v363q0 25 43 25h17q44 0 44 -25v-345
q0 -36 15.5 -55t45.5 -19q25 0 46 16t35 43v360q0 25 43 25h18q43 0 43 -25v-343q0 -66 5 -96t5 -35q0 -13 -27 -19t-47 -6q-16 0 -21.5 12.5t-8.5 30t-4 25.5q-23 -35 -55.5 -55.5t-70.5 -20.5q-60 0 -93 37.5z" />
    <glyph glyph-name="ucircumflex" unicode="&#xfb;" 
d="M130 578.5q-5 3.5 -5 8.5q0 4 7 18l54 92q14 21 47 21h11q32 0 46 -21l55 -92q7 -10 7 -17q0 -13 -20 -13h-22q-23 0 -32 15l-40 65l-39 -65q-10 -15 -33 -15h-21q-10 0 -15 3.5zM95 29.5q-33 37.5 -33 106.5v363q0 25 43 25h17q44 0 44 -25v-345q0 -36 15.5 -55
t45.5 -19q25 0 46 16t35 43v360q0 25 43 25h18q43 0 43 -25v-343q0 -66 5 -96t5 -35q0 -13 -27 -19t-47 -6q-16 0 -21.5 12.5t-8.5 30t-4 25.5q-23 -35 -55.5 -55.5t-70.5 -20.5q-60 0 -93 37.5z" />
    <glyph glyph-name="udieresis" unicode="&#xfc;" 
d="M128 624v53q0 25 44 25t44 -25v-53q0 -25 -45 -25q-43 0 -43 25zM264 624v53q0 25 45 25q43 0 43 -25v-53q0 -25 -44 -25t-44 25zM95 29.5q-33 37.5 -33 106.5v363q0 25 43 25h17q44 0 44 -25v-345q0 -36 15.5 -55t45.5 -19q25 0 46 16t35 43v360q0 25 43 25h18
q43 0 43 -25v-343q0 -66 5 -96t5 -35q0 -13 -27 -19t-47 -6q-16 0 -21.5 12.5t-8.5 30t-4 25.5q-23 -35 -55.5 -55.5t-70.5 -20.5q-60 0 -93 37.5z" />
    <glyph glyph-name="yacute" unicode="&#xfd;" horiz-adv-x="402" 
d="M390 507q0 -4 -3 -18l-188 -675q-7 -21 -45 -21h-20q-39 0 -39 17q0 6 3 17l69 229q-16 2 -21 16l-127 415q-4 18 -4 19q0 19 42 19h23q36 0 40 -18l63 -251q5 -20 19 -90h5l8 38l10 52l63 252q4 17 42 17h17q43 0 43 -18zM174.5 584.5q-5.5 2.5 -5.5 9.5q0 6 8 23.5
t23 47.5l20 41q14 27 63 27q24 0 34.5 -3t10.5 -11q0 -6 -8.5 -19t-28.5 -39q-7 -9 -17.5 -23t-26.5 -36q-7 -10 -19.5 -15t-34.5 -5q-13 0 -18.5 2.5z" />
    <glyph glyph-name="thorn" unicode="&#xfe;" horiz-adv-x="483" 
d="M70 -183v911q0 25 46 25h12q46 0 46 -25v-261q21 31 49 47t60 16q46 0 81 -33.5t54.5 -95t19.5 -143.5q0 -125 -44.5 -195t-120.5 -70q-32 0 -55.5 12t-43.5 33v-221q0 -24 -44 -24h-16q-44 0 -44 24zM332 259q0 90 -19.5 137t-58.5 47q-22 0 -43 -16t-37 -45v-266
q30 -36 72 -36q86 0 86 179z" />
    <glyph glyph-name="ydieresis" unicode="&#xff;" horiz-adv-x="402" 
d="M92 624v53q0 25 44 25t44 -25v-53q0 -25 -45 -25q-43 0 -43 25zM228 624v53q0 25 45 25q43 0 43 -25v-53q0 -25 -44 -25t-44 25zM390 507q0 -4 -3 -18l-188 -675q-7 -21 -45 -21h-20q-39 0 -39 17q0 6 3 17l69 229q-16 2 -21 16l-127 415q-4 18 -4 19q0 19 42 19h23
q36 0 40 -18l63 -251q5 -20 19 -90h5l8 38l10 52l63 252q4 17 42 17h17q43 0 43 -18z" />
    <glyph glyph-name="Amacron" unicode="&#x100;" horiz-adv-x="505" 
d="M135 818v11q0 33 22 33h197q12 0 17 -8t5 -25v-11q0 -17 -5 -25t-17 -8h-197q-22 0 -22 33zM10 16q0 3 2 15l173 649q7 22 46 22h42q42 0 46 -22l173 -649q3 -9 3 -15q0 -18 -39 -18h-27q-37 0 -41 17l-38 152h-197l-37 -152q-4 -17 -40 -17h-26q-40 0 -40 18zM330 257
l-64 256q-4 16 -11 65h-5l-4 -24q-2 -17 -8 -41l-63 -256h155z" />
    <glyph glyph-name="amacron" unicode="&#x101;" horiz-adv-x="481" 
d="M123 641v11q0 33 22 33h197q12 0 17 -8t5 -25v-11q0 -17 -5 -25t-17 -8h-197q-22 0 -22 33zM85.5 34q-38.5 41 -38.5 115q0 97 70 140t189 44v38q0 33 -19 53.5t-61 20.5q-31 0 -54.5 -7.5t-42.5 -17t-23 -9.5q-11 0 -25.5 23t-14.5 35q0 14 23.5 28t61.5 23.5t79 9.5
q87 0 132.5 -42t45.5 -116v-216q0 -67 6 -97t6 -34q0 -14 -24.5 -20t-45.5 -6q-15 0 -22 13.5t-14 43.5q-49 -63 -123 -63q-67 0 -105.5 41zM306 131v125q-73 -1 -115.5 -22.5t-42.5 -80.5q0 -72 68 -72q56 0 90 50z" />
    <glyph glyph-name="Abreve" unicode="&#x102;" horiz-adv-x="505" 
d="M165.5 790q-33.5 31 -33.5 82q0 20 24 20q10 0 14 -4.5t10 -18.5q8 -18 25 -27.5t48 -9.5q58 0 73 38q5 13 9 17.5t14 4.5q24 0 24 -20q0 -51 -33.5 -82t-86.5 -31q-54 0 -87.5 31zM10 16q0 3 2 15l173 649q7 22 46 22h42q42 0 46 -22l173 -649q3 -9 3 -15q0 -18 -39 -18
h-27q-37 0 -41 17l-38 152h-197l-37 -152q-4 -17 -40 -17h-26q-40 0 -40 18zM330 257l-64 256q-4 16 -11 65h-5l-4 -24q-2 -17 -8 -41l-63 -256h155z" />
    <glyph glyph-name="abreve" unicode="&#x103;" horiz-adv-x="481" 
d="M153.5 613q-33.5 31 -33.5 82q0 20 24 20q10 0 14 -4.5t10 -18.5q8 -18 25 -27.5t48 -9.5q58 0 73 38q5 13 9 17.5t14 4.5q24 0 24 -20q0 -51 -33.5 -82t-86.5 -31q-54 0 -87.5 31zM85.5 34q-38.5 41 -38.5 115q0 97 70 140t189 44v38q0 33 -19 53.5t-61 20.5
q-31 0 -54.5 -7.5t-42.5 -17t-23 -9.5q-11 0 -25.5 23t-14.5 35q0 14 23.5 28t61.5 23.5t79 9.5q87 0 132.5 -42t45.5 -116v-216q0 -67 6 -97t6 -34q0 -14 -24.5 -20t-45.5 -6q-15 0 -22 13.5t-14 43.5q-49 -63 -123 -63q-67 0 -105.5 41zM306 131v125q-73 -1 -115.5 -22.5
t-42.5 -80.5q0 -72 68 -72q56 0 90 50z" />
    <glyph glyph-name="Aogonek" unicode="&#x104;" horiz-adv-x="505" 
d="M525 -127q0 -19 -14 -28q-27 -17 -64 -17q-55 0 -74 29t-19 61q0 22 7.5 49.5t25.5 52.5l-37 147h-197l-37 -152q-4 -17 -40 -17h-26q-40 0 -40 18q0 3 2 15l173 649q7 22 46 22h42q42 0 46 -22l173 -649q3 -9 3 -15q0 -18 -39 -18h-24q-15 -35 -15 -62q0 -25 14 -34
t35 -9q8 0 20.5 3t15.5 3q23 0 23 -26zM330 257l-64 256q-4 16 -11 65h-5l-4 -24q-2 -17 -8 -41l-63 -256h155z" />
    <glyph glyph-name="aogonek" unicode="&#x105;" horiz-adv-x="481" 
d="M504 -119q0 -19 -14 -28q-27 -17 -64 -17q-55 0 -74 29t-19 61q0 36 17 73q-15 0 -22 13.5t-14 43.5q-49 -63 -123 -63q-67 0 -105.5 41t-38.5 115q0 97 70 140t189 44v38q0 33 -19 53.5t-61 20.5q-31 0 -54.5 -7.5t-42.5 -17t-23 -9.5q-11 0 -25.5 23t-14.5 35
q0 14 23.5 28t61.5 23.5t79 9.5q87 0 132.5 -42t45.5 -116v-216q0 -67 6 -97t6 -34q0 -7 -5 -10q-19 -39 -19 -71q0 -25 14 -34t35 -9q8 0 20.5 3t15.5 3q23 0 23 -26zM306 256q-73 -1 -115.5 -22.5t-42.5 -80.5q0 -72 68 -72q56 0 90 50v125z" />
    <glyph glyph-name="Cacute" unicode="&#x106;" horiz-adv-x="459" 
d="M109.5 80q-63.5 87 -63.5 271q0 180 65 268t199 88q26 0 52 -5t45 -12q12 -4 16.5 -12t4.5 -21q-1 -24 -10.5 -47.5t-25.5 -15.5q-38 18 -80 18q-79 0 -116.5 -63.5t-37.5 -197.5t37.5 -198.5t116.5 -64.5q46 0 86 21q6 2 9 2q15 0 23.5 -20t8.5 -43q0 -24 -26 -35
q-18 -8 -46 -14t-59 -6q-135 0 -198.5 87zM268.5 761.5q-5.5 2.5 -5.5 9.5q0 6 8 23.5t23 47.5l20 41q14 27 63 27q24 0 34.5 -3t10.5 -11q0 -6 -8.5 -19t-28.5 -39q-7 -9 -17.5 -23t-26.5 -36q-7 -10 -19.5 -15t-34.5 -5q-13 0 -18.5 2.5z" />
    <glyph glyph-name="cacute" unicode="&#x107;" horiz-adv-x="408" 
d="M206.5 584.5q-5.5 2.5 -5.5 9.5q0 6 8 23.5t23 47.5l20 41q14 27 63 27q24 0 34.5 -3t10.5 -11q0 -6 -8.5 -19t-28.5 -39q-7 -9 -17.5 -23t-26.5 -36q-7 -10 -19.5 -15t-34.5 -5q-13 0 -18.5 2.5zM95 57.5q-52 64.5 -52 205.5q0 143 54 205t155 62q49 0 90 -16t41 -37
q0 -14 -13 -37t-22 -23q-5 0 -13 5q-19 10 -36.5 16.5t-40.5 6.5q-54 0 -80.5 -42t-26.5 -138q0 -99 25 -143t83 -44q26 0 44.5 6t35.5 16q5 2 8.5 5t5.5 3q12 0 24.5 -22t12.5 -36t-22.5 -27t-55 -21.5t-59.5 -8.5q-106 0 -158 64.5z" />
    <glyph glyph-name="Ccircumflex" unicode="&#x108;" horiz-adv-x="459" 
d="M109.5 80q-63.5 87 -63.5 271q0 180 65 268t199 88q26 0 52 -5t45 -12q12 -4 16.5 -12t4.5 -21q-1 -24 -10.5 -47.5t-25.5 -15.5q-38 18 -80 18q-79 0 -116.5 -63.5t-37.5 -197.5t37.5 -198.5t116.5 -64.5q46 0 86 21q6 2 9 2q15 0 23.5 -20t8.5 -43q0 -24 -26 -35
q-18 -8 -46 -14t-59 -6q-135 0 -198.5 87zM188 755.5q-5 3.5 -5 8.5q0 4 7 18l54 92q14 21 47 21h11q32 0 46 -21l55 -92q7 -10 7 -17q0 -13 -20 -13h-22q-23 0 -32 15l-40 65l-39 -65q-10 -15 -33 -15h-21q-10 0 -15 3.5z" />
    <glyph glyph-name="ccircumflex" unicode="&#x109;" horiz-adv-x="408" 
d="M126 578.5q-5 3.5 -5 8.5q0 4 7 18l54 92q14 21 47 21h11q32 0 46 -21l55 -92q7 -10 7 -17q0 -13 -20 -13h-22q-23 0 -32 15l-40 65l-39 -65q-11 -15 -33 -15h-21q-10 0 -15 3.5zM95 57.5q-52 64.5 -52 205.5q0 143 54 205t155 62q49 0 90 -16t41 -37q0 -14 -13 -37
t-22 -23q-5 0 -13 5q-19 10 -36.5 16.5t-40.5 6.5q-54 0 -80.5 -42t-26.5 -138q0 -99 25 -143t83 -44q26 0 44.5 6t35.5 16q5 2 8.5 5t5.5 3q12 0 24.5 -22t12.5 -36t-22.5 -27t-55 -21.5t-59.5 -8.5q-106 0 -158 64.5z" />
    <glyph glyph-name="Cdotaccent" unicode="&#x10a;" horiz-adv-x="459" 
d="M109.5 80q-63.5 87 -63.5 271q0 180 65 268t199 88q26 0 52 -5t45 -12q12 -4 16.5 -12t4.5 -21q-1 -24 -10.5 -47.5t-25.5 -15.5q-38 18 -80 18q-79 0 -116.5 -63.5t-37.5 -197.5t37.5 -198.5t116.5 -64.5q46 0 86 21q6 2 9 2q15 0 23.5 -20t8.5 -43q0 -24 -26 -35
q-18 -8 -46 -14t-59 -6q-135 0 -198.5 87zM246 801v53q0 25 52 25t52 -25v-53q0 -25 -52 -25t-52 25z" />
    <glyph glyph-name="cdotaccent" unicode="&#x10b;" horiz-adv-x="408" 
d="M184 624v53q0 25 52 25t52 -25v-53q0 -25 -52 -25t-52 25zM95 57.5q-52 64.5 -52 205.5q0 143 54 205t155 62q49 0 90 -16t41 -37q0 -14 -13 -37t-22 -23q-5 0 -13 5q-19 10 -36.5 16.5t-40.5 6.5q-54 0 -80.5 -42t-26.5 -138q0 -99 25 -143t83 -44q26 0 44.5 6t35.5 16
q5 2 8.5 5t5.5 3q12 0 24.5 -22t12.5 -36t-22.5 -27t-55 -21.5t-59.5 -8.5q-106 0 -158 64.5z" />
    <glyph glyph-name="Ccaron" unicode="&#x10c;" horiz-adv-x="459" 
d="M109.5 80q-63.5 87 -63.5 271q0 180 65 268t199 88q26 0 52 -5t45 -12q12 -4 16.5 -12t4.5 -21q-1 -24 -10.5 -47.5t-25.5 -15.5q-38 18 -80 18q-79 0 -116.5 -63.5t-37.5 -197.5t37.5 -198.5t116.5 -64.5q46 0 86 21q6 2 9 2q15 0 23.5 -20t8.5 -43q0 -24 -26 -35
q-18 -8 -46 -14t-59 -6q-135 0 -198.5 87zM245 778l-54 91q-7 14 -7 18q0 13 20 13h21q23 0 33 -16l39 -64l40 64q9 16 32 16h22q20 0 20 -14q0 -5 -7 -17l-55 -91q-7 -12 -18 -16.5t-27 -4.5h-13q-33 0 -46 21z" />
    <glyph glyph-name="ccaron" unicode="&#x10d;" horiz-adv-x="408" 
d="M183 601l-54 91q-7 14 -7 18q0 13 20 13h21q23 0 33 -16l39 -64l40 64q9 16 32 16h22q20 0 20 -14q0 -5 -7 -17l-55 -91q-7 -12 -18 -16.5t-27 -4.5h-13q-33 0 -46 21zM95 57.5q-52 64.5 -52 205.5q0 143 54 205t155 62q49 0 90 -16t41 -37q0 -14 -13 -37t-22 -23
q-5 0 -13 5q-19 10 -36.5 16.5t-40.5 6.5q-54 0 -80.5 -42t-26.5 -138q0 -99 25 -143t83 -44q26 0 44.5 6t35.5 16q5 2 8.5 5t5.5 3q12 0 24.5 -22t12.5 -36t-22.5 -27t-55 -21.5t-59.5 -8.5q-106 0 -158 64.5z" />
    <glyph glyph-name="Dcaron" unicode="&#x10e;" horiz-adv-x="577" 
d="M223 778l-54 91q-7 14 -7 18q0 13 20 13h21q23 0 33 -16l39 -64l40 64q9 16 32 16h22q20 0 20 -14q0 -5 -7 -17l-55 -91q-7 -12 -18 -16.5t-27 -4.5h-13q-33 0 -46 21zM79 8q-7 8 -7 25v634q0 17 7 25t23 8h174q252 0 252 -350q0 -183 -65 -266.5t-187 -83.5h-174
q-16 0 -23 8zM273 92q69 0 106 61t37 197q0 258 -143 258h-91v-516h91z" />
    <glyph glyph-name="dcaron" unicode="&#x10f;" horiz-adv-x="481" 
d="M117 26.5q-35 33.5 -54 94.5t-19 143q0 126 44.5 196t120.5 70q58 0 99 -45v243q0 25 44 25h16q44 0 44 -25v-572q0 -65 5.5 -95.5t5.5 -36.5q0 -12 -27 -18.5t-47 -6.5q-17 0 -23.5 16.5t-11.5 51.5q-21 -36 -50.5 -55t-64.5 -19q-47 0 -82 33.5zM271 96q21 16 37 45
v266q-30 36 -71 36q-44 0 -65.5 -44.5t-21.5 -134.5t19.5 -137t58.5 -47q22 0 43 16zM452.5 526q-10.5 4 -10.5 13q0 10 4 40q1 9 3.5 34t2.5 52q0 16 11 25.5t32 9.5h12q21 0 32 -9t11 -24q0 -39 -13 -72t-31 -53t-31 -20q-12 0 -22.5 4z" />
    <glyph glyph-name="Dcroat" unicode="&#x110;" horiz-adv-x="577" 
d="M528 350q0 -183 -65 -266.5t-187 -83.5h-174q-16 0 -23 8t-7 25v279h-41q-11 0 -16.5 8t-5.5 27v20q0 36 22 36h41v264q0 17 7 25t23 8h174q252 0 252 -350zM379 153q37 61 37 197q0 258 -143 258h-91v-205h63q12 0 17 -8.5t5 -27.5v-20q0 -19 -5 -27t-17 -8h-63v-220h91
q69 0 106 61z" />
    <glyph glyph-name="dcroat" unicode="&#x111;" horiz-adv-x="467" 
d="M472 663q6 -8 6 -25v-11q0 -17 -6 -25t-19 -8h-41v-438q0 -65 5.5 -95.5t5.5 -36.5q0 -12 -27 -18.5t-47 -6.5q-17 0 -23.5 16.5t-11.5 51.5q-21 -36 -50.5 -55t-64.5 -19q-47 0 -82 33.5t-54 94.5t-19 143q0 126 44.5 196t120.5 70q58 0 99 -45v109h-81q-25 0 -25 33v11
q0 33 25 33h81v57q0 25 44 25h16q44 0 44 -25v-57h41q13 0 19 -8zM308 407q-30 36 -71 36q-44 0 -65.5 -44.5t-21.5 -134.5t19.5 -137t58.5 -47q22 0 43 16t37 45v266z" />
    <glyph glyph-name="Emacron" unicode="&#x112;" horiz-adv-x="457" 
d="M128 818v11q0 33 22 33h197q12 0 17 -8t5 -25v-11q0 -17 -5 -25t-17 -8h-197q-22 0 -22 33zM79 8q-7 8 -7 25v634q0 17 7 25t23 8h290q22 0 22 -36v-20q0 -36 -22 -36h-211v-204h189q22 0 22 -36v-20q0 -36 -22 -36h-189v-220h211q12 0 17 -8.5t5 -27.5v-20
q0 -19 -5 -27.5t-17 -8.5h-290q-16 0 -23 8z" />
    <glyph glyph-name="emacron" unicode="&#x113;" horiz-adv-x="454" 
d="M113 641v11q0 33 22 33h197q12 0 17 -8t5 -25v-11q0 -17 -5 -25t-17 -8h-197q-22 0 -22 33zM96 59q-53 66 -53 199q0 137 51.5 204.5t148.5 67.5q90 0 134.5 -67.5t44.5 -196.5q0 -10 -15 -28t-24 -18h-232q4 -75 29.5 -108.5t77.5 -33.5q33 0 55 9t37.5 19.5t18.5 10.5
q12 0 26 -23t14 -35q0 -15 -22.5 -30.5t-58 -25.5t-71.5 -10q-108 0 -161 66zM319 297q0 76 -19 113t-59 37q-43 0 -65 -36t-26 -114h169z" />
    <glyph glyph-name="Ebreve" unicode="&#x114;" horiz-adv-x="457" 
d="M158.5 790q-33.5 31 -33.5 82q0 20 24 20q10 0 14 -4.5t10 -18.5q8 -18 25 -27.5t48 -9.5q58 0 73 38q5 13 9 17.5t14 4.5q24 0 24 -20q0 -51 -33.5 -82t-86.5 -31q-54 0 -87.5 31zM79 8q-7 8 -7 25v634q0 17 7 25t23 8h290q22 0 22 -36v-20q0 -36 -22 -36h-211v-204h189
q22 0 22 -36v-20q0 -36 -22 -36h-189v-220h211q12 0 17 -8.5t5 -27.5v-20q0 -19 -5 -27.5t-17 -8.5h-290q-16 0 -23 8z" />
    <glyph glyph-name="ebreve" unicode="&#x115;" horiz-adv-x="454" 
d="M143.5 613q-33.5 31 -33.5 82q0 20 24 20q10 0 14 -4.5t10 -18.5q8 -18 25 -27.5t48 -9.5q58 0 73 38q5 13 9 17.5t14 4.5q24 0 24 -20q0 -51 -33.5 -82t-86.5 -31q-54 0 -87.5 31zM96 59q-53 66 -53 199q0 137 51.5 204.5t148.5 67.5q90 0 134.5 -67.5t44.5 -196.5
q0 -10 -15 -28t-24 -18h-232q4 -75 29.5 -108.5t77.5 -33.5q33 0 55 9t37.5 19.5t18.5 10.5q12 0 26 -23t14 -35q0 -15 -22.5 -30.5t-58 -25.5t-71.5 -10q-108 0 -161 66zM319 297q0 76 -19 113t-59 37q-43 0 -65 -36t-26 -114h169z" />
    <glyph glyph-name="Edotaccent" unicode="&#x116;" horiz-adv-x="457" 
d="M195 801v53q0 25 52 25t52 -25v-53q0 -25 -52 -25t-52 25zM79 8q-7 8 -7 25v634q0 17 7 25t23 8h290q22 0 22 -36v-20q0 -36 -22 -36h-211v-204h189q22 0 22 -36v-20q0 -36 -22 -36h-189v-220h211q12 0 17 -8.5t5 -27.5v-20q0 -19 -5 -27.5t-17 -8.5h-290q-16 0 -23 8z
" />
    <glyph glyph-name="edotaccent" unicode="&#x117;" horiz-adv-x="454" 
d="M180 624v53q0 25 52 25t52 -25v-53q0 -25 -52 -25t-52 25zM96 59q-53 66 -53 199q0 137 51.5 204.5t148.5 67.5q90 0 134.5 -67.5t44.5 -196.5q0 -10 -15 -28t-24 -18h-232q4 -75 29.5 -108.5t77.5 -33.5q33 0 55 9t37.5 19.5t18.5 10.5q12 0 26 -23t14 -35
q0 -15 -22.5 -30.5t-58 -25.5t-71.5 -10q-108 0 -161 66zM319 297q0 76 -19 113t-59 37q-43 0 -65 -36t-26 -114h169z" />
    <glyph glyph-name="Eogonek" unicode="&#x118;" horiz-adv-x="457" 
d="M495 -132q0 -19 -14 -28q-27 -17 -64 -17q-55 0 -74 29t-19 61q0 43 24 87h-246q-16 0 -23 8t-7 25v634q0 17 7 25t23 8h290q22 0 22 -36v-20q0 -36 -22 -36h-211v-204h189q22 0 22 -36v-20q0 -36 -22 -36h-189v-220h211q12 0 17 -8.5t5 -27.5v-20q0 -18 -4 -26
q-11 -21 -17 -42t-6 -37q0 -25 14 -34t35 -9q8 0 20.5 3t15.5 3q23 0 23 -26z" />
    <glyph glyph-name="eogonek" unicode="&#x119;" horiz-adv-x="454" 
d="M449 -126q0 -19 -14 -28q-27 -17 -64 -17q-55 0 -74 29t-19 61q0 38 19 77q-19 -3 -40 -3q-108 0 -161 66t-53 199q0 137 51.5 204.5t148.5 67.5q90 0 134.5 -67.5t44.5 -196.5q0 -10 -15 -28t-24 -18h-232q4 -75 29.5 -108.5t77.5 -33.5q33 0 55 9t37.5 19.5t18.5 10.5
q12 0 26 -23t14 -35q0 -11 -12 -22.5t-33 -20.5q-11 -21 -17 -42t-6 -37q0 -25 14 -34t35 -9q8 0 20.5 3t15.5 3q23 0 23 -26zM176 411q-22 -36 -26 -114h169q0 76 -19 113t-59 37q-43 0 -65 -36z" />
    <glyph glyph-name="Ecaron" unicode="&#x11a;" horiz-adv-x="457" 
d="M194 778l-54 91q-7 14 -7 18q0 13 20 13h21q23 0 33 -16l39 -64l40 64q9 16 32 16h22q20 0 20 -14q0 -5 -7 -17l-55 -91q-7 -12 -18 -16.5t-27 -4.5h-13q-33 0 -46 21zM79 8q-7 8 -7 25v634q0 17 7 25t23 8h290q22 0 22 -36v-20q0 -36 -22 -36h-211v-204h189q22 0 22 -36
v-20q0 -36 -22 -36h-189v-220h211q12 0 17 -8.5t5 -27.5v-20q0 -19 -5 -27.5t-17 -8.5h-290q-16 0 -23 8z" />
    <glyph glyph-name="ecaron" unicode="&#x11b;" horiz-adv-x="454" 
d="M179 601l-54 91q-7 14 -7 18q0 13 20 13h21q23 0 33 -16l39 -64l40 64q9 16 32 16h22q20 0 20 -14q0 -5 -7 -17l-55 -91q-7 -12 -18 -16.5t-27 -4.5h-13q-33 0 -46 21zM96 59q-53 66 -53 199q0 137 51.5 204.5t148.5 67.5q90 0 134.5 -67.5t44.5 -196.5q0 -10 -15 -28
t-24 -18h-232q4 -75 29.5 -108.5t77.5 -33.5q33 0 55 9t37.5 19.5t18.5 10.5q12 0 26 -23t14 -35q0 -15 -22.5 -30.5t-58 -25.5t-71.5 -10q-108 0 -161 66zM319 297q0 76 -19 113t-59 37q-43 0 -65 -36t-26 -114h169z" />
    <glyph glyph-name="Gcircumflex" unicode="&#x11c;" horiz-adv-x="552" 
d="M185 755.5q-5 3.5 -5 8.5q0 4 7 18l54 92q14 21 47 21h11q32 0 46 -21l55 -92q7 -10 7 -17q0 -13 -20 -13h-22q-23 0 -32 15l-40 65l-39 -65q-10 -15 -33 -15h-21q-10 0 -15 3.5zM489 357v-289q0 -37 -57.5 -56t-127.5 -19q-129 0 -193.5 87t-64.5 266q0 183 66 272
t199 89q39 0 78 -10t63.5 -25.5t24.5 -29.5q0 -16 -15.5 -41.5t-27.5 -25.5q-3 0 -21 10t-42 18t-56 8q-83 0 -120 -65t-37 -194q0 -265 148 -265q41 0 76 10v201h-76q-22 0 -22 36v20q0 36 22 36h153q30 0 30 -33z" />
    <glyph glyph-name="gcircumflex" unicode="&#x11d;" horiz-adv-x="471" 
d="M121 578.5q-5 3.5 -5 8.5q0 4 7 18l54 92q14 21 47 21h11q32 0 46 -21l55 -92q7 -10 7 -17q0 -13 -20 -13h-22q-23 0 -32 15l-40 65l-39 -65q-10 -15 -33 -15h-21q-10 0 -15 3.5zM41 -85q0 42 20.5 73.5t57.5 49.5v3q-17 12 -26 31t-9 42q0 55 48 92q-36 21 -55 59.5
t-19 90.5q0 81 45 127.5t125 46.5q22 0 52 -7h144q12 0 17 -8t5 -26v-13q0 -17 -4.5 -24.5t-15.5 -7.5q-36 0 -49 2l-2 -2q21 -39 21 -89q0 -76 -42 -122t-115 -49q-33 -2 -51.5 -15.5t-18.5 -40.5q0 -28 23 -38t70 -17l28 -5q62 -11 96 -39t34 -88q0 -73 -51 -113t-147 -40
q-181 0 -181 127zM286.5 279q21.5 21 21.5 76q0 57 -21.5 78.5t-59.5 21.5t-59 -21.5t-21 -78.5q0 -56 21 -76.5t59 -20.5t59.5 21zM330 -68q0 33 -24 45t-74 19q-38 6 -56 11q-47 -26 -47 -74q0 -68 101 -68q100 0 100 67z" />
    <glyph glyph-name="Gbreve" unicode="&#x11e;" horiz-adv-x="552" 
d="M206.5 790q-33.5 31 -33.5 82q0 20 24 20q10 0 14 -4.5t10 -18.5q8 -18 25 -27.5t48 -9.5q58 0 73 38q5 13 9 17.5t14 4.5q24 0 24 -20q0 -51 -33.5 -82t-86.5 -31q-54 0 -87.5 31zM489 357v-289q0 -37 -57.5 -56t-127.5 -19q-129 0 -193.5 87t-64.5 266q0 183 66 272
t199 89q39 0 78 -10t63.5 -25.5t24.5 -29.5q0 -16 -15.5 -41.5t-27.5 -25.5q-3 0 -21 10t-42 18t-56 8q-83 0 -120 -65t-37 -194q0 -265 148 -265q41 0 76 10v201h-76q-22 0 -22 36v20q0 36 22 36h153q30 0 30 -33z" />
    <glyph glyph-name="gbreve" unicode="&#x11f;" horiz-adv-x="471" 
d="M142.5 613q-33.5 31 -33.5 82q0 20 24 20q10 0 14 -4.5t10 -18.5q8 -18 25 -27.5t48 -9.5q58 0 73 38q5 13 9 17.5t14 4.5q24 0 24 -20q0 -51 -33.5 -82t-86.5 -31q-54 0 -87.5 31zM41 -85q0 42 20.5 73.5t57.5 49.5v3q-17 12 -26 31t-9 42q0 55 48 92q-36 21 -55 59.5
t-19 90.5q0 81 45 127.5t125 46.5q22 0 52 -7h144q12 0 17 -8t5 -26v-13q0 -17 -4.5 -24.5t-15.5 -7.5q-36 0 -49 2l-2 -2q21 -39 21 -89q0 -76 -42 -122t-115 -49q-33 -2 -51.5 -15.5t-18.5 -40.5q0 -28 23 -38t70 -17l28 -5q62 -11 96 -39t34 -88q0 -73 -51 -113t-147 -40
q-181 0 -181 127zM286.5 279q21.5 21 21.5 76q0 57 -21.5 78.5t-59.5 21.5t-59 -21.5t-21 -78.5q0 -56 21 -76.5t59 -20.5t59.5 21zM330 -68q0 33 -24 45t-74 19q-38 6 -56 11q-47 -26 -47 -74q0 -68 101 -68q100 0 100 67z" />
    <glyph glyph-name="Gdotaccent" unicode="&#x120;" horiz-adv-x="552" 
d="M243 801v53q0 25 52 25t52 -25v-53q0 -25 -52 -25t-52 25zM489 357v-289q0 -37 -57.5 -56t-127.5 -19q-129 0 -193.5 87t-64.5 266q0 183 66 272t199 89q39 0 78 -10t63.5 -25.5t24.5 -29.5q0 -16 -15.5 -41.5t-27.5 -25.5q-3 0 -21 10t-42 18t-56 8q-83 0 -120 -65
t-37 -194q0 -265 148 -265q41 0 76 10v201h-76q-22 0 -22 36v20q0 36 22 36h153q30 0 30 -33z" />
    <glyph glyph-name="gdotaccent" unicode="&#x121;" horiz-adv-x="471" 
d="M179 624v53q0 25 52 25t52 -25v-53q0 -25 -52 -25t-52 25zM41 -85q0 42 20.5 73.5t57.5 49.5v3q-17 12 -26 31t-9 42q0 55 48 92q-36 21 -55 59.5t-19 90.5q0 81 45 127.5t125 46.5q22 0 52 -7h144q12 0 17 -8t5 -26v-13q0 -17 -4.5 -24.5t-15.5 -7.5q-36 0 -49 2l-2 -2
q21 -39 21 -89q0 -76 -42 -122t-115 -49q-33 -2 -51.5 -15.5t-18.5 -40.5q0 -28 23 -38t70 -17l28 -5q62 -11 96 -39t34 -88q0 -73 -51 -113t-147 -40q-181 0 -181 127zM286.5 279q21.5 21 21.5 76q0 57 -21.5 78.5t-59.5 21.5t-59 -21.5t-21 -78.5q0 -56 21 -76.5t59 -20.5
t59.5 21zM330 -68q0 33 -24 45t-74 19q-38 6 -56 11q-47 -26 -47 -74q0 -68 101 -68q100 0 100 67z" />
    <glyph glyph-name="Gcommaaccent" unicode="&#x122;" horiz-adv-x="552" 
d="M489 357v-289q0 -37 -57.5 -56t-127.5 -19q-129 0 -193.5 87t-64.5 266q0 183 66 272t199 89q39 0 78 -10t63.5 -25.5t24.5 -29.5q0 -16 -15.5 -41.5t-27.5 -25.5q-3 0 -21 10t-42 18t-56 8q-83 0 -120 -65t-37 -194q0 -265 148 -265q41 0 76 10v201h-76q-22 0 -22 36v20
q0 36 22 36h153q30 0 30 -33zM247 -232q-10 4 -10 13q0 5 6 27q18 49 18 106q0 35 43 35h13q19 0 28.5 -9t9.5 -24q0 -40 -15 -75t-35.5 -56t-34.5 -21q-13 0 -23 4z" />
    <glyph glyph-name="gcommaaccent" unicode="&#x123;" horiz-adv-x="437" 
d="M281 763q10 -4 10 -13q0 -5 -6 -27q-18 -49 -18 -106q0 -35 -43 -35h-13q-19 0 -28.5 9t-9.5 24q0 40 15 75t35.5 56t34.5 21q13 0 23 -4zM41 -85q0 42 20.5 73.5t57.5 49.5v3q-17 12 -26 31t-9 42q0 55 48 92q-36 21 -55 59.5t-19 90.5q0 81 45 127.5t125 46.5
q22 0 52 -7h144q12 0 17 -8t5 -26v-13q0 -17 -4.5 -24.5t-15.5 -7.5q-36 0 -49 2l-2 -2q21 -39 21 -89q0 -76 -42 -122t-115 -49q-33 -2 -51.5 -15.5t-18.5 -40.5q0 -28 23 -38t70 -17l28 -5q62 -11 96 -39t34 -88q0 -73 -51 -113t-147 -40q-181 0 -181 127zM286.5 279
q21.5 21 21.5 76q0 57 -21.5 78.5t-59.5 21.5t-59 -21.5t-21 -78.5q0 -56 21 -76.5t59 -20.5t59.5 21zM330 -68q0 33 -24 45t-74 19q-38 6 -56 11q-47 -26 -47 -74q0 -68 101 -68q100 0 100 67z" />
    <glyph glyph-name="Hcircumflex" unicode="&#x124;" horiz-adv-x="601" 
d="M191 755.5q-5 3.5 -5 8.5q0 4 7 18l54 92q14 21 47 21h11q32 0 46 -21l55 -92q7 -10 7 -17q0 -13 -20 -13h-22q-23 0 -32 15l-40 65l-39 -65q-10 -15 -33 -15h-21q-10 0 -15 3.5zM72 23v654q0 25 44 25h23q42 0 42 -25v-272h237v272q0 25 44 25h21q44 0 44 -25v-654
q0 -25 -44 -25h-21q-44 0 -44 25v289h-237v-289q0 -25 -42 -25h-23q-44 0 -44 25z" />
    <glyph glyph-name="hcircumflex" unicode="&#x125;" horiz-adv-x="485" 
d="M16 786.5q-5 3.5 -5 8.5q0 4 7 18l54 92q14 21 47 21h11q32 0 46 -21l55 -92q7 -10 7 -17q0 -13 -20 -13h-22q-23 0 -32 15l-40 65l-39 -65q-10 -15 -33 -15h-21q-10 0 -15 3.5zM72 23v705q0 25 44 25h18q43 0 43 -25v-266q22 31 53.5 49.5t69.5 18.5q54 0 88.5 -38
t34.5 -114v-355q0 -25 -43 -25h-17q-44 0 -44 25v340q0 79 -62 79q-29 0 -50.5 -19.5t-29.5 -39.5v-360q0 -25 -44 -25h-17q-44 0 -44 25z" />
    <glyph glyph-name="Hbar" unicode="&#x126;" horiz-adv-x="586" 
d="M552 556q5 -8 5 -25v-11q0 -17 -5 -25t-17 -8h-8v-464q0 -25 -44 -25h-21q-44 0 -44 25v289h-237v-289q0 -25 -42 -25h-23q-44 0 -44 25v464h-22q-22 0 -22 33v11q0 33 22 33h22v113q0 25 44 25h23q42 0 42 -25v-113h237v113q0 25 44 25h21q44 0 44 -25v-113h8
q12 0 17 -8zM418 487h-237v-82h237v82z" />
    <glyph glyph-name="hbar" unicode="&#x127;" horiz-adv-x="485" 
d="M388.5 492q34.5 -38 34.5 -114v-355q0 -25 -43 -25h-17q-44 0 -44 25v340q0 79 -62 79q-29 0 -50.5 -19.5t-29.5 -39.5v-360q0 -25 -44 -25h-17q-44 0 -44 25v571h-45q-25 0 -25 33v11q0 33 25 33h45v57q0 25 44 25h18q43 0 43 -25v-57h76q13 0 19 -8t6 -25v-11
q0 -17 -6 -25t-19 -8h-76v-132q22 31 53.5 49.5t69.5 18.5q54 0 88.5 -38z" />
    <glyph glyph-name="Itilde" unicode="&#x128;" horiz-adv-x="262" 
d="M-6 769q-14 5 -14 16q0 7 3 14q26 69 85 69q23 0 69 -20q4 -2 23 -9.5t32 -7.5q10 0 17.5 5t16.5 18q10 16 22 16q5 0 12 -3l8 -3q8 -3 11.5 -6.5t3.5 -9.5q0 -4 -4 -14q-27 -69 -85 -69q-15 0 -30.5 5t-39.5 15q-15 7 -30 12t-26 5q-9 0 -16 -5t-16 -19q-10 -14 -21 -14
q-3 0 -11 2zM76 23v654q0 25 44 25h23q43 0 43 -25v-654q0 -25 -43 -25h-23q-44 0 -44 25z" />
    <glyph glyph-name="itilde" unicode="&#x129;" horiz-adv-x="228" 
d="M-8 592q-12 5 -12 16q0 7 3 14q23 69 77 69q13 0 28 -5t35 -15q14 -7 27.5 -12t22.5 -5t16 5t15 18q9 16 20 16q5 0 11 -3l7 -3q7 -3 10 -6.5t3 -9.5t-3 -14q-26 -69 -77 -69q-12 0 -25 4.5t-24.5 9.5t-14.5 6q-14 7 -27.5 12t-22.5 5t-15.5 -5t-14.5 -19
q-10 -14 -19 -14q-2 0 -10 2zM76 23v477q0 25 46 25h10q46 0 46 -25v-477q0 -25 -46 -25h-10q-46 0 -46 25z" />
    <glyph glyph-name="Imacron" unicode="&#x12a;" horiz-adv-x="262" 
d="M13 818v11q0 33 22 33h197q12 0 17 -8t5 -25v-11q0 -17 -5 -25t-17 -8h-197q-22 0 -22 33zM76 23v654q0 25 44 25h23q43 0 43 -25v-654q0 -25 -43 -25h-23q-44 0 -44 25z" />
    <glyph glyph-name="imacron" unicode="&#x12b;" horiz-adv-x="254" 
d="M9 641v11q0 33 22 33h197q12 0 17 -8t5 -25v-11q0 -17 -5 -25t-17 -8h-197q-22 0 -22 33zM76 23v477q0 25 46 25h10q46 0 46 -25v-477q0 -25 -46 -25h-10q-46 0 -46 25z" />
    <glyph glyph-name="Ibreve" unicode="&#x12c;" horiz-adv-x="262" 
d="M43.5 790q-33.5 31 -33.5 82q0 20 24 20q10 0 14 -4.5t10 -18.5q8 -18 25 -27.5t48 -9.5q58 0 73 38q5 13 9 17.5t14 4.5q24 0 24 -20q0 -51 -33.5 -82t-86.5 -31q-54 0 -87.5 31zM76 23v654q0 25 44 25h23q43 0 43 -25v-654q0 -25 -43 -25h-23q-44 0 -44 25z" />
    <glyph glyph-name="ibreve" unicode="&#x12d;" horiz-adv-x="254" 
d="M39.5 613q-33.5 31 -33.5 82q0 20 24 20q10 0 14 -4.5t10 -18.5q8 -18 25 -27.5t48 -9.5q58 0 73 38q5 13 9 17.5t14 4.5q24 0 24 -20q0 -51 -33.5 -82t-86.5 -31q-54 0 -87.5 31zM76 23v477q0 25 46 25h10q46 0 46 -25v-477q0 -25 -46 -25h-10q-46 0 -46 25z" />
    <glyph glyph-name="Iogonek" unicode="&#x12e;" horiz-adv-x="262" 
d="M268 -130q0 -19 -14 -28q-27 -17 -64 -17q-55 0 -74 29t-19 61q0 42 22 83q-43 0 -43 25v654q0 25 44 25h23q43 0 43 -25v-654q0 -9 -4 -13q-22 -43 -22 -77q0 -25 14 -34t35 -9q8 0 20.5 3t15.5 3q23 0 23 -26z" />
    <glyph glyph-name="iogonek" unicode="&#x12f;" horiz-adv-x="254" 
d="M76 624v53q0 25 52 25t52 -25v-53q0 -25 -52 -25t-52 25zM254 -135q0 -19 -14 -28q-27 -17 -64 -17q-55 0 -74 29t-19 61q0 18 6 42t19 47q-32 3 -32 24v477q0 25 46 25h10q46 0 46 -25v-477q0 -12 -10 -18q-22 -43 -22 -77q0 -25 14 -34t35 -9q8 0 20.5 3t15.5 3
q23 0 23 -26z" />
    <glyph glyph-name="Idotaccent" unicode="&#x130;" horiz-adv-x="262" 
d="M80 801v53q0 25 52 25t52 -25v-53q0 -25 -52 -25t-52 25zM76 23v654q0 25 44 25h23q43 0 43 -25v-654q0 -25 -43 -25h-23q-44 0 -44 25z" />
    <glyph glyph-name="dotlessi" unicode="&#x131;" horiz-adv-x="254" 
d="M76 23v477q0 25 46 25h10q46 0 46 -25v-477q0 -25 -46 -25h-10q-46 0 -46 25z" />
    <glyph glyph-name="IJ" unicode="&#x132;" horiz-adv-x="617" 
d="M76 23v654q0 25 44 25h23q43 0 43 -25v-654q0 -25 -43 -25h-23q-44 0 -44 25zM302 3q-31 10 -31 26q0 18 8.5 42t19.5 24q6 0 22 -4t32 -4q44 0 63 28t19 89v473q0 25 44 25h22q44 0 44 -25v-473q0 -100 -43 -155.5t-134 -55.5q-35 0 -66 10z" />
    <glyph glyph-name="ij" unicode="&#x133;" horiz-adv-x="503" 
d="M76 624v53q0 25 52 25t52 -25v-53q0 -25 -52 -25t-52 25zM330 624v53q0 25 52 25t52 -25v-53q0 -25 -52 -25t-52 25zM76 23v477q0 25 46 25h10q46 0 46 -25v-477q0 -25 -46 -25h-10q-46 0 -46 25zM238 -176q0 13 7 33.5t17 20.5q3 0 12 -2.5t22 -2.5q34 0 34 61v566
q0 25 46 25h10q46 0 46 -25v-571q0 -76 -34.5 -108.5t-81.5 -32.5q-78 0 -78 36z" />
    <glyph glyph-name="Jcircumflex" unicode="&#x134;" horiz-adv-x="355" 
d="M118 755.5q-5 3.5 -5 8.5q0 4 7 18l54 92q14 21 47 21h11q32 0 46 -21l55 -92q7 -10 7 -17q0 -13 -20 -13h-22q-23 0 -32 15l-40 65l-39 -65q-10 -15 -33 -15h-21q-10 0 -15 3.5zM40 3q-31 10 -31 26q0 18 8.5 42t19.5 24q6 0 22 -4t32 -4q44 0 63 28t19 89v473
q0 25 44 25h22q44 0 44 -25v-473q0 -100 -43 -155.5t-134 -55.5q-35 0 -66 10z" />
    <glyph glyph-name="jcircumflex" unicode="&#x135;" horiz-adv-x="249" 
d="M18 578.5q-5 3.5 -5 8.5q0 4 7 18l54 92q14 21 47 21h11q32 0 46 -21l55 -92q7 -10 7 -17q0 -13 -20 -13h-22q-23 0 -32 15l-40 65l-39 -65q-11 -15 -33 -15h-21q-10 0 -15 3.5zM-16 -176q0 13 6.5 33.5t17.5 20.5q3 0 12 -2.5t22 -2.5q34 0 34 61v566q0 25 46 25h10
q46 0 46 -25v-571q0 -76 -34.5 -108.5t-81.5 -32.5q-78 0 -78 36z" />
    <glyph glyph-name="Kcommaaccent" unicode="&#x136;" horiz-adv-x="510" 
d="M508 12q0 -7 -10 -10.5t-33 -3.5h-34q-20 0 -32 3t-18 12l-195 322h-3v-312q0 -25 -45 -25h-20q-44 0 -44 25v654q0 25 44 25h20q45 0 45 -25v-308h4l189 318q6 9 17.5 12t30.5 3h28q41 0 41 -14q0 -9 -8 -20l-198 -311l215 -327q6 -11 6 -18zM198 -232q-10 4 -10 13
q0 5 6 27q18 49 18 106q0 35 43 35h13q19 0 28.5 -9t9.5 -24q0 -40 -15 -75t-35.5 -56t-34.5 -21q-13 0 -23 4z" />
    <glyph glyph-name="kcommaaccent" unicode="&#x137;" horiz-adv-x="452" 
d="M433 13q0 -8 -10 -11.5t-33 -3.5h-30q-17 0 -23.5 2.5t-12.5 12.5l-136 242h-8v-232q0 -25 -43 -25h-17q-44 0 -44 25v705q0 25 44 25h17q43 0 43 -25v-438h5l128 220q5 9 14.5 12t27.5 3h29q39 0 39 -14q0 -7 -8 -21l-130 -216l141 -244q7 -13 7 -17zM174 -232
q-10 4 -10 13q0 5 6 27q18 49 18 106q0 35 43 35h13q19 0 28.5 -9t9.5 -24q0 -40 -15 -75t-35.5 -56t-34.5 -21q-13 0 -23 4z" />
    <glyph glyph-name="kgreenlandic" unicode="&#x138;" horiz-adv-x="452" 
d="M76 23v477q0 25 44 25h17q43 0 43 -25v-205h5l125 215q5 9 16 12t29 3h23q39 0 39 -14q0 -9 -9 -24l-130 -209l148 -248q7 -13 7 -17q0 -8 -10 -11.5t-33 -3.5h-26q-20 0 -30 2.5t-15 12.5l-133 234h-6v-224q0 -25 -43 -25h-17q-44 0 -44 25z" />
    <glyph glyph-name="Lacute" unicode="&#x139;" horiz-adv-x="408" 
d="M79 8q-7 8 -7 25v644q0 25 44 25h21q44 0 44 -25v-585h191q12 0 17.5 -8.5t5.5 -27.5v-20q0 -19 -5.5 -27.5t-17.5 -8.5h-270q-16 0 -23 8zM99.5 762.5q-5.5 2.5 -5.5 9.5q0 6 8 23.5t23 47.5l20 41q14 27 63 27q24 0 34.5 -3t10.5 -11q0 -6 -8.5 -19t-28.5 -39
q-7 -9 -17.5 -23t-26.5 -36q-7 -10 -19.5 -15t-34.5 -5q-13 0 -18.5 2.5z" />
    <glyph glyph-name="lacute" unicode="&#x13a;" horiz-adv-x="270" 
d="M101.5 23q-32.5 30 -32.5 100v605q0 25 45 25h11q46 0 46 -25v-600q0 -50 33 -50q10 0 17.5 2.5t11.5 2.5q10 0 17 -20.5t7 -34.5q0 -18 -24.5 -26.5t-51.5 -8.5q-47 0 -79.5 30zM91.5 781.5q-5.5 2.5 -5.5 9.5q0 6 8 23.5t23 47.5l20 41q14 27 63 27q24 0 34.5 -3
t10.5 -11q0 -6 -8.5 -19t-28.5 -39q-7 -9 -17.5 -23t-26.5 -36q-7 -10 -19.5 -15t-34.5 -5q-13 0 -18.5 2.5z" />
    <glyph glyph-name="Lcommaaccent" unicode="&#x13b;" horiz-adv-x="408" 
d="M79 8q-7 8 -7 25v644q0 25 44 25h21q44 0 44 -25v-585h191q12 0 17.5 -8.5t5.5 -27.5v-20q0 -19 -5.5 -27.5t-17.5 -8.5h-270q-16 0 -23 8zM168 -232q-10 4 -10 13q0 5 6 27q18 49 18 106q0 35 43 35h13q19 0 28.5 -9t9.5 -24q0 -40 -15 -75t-35.5 -56t-34.5 -21
q-13 0 -23 4z" />
    <glyph glyph-name="lcommaaccent" unicode="&#x13c;" horiz-adv-x="270" 
d="M101.5 23q-32.5 30 -32.5 100v605q0 25 45 25h11q46 0 46 -25v-600q0 -50 33 -50q10 0 17.5 2.5t11.5 2.5q10 0 17 -20.5t7 -34.5q0 -18 -24.5 -26.5t-51.5 -8.5q-47 0 -79.5 30zM93 -232q-10 4 -10 13q0 5 6 27q18 49 18 106q0 35 43 35h13q19 0 28.5 -9t9.5 -24
q0 -40 -15 -75t-35.5 -56t-34.5 -21q-13 0 -23 4z" />
    <glyph glyph-name="Lcaron" unicode="&#x13d;" horiz-adv-x="408" 
d="M79 8q-7 8 -7 25v644q0 25 44 25h21q44 0 44 -25v-585h191q12 0 17.5 -8.5t5.5 -27.5v-20q0 -19 -5.5 -27.5t-17.5 -8.5h-270q-16 0 -23 8zM261.5 526q-10.5 4 -10.5 13q0 10 4 40q1 9 3.5 34t2.5 52q0 16 11 25.5t32 9.5h12q21 0 32 -9t11 -24q0 -39 -13 -72t-31 -53
t-31 -20q-12 0 -22.5 4z" />
    <glyph glyph-name="lcaron" unicode="&#x13e;" horiz-adv-x="270" 
d="M101.5 23q-32.5 30 -32.5 100v605q0 25 45 25h11q46 0 46 -25v-600q0 -50 33 -50q10 0 17.5 2.5t11.5 2.5q10 0 17 -20.5t7 -34.5q0 -18 -24.5 -26.5t-51.5 -8.5q-47 0 -79.5 30zM231.5 527q-10.5 4 -10.5 13q0 10 4 40q1 9 3.5 34t2.5 52q0 16 11 25.5t32 9.5h12
q21 0 32 -9t11 -24q0 -39 -13 -72t-31 -53t-31 -20q-12 0 -22.5 4z" />
    <glyph glyph-name="Ldot" unicode="&#x13f;" horiz-adv-x="408" 
d="M79 8q-7 8 -7 25v644q0 25 44 25h21q44 0 44 -25v-585h191q12 0 17.5 -8.5t5.5 -27.5v-20q0 -19 -5.5 -27.5t-17.5 -8.5h-270q-16 0 -23 8zM258 318.5q-15 15.5 -15 41.5t15 41.5t39 15.5t39.5 -15.5t15.5 -41.5t-15.5 -41.5t-39.5 -15.5t-39 15.5z" />
    <glyph glyph-name="ldot" unicode="&#x140;" horiz-adv-x="309" 
d="M101.5 23q-32.5 30 -32.5 100v605q0 25 45 25h11q46 0 46 -25v-600q0 -50 33 -50q10 0 17.5 2.5t11.5 2.5q10 0 17 -20.5t7 -34.5q0 -18 -24.5 -26.5t-51.5 -8.5q-47 0 -79.5 30zM228 318.5q-15 15.5 -15 41.5t15 41.5t39 15.5t39.5 -15.5t15.5 -41.5t-15.5 -41.5
t-39.5 -15.5t-39 15.5z" />
    <glyph glyph-name="Lslash" unicode="&#x141;" horiz-adv-x="408" 
d="M389.5 83.5q5.5 -8.5 5.5 -27.5v-20q0 -19 -5.5 -27.5t-17.5 -8.5h-270q-16 0 -23 8t-7 25v293l-39 -23q-8 -5 -12 -5q-9 0 -9 16v10q0 22 21 34l39 24v295q0 25 44 25h21q44 0 44 -25v-230l82 50q10 4 12 4q9 0 9 -16v-10q0 -22 -21 -34l-82 -49v-300h191
q12 0 17.5 -8.5z" />
    <glyph glyph-name="lslash" unicode="&#x142;" horiz-adv-x="276" 
d="M256 62.5q7 -20.5 7 -34.5q0 -18 -24.5 -26.5t-51.5 -8.5q-47 0 -79.5 30t-32.5 100v215l-25 -15q-7 -5 -11 -5q-10 0 -10 16v10q0 20 21 35l25 15v334q0 25 45 25h11q46 0 46 -25v-274l39 23q7 4 11 4q10 0 10 -15v-10q0 -23 -21 -35l-39 -23v-270q0 -50 33 -50
q10 0 17.5 2.5t11.5 2.5q10 0 17 -20.5z" />
    <glyph glyph-name="Nacute" unicode="&#x143;" horiz-adv-x="590" 
d="M266.5 761.5q-5.5 2.5 -5.5 9.5q0 6 8 23.5t23 47.5l20 41q14 27 63 27q24 0 34.5 -3t10.5 -11q0 -6 -8.5 -19t-28.5 -39q-7 -9 -17.5 -23t-26.5 -36q-7 -10 -19.5 -15t-34.5 -5q-13 0 -18.5 2.5zM67 23v654q0 25 44 25h24q16 0 26.5 -4.5t16.5 -17.5l217 -412
q13 -25 28 -68l5 2q-8 37 -8 70v405q0 25 44 25h15q44 0 44 -25v-654q0 -25 -44 -25h-20q-33 0 -41 19l-225 427q-13 23 -26 63l-5 -2q8 -37 8 -67v-415q0 -25 -44 -25h-15q-44 0 -44 25z" />
    <glyph glyph-name="nacute" unicode="&#x144;" 
d="M214.5 584.5q-5.5 2.5 -5.5 9.5q0 6 8 23.5t23 47.5l20 41q14 27 63 27q24 0 34.5 -3t10.5 -11q0 -6 -8.5 -19t-28.5 -39q-7 -9 -17.5 -23t-26.5 -36q-7 -10 -19.5 -15t-34.5 -5q-13 0 -18.5 2.5zM70 23v343q0 66 -5 96t-5 34q0 13 27.5 19.5t46.5 6.5q16 0 21.5 -12.5
t8.5 -30t4 -25.5q23 35 56 55.5t72 20.5q60 0 92 -40t32 -112v-355q0 -25 -43 -25h-17q-45 0 -45 25v340q0 79 -61 79q-24 0 -45 -16t-35 -43v-360q0 -25 -43 -25h-18q-43 0 -43 25z" />
    <glyph glyph-name="Ncommaaccent" unicode="&#x145;" horiz-adv-x="590" 
d="M67 23v654q0 25 44 25h24q16 0 26.5 -4.5t16.5 -17.5l217 -412q13 -25 28 -68l5 2q-8 37 -8 70v405q0 25 44 25h15q44 0 44 -25v-654q0 -25 -44 -25h-20q-33 0 -41 19l-225 427q-13 23 -26 63l-5 -2q8 -37 8 -67v-415q0 -25 -44 -25h-15q-44 0 -44 25zM233 -232
q-10 4 -10 13q0 5 6 27q18 49 18 106q0 35 43 35h13q19 0 28.5 -9t9.5 -24q0 -40 -15 -75t-35.5 -56t-34.5 -21q-13 0 -23 4z" />
    <glyph glyph-name="ncommaaccent" unicode="&#x146;" 
d="M70 23v343q0 66 -5 96t-5 34q0 13 27.5 19.5t46.5 6.5q16 0 21.5 -12.5t8.5 -30t4 -25.5q23 35 56 55.5t72 20.5q60 0 92 -40t32 -112v-355q0 -25 -43 -25h-17q-45 0 -45 25v340q0 79 -61 79q-24 0 -45 -16t-35 -43v-360q0 -25 -43 -25h-18q-43 0 -43 25zM181 -232
q-10 4 -10 13q0 5 6 27q18 49 18 106q0 35 43 35h13q19 0 28.5 -9t9.5 -24q0 -40 -15 -75t-35.5 -56t-34.5 -21q-13 0 -23 4z" />
    <glyph glyph-name="Ncaron" unicode="&#x147;" horiz-adv-x="590" 
d="M243 778l-54 91q-7 14 -7 18q0 13 20 13h21q23 0 33 -16l39 -64l40 64q9 16 32 16h22q20 0 20 -14q0 -5 -7 -17l-55 -91q-7 -12 -18 -16.5t-27 -4.5h-13q-33 0 -46 21zM67 23v654q0 25 44 25h24q16 0 26.5 -4.5t16.5 -17.5l217 -412q13 -25 28 -68l5 2q-8 37 -8 70v405
q0 25 44 25h15q44 0 44 -25v-654q0 -25 -44 -25h-20q-33 0 -41 19l-225 427q-13 23 -26 63l-5 -2q8 -37 8 -67v-415q0 -25 -44 -25h-15q-44 0 -44 25z" />
    <glyph glyph-name="ncaron" unicode="&#x148;" 
d="M191 601l-54 91q-7 14 -7 18q0 13 20 13h21q23 0 33 -16l39 -64l40 64q9 16 32 16h22q20 0 20 -14q0 -5 -7 -17l-55 -91q-7 -12 -18 -16.5t-27 -4.5h-13q-33 0 -46 21zM70 23v343q0 66 -5 96t-5 34q0 13 27.5 19.5t46.5 6.5q16 0 21.5 -12.5t8.5 -30t4 -25.5
q23 35 56 55.5t72 20.5q60 0 92 -40t32 -112v-355q0 -25 -43 -25h-17q-45 0 -45 25v340q0 79 -61 79q-24 0 -45 -16t-35 -43v-360q0 -25 -43 -25h-18q-43 0 -43 25z" />
    <glyph glyph-name="napostrophe" unicode="&#x149;" 
d="M6 540q-10 4 -10 13q0 5 6 27q18 50 18 106q0 35 43 35h13q19 0 28.5 -9t9.5 -24q0 -40 -15 -75t-35.5 -56t-34.5 -21q-13 0 -23 4zM70 23v343q0 66 -5 96t-5 34q0 13 27.5 19.5t46.5 6.5q16 0 21.5 -12.5t8.5 -30t4 -25.5q23 35 56 55.5t72 20.5q60 0 92 -40t32 -112
v-355q0 -25 -43 -25h-17q-45 0 -45 25v340q0 79 -61 79q-24 0 -45 -16t-35 -43v-360q0 -25 -43 -25h-18q-43 0 -43 25z" />
    <glyph glyph-name="Eng" unicode="&#x14a;" horiz-adv-x="590" 
d="M523 677v-748q0 -76 -34.5 -108.5t-81.5 -32.5q-79 0 -79 36q0 13 7 33.5t17 20.5q4 0 13 -2.5t22 -2.5q17 0 26.5 13.5t9.5 47.5v72l-230 438q-13 23 -26 63l-5 -2q8 -37 8 -67v-415q0 -25 -44 -25h-15q-44 0 -44 25v654q0 25 44 25h24q16 0 26.5 -4.5t16.5 -17.5
l217 -412q13 -25 28 -68l5 2q-8 37 -8 70v405q0 25 44 25h15q44 0 44 -25z" />
    <glyph glyph-name="eng" unicode="&#x14b;" 
d="M224 -176q0 13 6.5 33.5t16.5 20.5q4 0 13 -2.5t22 -2.5q16 0 24.5 13.5t8.5 47.5v429q0 79 -61 79q-24 0 -45 -16t-35 -43v-360q0 -25 -43 -25h-18q-43 0 -43 25v343q0 66 -5 96t-5 34q0 13 27.5 19.5t46.5 6.5q16 0 21.5 -12.5t8.5 -30t4 -25.5q23 35 56 55.5t72 20.5
q60 0 92 -40t32 -112v-449q0 -76 -35 -108.5t-83 -32.5q-78 0 -78 36z" />
    <glyph glyph-name="Omacron" unicode="&#x14c;" horiz-adv-x="599" 
d="M182 818v11q0 33 22 33h197q12 0 17 -8t5 -25v-11q0 -17 -5 -25t-17 -8h-197q-22 0 -22 33zM110.5 81.5q-64.5 88.5 -64.5 269.5q0 356 253 356q254 0 254 -356q0 -358 -254 -358q-124 0 -188.5 88.5zM406.5 149q35.5 64 35.5 202t-35.5 200.5t-106.5 62.5
q-72 0 -107 -62t-35 -201q0 -138 35.5 -202t106.5 -64t106.5 64z" />
    <glyph glyph-name="omacron" unicode="&#x14d;" horiz-adv-x="477" 
d="M121 641v11q0 33 22 33h197q12 0 17 -8t5 -25v-11q0 -17 -5 -25t-17 -8h-197q-22 0 -22 33zM93 61.5q-50 68.5 -50 198.5t50.5 200t145.5 70q96 0 145.5 -69.5t49.5 -200.5q0 -130 -49.5 -198.5t-145.5 -68.5t-146 68.5zM306.5 122q21.5 44 21.5 139q0 96 -21.5 140
t-68.5 44q-46 0 -67 -44t-21 -140t21 -139.5t67 -43.5q47 0 68.5 44z" />
    <glyph glyph-name="Obreve" unicode="&#x14e;" horiz-adv-x="599" 
d="M212.5 790q-33.5 31 -33.5 82q0 20 24 20q10 0 14 -4.5t10 -18.5q8 -18 25 -27.5t48 -9.5q58 0 73 38q5 13 9 17.5t14 4.5q24 0 24 -20q0 -51 -33.5 -82t-86.5 -31q-54 0 -87.5 31zM110.5 81.5q-64.5 88.5 -64.5 269.5q0 356 253 356q254 0 254 -356q0 -358 -254 -358
q-124 0 -188.5 88.5zM406.5 149q35.5 64 35.5 202t-35.5 200.5t-106.5 62.5q-72 0 -107 -62t-35 -201q0 -138 35.5 -202t106.5 -64t106.5 64z" />
    <glyph glyph-name="obreve" unicode="&#x14f;" horiz-adv-x="477" 
d="M151.5 613q-33.5 31 -33.5 82q0 20 24 20q10 0 14 -4.5t10 -18.5q8 -18 25 -27.5t48 -9.5q58 0 73 38q5 13 9 17.5t14 4.5q24 0 24 -20q0 -51 -33.5 -82t-86.5 -31q-54 0 -87.5 31zM93 61.5q-50 68.5 -50 198.5t50.5 200t145.5 70q96 0 145.5 -69.5t49.5 -200.5
q0 -130 -49.5 -198.5t-145.5 -68.5t-146 68.5zM306.5 122q21.5 44 21.5 139q0 96 -21.5 140t-68.5 44q-46 0 -67 -44t-21 -140t21 -139.5t67 -43.5q47 0 68.5 44z" />
    <glyph glyph-name="Ohungarumlaut" unicode="&#x150;" horiz-adv-x="599" 
d="M188.5 761.5q-5.5 2.5 -5.5 9.5q0 4 4.5 14.5t12.5 26.5l34 71q12 27 63 27q24 0 35 -3t11 -11q0 -6 -7.5 -17t-23.5 -33q-10 -13 -50 -67q-15 -20 -55 -20q-13 0 -18.5 2.5zM327 761.5q-5 2.5 -5 9.5q0 4 4.5 14.5t12.5 26.5l34 71q12 27 63 27q24 0 34.5 -3t10.5 -11
t-12 -25t-69 -92q-7 -10 -19.5 -15t-35.5 -5q-13 0 -18 2.5zM110.5 81.5q-64.5 88.5 -64.5 269.5q0 356 253 356q254 0 254 -356q0 -358 -254 -358q-124 0 -188.5 88.5zM406.5 149q35.5 64 35.5 202t-35.5 200.5t-106.5 62.5q-72 0 -107 -62t-35 -201q0 -138 35.5 -202
t106.5 -64t106.5 64z" />
    <glyph glyph-name="ohungarumlaut" unicode="&#x151;" horiz-adv-x="477" 
d="M127.5 584.5q-5.5 2.5 -5.5 9.5q0 4 4.5 14.5t12.5 26.5l34 71q12 27 63 27q24 0 35 -3t11 -11q0 -6 -7.5 -17t-23.5 -33q-10 -13 -50 -67q-15 -20 -55 -20q-13 0 -18.5 2.5zM266 584.5q-5 2.5 -5 9.5q0 4 4.5 14.5t12.5 26.5l34 71q12 27 63 27q24 0 34.5 -3t10.5 -11
t-12 -25t-69 -92q-7 -10 -19.5 -15t-35.5 -5q-13 0 -18 2.5zM93 61.5q-50 68.5 -50 198.5t50.5 200t145.5 70q96 0 145.5 -69.5t49.5 -200.5q0 -130 -49.5 -198.5t-145.5 -68.5t-146 68.5zM306.5 122q21.5 44 21.5 139q0 96 -21.5 140t-68.5 44q-46 0 -67 -44t-21 -140
t21 -139.5t67 -43.5q47 0 68.5 44z" />
    <glyph glyph-name="OE" unicode="&#x152;" horiz-adv-x="831" 
d="M788 56v-20q0 -36 -22 -36h-297q-16 0 -23 8t-7 25v24q-60 -64 -152 -64q-115 0 -178 88t-63 271q0 355 243 355q47 0 83.5 -15t66.5 -48v24q0 17 7 24.5t23 7.5h296q22 0 22 -36v-20q0 -36 -22 -36h-217v-204h195q22 0 22 -36v-20q0 -36 -22 -36h-195v-220h218
q22 0 22 -36zM402.5 148.5q35.5 63.5 35.5 202.5q0 141 -35 202t-107 61q-70 0 -104 -61t-34 -202q0 -139 34.5 -202.5t103.5 -63.5q71 0 106.5 63.5z" />
    <glyph glyph-name="oe" unicode="&#x153;" horiz-adv-x="721" 
d="M662 94q14 -23 14 -35q0 -15 -22.5 -30.5t-58 -25.5t-71.5 -10q-101 0 -154 57q-48 -57 -131 -57q-196 0 -196 267q0 132 49 201t147 69q80 0 130 -59q49 59 141 59q90 0 134.5 -67.5t44.5 -196.5q0 -10 -15 -28t-24 -18h-232q4 -75 29.5 -108.5t77.5 -33.5q33 0 55 9
t37.5 19.5t18.5 10.5q12 0 26 -23zM443 411q-22 -36 -26 -114h169q0 76 -19 113t-59 37q-43 0 -65 -36zM321 150q-11 49 -11 108q0 65 12 113q-10 38 -30.5 56t-52.5 18q-47 0 -68 -44t-21 -140t21 -139.5t68 -43.5q61 0 82 72z" />
    <glyph glyph-name="Racute" unicode="&#x154;" horiz-adv-x="513" 
d="M224.5 761.5q-5.5 2.5 -5.5 9.5q0 6 8 23.5t23 47.5l20 41q14 27 63 27q24 0 34.5 -3t10.5 -11q0 -6 -8.5 -19t-28.5 -39q-7 -9 -17.5 -23t-26.5 -36q-7 -10 -19.5 -15t-34.5 -5q-13 0 -18.5 2.5zM70 23v644q0 33 31 33h154q97 0 147 -43t50 -140q0 -120 -93 -169v-4
q21 -11 37 -40t32 -78l62 -195q1 -4 2 -7.5t1 -6.5q0 -19 -46 -19h-22q-17 0 -29 5t-15 14l-58 195q-15 47 -34.5 64t-57.5 17h-52v-270q0 -25 -45 -25h-19q-45 0 -45 25zM266 389q32 0 54.5 32.5t22.5 80.5q0 54 -22 80t-60 26h-83v-219h88z" />
    <glyph glyph-name="racute" unicode="&#x155;" horiz-adv-x="337" 
d="M75 23v343q0 66 -6 96t-6 34q0 14 25 20t46 6q15 0 21.5 -14.5t10 -31t4.5 -22.5q44 76 98 76q27 0 39.5 -12.5t12.5 -31.5q0 -18 -6.5 -41t-15.5 -23q-5 0 -18.5 5t-29.5 5q-24 0 -45 -20t-28 -38v-351q0 -25 -45 -25h-11q-46 0 -46 25zM145.5 582.5q-5.5 2.5 -5.5 9.5
q0 6 8 23.5t23 47.5l20 41q14 27 63 27q24 0 34.5 -3t10.5 -11q0 -6 -8.5 -19t-28.5 -39q-7 -9 -17.5 -23t-26.5 -36q-7 -10 -19.5 -15t-34.5 -5q-13 0 -18.5 2.5z" />
    <glyph glyph-name="Rcommaaccent" unicode="&#x156;" horiz-adv-x="513" 
d="M70 23v644q0 33 31 33h154q97 0 147 -43t50 -140q0 -120 -93 -169v-4q21 -11 37 -40t32 -78l62 -195q1 -4 2 -7.5t1 -6.5q0 -19 -46 -19h-22q-17 0 -29 5t-15 14l-58 195q-15 47 -34.5 64t-57.5 17h-52v-270q0 -25 -45 -25h-19q-45 0 -45 25zM266 389q32 0 54.5 32.5
t22.5 80.5q0 54 -22 80t-60 26h-83v-219h88zM194 -232q-10 4 -10 13q0 5 6 27q18 49 18 106q0 35 43 35h13q19 0 28.5 -9t9.5 -24q0 -40 -15 -75t-35.5 -56t-34.5 -21q-13 0 -23 4z" />
    <glyph glyph-name="rcommaaccent" unicode="&#x157;" horiz-adv-x="337" 
d="M75 23v343q0 66 -6 96t-6 34q0 14 25 20t46 6q15 0 21.5 -14.5t10 -31t4.5 -22.5q44 76 98 76q27 0 39.5 -12.5t12.5 -31.5q0 -18 -6.5 -41t-15.5 -23q-5 0 -18.5 5t-29.5 5q-24 0 -45 -20t-28 -38v-351q0 -25 -45 -25h-11q-46 0 -46 25zM67 -234q-10 4 -10 13q0 5 6 27
q18 49 18 106q0 35 43 35h13q19 0 28.5 -9t9.5 -24q0 -40 -15 -75t-35.5 -56t-34.5 -21q-13 0 -23 4z" />
    <glyph glyph-name="Rcaron" unicode="&#x158;" horiz-adv-x="513" 
d="M201 778l-54 91q-7 14 -7 18q0 13 20 13h21q23 0 33 -16l39 -64l40 64q9 16 32 16h22q20 0 20 -14q0 -5 -7 -17l-55 -91q-7 -12 -18 -16.5t-27 -4.5h-13q-33 0 -46 21zM70 23v644q0 33 31 33h154q97 0 147 -43t50 -140q0 -120 -93 -169v-4q21 -11 37 -40t32 -78l62 -195
q1 -4 2 -7.5t1 -6.5q0 -19 -46 -19h-22q-17 0 -29 5t-15 14l-58 195q-15 47 -34.5 64t-57.5 17h-52v-270q0 -25 -45 -25h-19q-45 0 -45 25zM266 389q32 0 54.5 32.5t22.5 80.5q0 54 -22 80t-60 26h-83v-219h88z" />
    <glyph glyph-name="rcaron" unicode="&#x159;" horiz-adv-x="337" 
d="M122 599l-54 91q-7 14 -7 18q0 13 20 13h21q23 0 33 -16l39 -64l40 64q9 16 32 16h22q20 0 20 -14q0 -5 -7 -17l-55 -91q-7 -12 -18 -16.5t-27 -4.5h-13q-33 0 -46 21zM75 23v343q0 66 -6 96t-6 34q0 14 25 20t46 6q15 0 21.5 -14.5t10 -31t4.5 -22.5q44 76 98 76
q27 0 39.5 -12.5t12.5 -31.5q0 -18 -6.5 -41t-15.5 -23q-5 0 -18.5 5t-29.5 5q-24 0 -45 -20t-28 -38v-351q0 -25 -45 -25h-11q-46 0 -46 25z" />
    <glyph glyph-name="Sacute" unicode="&#x15a;" horiz-adv-x="437" 
d="M205.5 761.5q-5.5 2.5 -5.5 9.5q0 6 8 23.5t23 47.5l20 41q14 27 63 27q24 0 34.5 -3t10.5 -11q0 -6 -8.5 -19t-28.5 -39q-7 -9 -17.5 -23t-26.5 -36q-7 -10 -19.5 -15t-34.5 -5q-13 0 -18.5 2.5zM113 6.5q-42 12.5 -71 35.5q-6 6 -9 11.5t-3 14.5q0 21 9 43.5t21 22.5
q5 0 11.5 -3.5t10.5 -5.5q50 -37 118 -37q46 0 75.5 26t29.5 74q0 44 -25 69t-75 51q-54 28 -87 52.5t-53.5 62t-20.5 92.5q0 91 57.5 143t149.5 52q35 0 68 -8.5t57 -23.5q10 -6 10 -18q0 -18 -10 -43t-21 -25q-4 0 -18 6q-40 18 -85 18t-73 -24.5t-28 -67.5
q0 -31 13.5 -52.5t35.5 -36.5t64 -38q49 -26 80 -50t50 -60.5t19 -90.5q0 -92 -57.5 -147t-153.5 -55q-47 0 -89 12.5z" />
    <glyph glyph-name="sacute" unicode="&#x15b;" horiz-adv-x="353" 
d="M150.5 584.5q-5.5 2.5 -5.5 9.5q0 6 8 23.5t23 47.5l20 41q14 27 63 27q24 0 34.5 -3t10.5 -11q0 -6 -8.5 -19t-28.5 -39q-7 -9 -17.5 -23t-26.5 -36q-7 -10 -19.5 -15t-34.5 -5q-13 0 -18.5 2.5zM97.5 0.5q-31.5 9.5 -51 24.5t-19.5 29t15 37t25 23q3 0 18 -10
t32.5 -17.5t39.5 -7.5q32 0 49 16t17 47q0 32 -20 53t-61 42q-51 24 -77.5 57t-26.5 89q0 67 42.5 107t109.5 40q43 0 79.5 -13.5t36.5 -33.5q0 -14 -12.5 -38t-21.5 -24q-2 0 -23 11.5t-48 11.5t-44 -14t-17 -39q0 -31 19 -50t56 -40q55 -26 82 -61t27 -94q0 -69 -45 -112
t-115 -43q-35 0 -66.5 9.5z" />
    <glyph glyph-name="Scircumflex" unicode="&#x15c;" horiz-adv-x="437" 
d="M125 755.5q-5 3.5 -5 8.5q0 4 7 18l54 92q14 21 47 21h11q32 0 46 -21l55 -92q7 -10 7 -17q0 -13 -20 -13h-22q-23 0 -32 15l-40 65l-39 -65q-10 -15 -33 -15h-21q-10 0 -15 3.5zM113 6.5q-42 12.5 -71 35.5q-6 6 -9 11.5t-3 14.5q0 21 9 43.5t21 22.5q5 0 11.5 -3.5
t10.5 -5.5q50 -37 118 -37q46 0 75.5 26t29.5 74q0 44 -25 69t-75 51q-54 28 -87 52.5t-53.5 62t-20.5 92.5q0 91 57.5 143t149.5 52q35 0 68 -8.5t57 -23.5q10 -6 10 -18q0 -18 -10 -43t-21 -25q-4 0 -18 6q-40 18 -85 18t-73 -24.5t-28 -67.5q0 -31 13.5 -52.5t35.5 -36.5
t64 -38q49 -26 80 -50t50 -60.5t19 -90.5q0 -92 -57.5 -147t-153.5 -55q-47 0 -89 12.5z" />
    <glyph glyph-name="scircumflex" unicode="&#x15d;" horiz-adv-x="353" 
d="M70 578.5q-5 3.5 -5 8.5q0 4 7 18l54 92q14 21 47 21h11q32 0 46 -21l55 -92q7 -10 7 -17q0 -13 -20 -13h-22q-23 0 -32 15l-40 65l-39 -65q-11 -15 -33 -15h-21q-10 0 -15 3.5zM97.5 0.5q-31.5 9.5 -51 24.5t-19.5 29t15 37t25 23q3 0 18 -10t32.5 -17.5t39.5 -7.5
q32 0 49 16t17 47q0 32 -20 53t-61 42q-51 24 -77.5 57t-26.5 89q0 67 42.5 107t109.5 40q43 0 79.5 -13.5t36.5 -33.5q0 -14 -12.5 -38t-21.5 -24q-2 0 -23 11.5t-48 11.5t-44 -14t-17 -39q0 -31 19 -50t56 -40q55 -26 82 -61t27 -94q0 -69 -45 -112t-115 -43
q-35 0 -66.5 9.5z" />
    <glyph glyph-name="Scedilla" unicode="&#x15e;" horiz-adv-x="437" 
d="M367.5 62q-45.5 -53 -123.5 -65l-15 -53q28 -2 49.5 -18t21.5 -52q0 -45 -27 -65t-71 -20q-35 0 -66.5 13.5t-31.5 32.5q0 11 8 21t15 10q6 0 24 -8q26 -13 44 -13q12 0 21.5 6.5t9.5 19.5t-7.5 19t-22.5 11q-12 5 -17 9t-5 11q0 6 5 23t16 50q-45 1 -85 13.5t-68 34.5
q-6 6 -9 11.5t-3 14.5q0 21 9 43.5t21 22.5q5 0 11.5 -3.5t10.5 -5.5q50 -37 118 -37q46 0 75.5 26t29.5 74q0 44 -25 69t-75 51q-54 28 -87 52.5t-53.5 62t-20.5 92.5q0 91 57.5 143t149.5 52q35 0 68 -8.5t57 -23.5q10 -6 10 -18q0 -18 -10 -43t-21 -25q-4 0 -18 6
q-40 18 -85 18t-73 -24.5t-28 -67.5q0 -31 13.5 -52.5t35.5 -36.5t64 -38q49 -26 80 -50t50 -60.5t19 -90.5q0 -81 -45.5 -134z" />
    <glyph glyph-name="scedilla" unicode="&#x15f;" horiz-adv-x="353" 
d="M290.5 46.5q-33.5 -40.5 -88.5 -51.5l-15 -51q28 -2 49.5 -18t21.5 -52q0 -45 -27 -65t-71 -20q-35 0 -66.5 13.5t-31.5 32.5q0 11 8 21t15 10q6 0 24 -8q26 -13 44 -13q12 0 21.5 6.5t9.5 19.5t-7.5 19t-22.5 11q-12 5 -17 9t-5 11q0 9 20 70q-33 2 -61.5 12t-46 24
t-17.5 27q0 14 15 37t25 23q3 0 18 -10t32.5 -17.5t39.5 -7.5q32 0 49 16t17 47q0 32 -20 53t-61 42q-51 24 -77.5 57t-26.5 89q0 67 42.5 107t109.5 40q43 0 79.5 -13.5t36.5 -33.5q0 -14 -12.5 -38t-21.5 -24q-2 0 -23 11.5t-48 11.5t-44 -14t-17 -39q0 -31 19 -50t56 -40
q55 -26 82 -61t27 -94t-33.5 -99.5z" />
    <glyph glyph-name="Scaron" unicode="&#x160;" horiz-adv-x="437" 
d="M182 778l-54 91q-7 14 -7 18q0 13 20 13h21q23 0 33 -16l39 -64l40 64q9 16 32 16h22q20 0 20 -14q0 -5 -7 -17l-55 -91q-7 -12 -18 -16.5t-27 -4.5h-13q-33 0 -46 21zM113 6.5q-42 12.5 -71 35.5q-6 6 -9 11.5t-3 14.5q0 21 9 43.5t21 22.5q5 0 11.5 -3.5t10.5 -5.5
q50 -37 118 -37q46 0 75.5 26t29.5 74q0 44 -25 69t-75 51q-54 28 -87 52.5t-53.5 62t-20.5 92.5q0 91 57.5 143t149.5 52q35 0 68 -8.5t57 -23.5q10 -6 10 -18q0 -18 -10 -43t-21 -25q-4 0 -18 6q-40 18 -85 18t-73 -24.5t-28 -67.5q0 -31 13.5 -52.5t35.5 -36.5t64 -38
q49 -26 80 -50t50 -60.5t19 -90.5q0 -92 -57.5 -147t-153.5 -55q-47 0 -89 12.5z" />
    <glyph glyph-name="scaron" unicode="&#x161;" horiz-adv-x="353" 
d="M127 601l-54 91q-7 14 -7 18q0 13 20 13h21q23 0 33 -16l39 -64l40 64q9 16 32 16h22q20 0 20 -14q0 -5 -7 -17l-55 -91q-7 -12 -18 -16.5t-27 -4.5h-13q-33 0 -46 21zM97.5 0.5q-31.5 9.5 -51 24.5t-19.5 29t15 37t25 23q3 0 18 -10t32.5 -17.5t39.5 -7.5q32 0 49 16
t17 47q0 32 -20 53t-61 42q-51 24 -77.5 57t-26.5 89q0 67 42.5 107t109.5 40q43 0 79.5 -13.5t36.5 -33.5q0 -14 -12.5 -38t-21.5 -24q-2 0 -23 11.5t-48 11.5t-44 -14t-17 -39q0 -31 19 -50t56 -40q55 -26 82 -61t27 -94q0 -69 -45 -112t-115 -43q-35 0 -66.5 9.5z" />
    <glyph glyph-name="uni0162" unicode="&#x162;" horiz-adv-x="454" 
d="M433 691.5q5 -8.5 5 -27.5v-20q0 -19 -5 -27.5t-17 -8.5h-134v-585q0 -21 -29 -24l-16 -55q28 -2 49.5 -18t21.5 -52q0 -45 -27 -65t-71 -20q-35 0 -66.5 13.5t-31.5 32.5q0 11 8 21t15 10q6 0 24 -8q26 -13 44 -13q12 0 21.5 6.5t9.5 19.5t-7.5 19t-22.5 11q-12 5 -17 9
t-5 11q0 6 5.5 24t17.5 54q-32 3 -32 24v585h-135q-11 0 -16 8.5t-5 27.5v20q0 19 5 27.5t16 8.5h378q12 0 17 -8.5z" />
    <glyph glyph-name="uni0163" unicode="&#x163;" horiz-adv-x="298" 
d="M253.5 3q-20.5 -8 -47.5 -10l-14 -49q28 -2 49.5 -18t21.5 -52q0 -45 -27 -65t-71 -20q-35 0 -66.5 13.5t-31.5 32.5q0 11 8 21t15 10q6 0 24 -8q26 -13 44 -13q12 0 21.5 6.5t9.5 19.5t-7.5 19t-22.5 11q-12 5 -17 9t-5 11q0 6 5 23.5t17 53.5q-35 10 -56.5 40.5
t-21.5 86.5v313h-26q-12 0 -17.5 8.5t-5.5 27.5v13q0 19 5.5 27.5t17.5 8.5h26l13 102q2 25 38 25h16q36 0 36 -25v-102h58q12 0 17 -8.5t5 -27.5v-13q0 -19 -5 -27.5t-17 -8.5h-58v-305q0 -31 9 -43t26 -12q10 0 19 2.5t13 2.5q10 0 16.5 -21.5t6.5 -33.5q0 -17 -20.5 -25z
" />
    <glyph glyph-name="Tcaron" unicode="&#x164;" horiz-adv-x="454" 
d="M175 778l-54 91q-7 14 -7 18q0 13 20 13h21q23 0 33 -16l39 -64l40 64q9 16 32 16h22q20 0 20 -14q0 -5 -7 -17l-55 -91q-7 -12 -18 -16.5t-27 -4.5h-13q-33 0 -46 21zM173 23v585h-135q-11 0 -16 8.5t-5 27.5v20q0 19 5 27.5t16 8.5h378q12 0 17 -8.5t5 -27.5v-20
q0 -19 -5 -27.5t-17 -8.5h-134v-585q0 -25 -44 -25h-21q-44 0 -44 25z" />
    <glyph glyph-name="tcaron" unicode="&#x165;" horiz-adv-x="298" 
d="M115 23.5q-34 30.5 -34 101.5v313h-26q-12 0 -17.5 8.5t-5.5 27.5v13q0 19 5.5 27.5t17.5 8.5h26l13 102q2 25 38 25h16q36 0 36 -25v-102h58q12 0 17 -8.5t5 -27.5v-13q0 -19 -5 -27.5t-17 -8.5h-58v-305q0 -31 9 -43t26 -12q10 0 19 2.5t13 2.5q10 0 16.5 -21.5
t6.5 -33.5q0 -19 -25 -27t-52 -8q-48 0 -82 30.5zM225.5 578q-10.5 4 -10.5 13q0 10 4 40q1 9 3.5 34t2.5 52q0 16 11 25.5t32 9.5h12q21 0 32 -9t11 -24q0 -39 -13 -72t-31 -53t-31 -20q-12 0 -22.5 4z" />
    <glyph glyph-name="Tbar" unicode="&#x166;" horiz-adv-x="439" 
d="M433 691.5q5 -8.5 5 -27.5v-20q0 -19 -5 -27.5t-17 -8.5h-134v-217h82q12 0 17 -8t5 -25v-11q0 -17 -5 -25t-17 -8h-82v-291q0 -25 -44 -25h-21q-44 0 -44 25v291h-95q-22 0 -22 33v11q0 33 22 33h95v217h-135q-11 0 -16 8.5t-5 27.5v20q0 19 5 27.5t16 8.5h378
q12 0 17 -8.5z" />
    <glyph glyph-name="tbar" unicode="&#x167;" horiz-adv-x="284" 
d="M184 256v-123q0 -31 9 -43t26 -12q10 0 19 2.5t13 2.5q10 0 16.5 -21.5t6.5 -33.5q0 -19 -25 -27t-52 -8q-48 0 -82 30.5t-34 101.5v131h-44q-24 0 -24 33v11q0 33 24 33h44v105h-26q-12 0 -17.5 8.5t-5.5 27.5v13q0 19 5.5 27.5t17.5 8.5h26l13 102q2 25 38 25h16
q36 0 36 -25v-102h58q12 0 17 -8.5t5 -27.5v-13q0 -19 -5 -27.5t-17 -8.5h-58v-105h66q13 0 18.5 -7.5t5.5 -25.5v-11q0 -18 -5.5 -25.5t-18.5 -7.5h-66z" />
    <glyph glyph-name="Utilde" unicode="&#x168;" horiz-adv-x="583" 
d="M155 769q-14 5 -14 16q0 7 3 14q26 69 85 69q23 0 69 -20q4 -2 23 -9.5t32 -7.5q10 0 17.5 5t16.5 18q10 16 22 16q5 0 12 -3l8 -3q8 -3 11.5 -6.5t3.5 -9.5q0 -4 -4 -14q-27 -69 -85 -69q-15 0 -30.5 5t-39.5 15q-15 7 -30 12t-26 5q-9 0 -16 -5t-16 -19
q-10 -14 -21 -14q-3 0 -11 2zM123 47q-60 54 -60 151v479q0 25 44 25h21q44 0 44 -25v-478q0 -50 33.5 -82t86.5 -32t86 32t33 82v478q0 25 44 25h21q44 0 44 -25v-479q0 -97 -60 -151t-168 -54q-109 0 -169 54z" />
    <glyph glyph-name="utilde" unicode="&#x169;" 
d="M102 592q-14 5 -14 16q0 7 3 14q26 69 85 69q23 0 69 -20q4 -2 23 -9.5t32 -7.5q10 0 17.5 5t16.5 18q10 16 22 16q5 0 12 -3l8 -3q8 -3 11.5 -6.5t3.5 -9.5q0 -4 -4 -14q-27 -69 -85 -69q-15 0 -30.5 5t-39.5 15q-15 7 -30 12t-26 5q-9 0 -16 -5t-16 -19
q-10 -14 -21 -14q-3 0 -11 2zM95 29.5q-33 37.5 -33 106.5v363q0 25 43 25h17q44 0 44 -25v-345q0 -36 15.5 -55t45.5 -19q25 0 46 16t35 43v360q0 25 43 25h18q43 0 43 -25v-343q0 -66 5 -96t5 -35q0 -13 -27 -19t-47 -6q-16 0 -21.5 12.5t-8.5 30t-4 25.5
q-23 -35 -55.5 -55.5t-70.5 -20.5q-60 0 -93 37.5z" />
    <glyph glyph-name="Umacron" unicode="&#x16a;" horiz-adv-x="583" 
d="M174 818v11q0 33 22 33h197q12 0 17 -8t5 -25v-11q0 -17 -5 -25t-17 -8h-197q-22 0 -22 33zM123 47q-60 54 -60 151v479q0 25 44 25h21q44 0 44 -25v-478q0 -50 33.5 -82t86.5 -32t86 32t33 82v478q0 25 44 25h21q44 0 44 -25v-479q0 -97 -60 -151t-168 -54
q-109 0 -169 54z" />
    <glyph glyph-name="umacron" unicode="&#x16b;" 
d="M121 641v11q0 33 22 33h197q12 0 17 -8t5 -25v-11q0 -17 -5 -25t-17 -8h-197q-22 0 -22 33zM95 29.5q-33 37.5 -33 106.5v363q0 25 43 25h17q44 0 44 -25v-345q0 -36 15.5 -55t45.5 -19q25 0 46 16t35 43v360q0 25 43 25h18q43 0 43 -25v-343q0 -66 5 -96t5 -35
q0 -13 -27 -19t-47 -6q-16 0 -21.5 12.5t-8.5 30t-4 25.5q-23 -35 -55.5 -55.5t-70.5 -20.5q-60 0 -93 37.5z" />
    <glyph glyph-name="Ubreve" unicode="&#x16c;" horiz-adv-x="583" 
d="M204.5 790q-33.5 31 -33.5 82q0 20 24 20q10 0 14 -4.5t10 -18.5q8 -18 25 -27.5t48 -9.5q58 0 73 38q5 13 9 17.5t14 4.5q24 0 24 -20q0 -51 -33.5 -82t-86.5 -31q-54 0 -87.5 31zM123 47q-60 54 -60 151v479q0 25 44 25h21q44 0 44 -25v-478q0 -50 33.5 -82t86.5 -32
t86 32t33 82v478q0 25 44 25h21q44 0 44 -25v-479q0 -97 -60 -151t-168 -54q-109 0 -169 54z" />
    <glyph glyph-name="ubreve" unicode="&#x16d;" 
d="M151.5 613q-33.5 31 -33.5 82q0 20 24 20q10 0 14 -4.5t10 -18.5q8 -18 25 -27.5t48 -9.5q58 0 73 38q5 13 9 17.5t14 4.5q24 0 24 -20q0 -51 -33.5 -82t-86.5 -31q-54 0 -87.5 31zM95 29.5q-33 37.5 -33 106.5v363q0 25 43 25h17q44 0 44 -25v-345q0 -36 15.5 -55
t45.5 -19q25 0 46 16t35 43v360q0 25 43 25h18q43 0 43 -25v-343q0 -66 5 -96t5 -35q0 -13 -27 -19t-47 -6q-16 0 -21.5 12.5t-8.5 30t-4 25.5q-23 -35 -55.5 -55.5t-70.5 -20.5q-60 0 -93 37.5z" />
    <glyph glyph-name="Uring" unicode="&#x16e;" horiz-adv-x="583" 
d="M227 761.5q-24 24.5 -24 63.5q0 40 24 65t63 25q40 0 64 -25t24 -65q0 -39 -24 -63.5t-64 -24.5q-39 0 -63 24.5zM322.5 791.5q11.5 11.5 11.5 33.5t-11.5 34t-32.5 12t-32 -12t-12 -34q2 -45 44 -45q21 0 32.5 11.5zM123 47q-60 54 -60 151v479q0 25 44 25h21
q44 0 44 -25v-478q0 -50 33.5 -82t86.5 -32t86 32t33 82v478q0 25 44 25h21q44 0 44 -25v-479q0 -97 -60 -151t-168 -54q-109 0 -169 54z" />
    <glyph glyph-name="uring" unicode="&#x16f;" 
d="M174 584.5q-24 24.5 -24 63.5q0 40 24 65t63 25q40 0 64 -25t24 -65q0 -39 -24 -63.5t-64 -24.5q-39 0 -63 24.5zM269.5 614.5q11.5 11.5 11.5 33.5t-11.5 34t-32.5 12t-32 -12t-12 -34q2 -45 44 -45q21 0 32.5 11.5zM95 29.5q-33 37.5 -33 106.5v363q0 25 43 25h17
q44 0 44 -25v-345q0 -36 15.5 -55t45.5 -19q25 0 46 16t35 43v360q0 25 43 25h18q43 0 43 -25v-343q0 -66 5 -96t5 -35q0 -13 -27 -19t-47 -6q-16 0 -21.5 12.5t-8.5 30t-4 25.5q-23 -35 -55.5 -55.5t-70.5 -20.5q-60 0 -93 37.5z" />
    <glyph glyph-name="Uhungarumlaut" unicode="&#x170;" horiz-adv-x="583" 
d="M180.5 761.5q-5.5 2.5 -5.5 9.5q0 4 4.5 14.5t12.5 26.5l34 71q12 27 63 27q24 0 35 -3t11 -11q0 -6 -7.5 -17t-23.5 -33q-10 -13 -50 -67q-15 -20 -55 -20q-13 0 -18.5 2.5zM319 761.5q-5 2.5 -5 9.5q0 4 4.5 14.5t12.5 26.5l34 71q12 27 63 27q24 0 34.5 -3t10.5 -11
t-12 -25t-69 -92q-7 -10 -19.5 -15t-35.5 -5q-13 0 -18 2.5zM123 47q-60 54 -60 151v479q0 25 44 25h21q44 0 44 -25v-478q0 -50 33.5 -82t86.5 -32t86 32t33 82v478q0 25 44 25h21q44 0 44 -25v-479q0 -97 -60 -151t-168 -54q-109 0 -169 54z" />
    <glyph glyph-name="uhungarumlaut" unicode="&#x171;" 
d="M127.5 584.5q-5.5 2.5 -5.5 9.5q0 4 4.5 14.5t12.5 26.5l34 71q12 27 63 27q24 0 35 -3t11 -11q0 -6 -7.5 -17t-23.5 -33q-10 -13 -50 -67q-15 -20 -55 -20q-13 0 -18.5 2.5zM266 584.5q-5 2.5 -5 9.5q0 4 4.5 14.5t12.5 26.5l34 71q12 27 63 27q24 0 34.5 -3t10.5 -11
t-12 -25t-69 -92q-7 -10 -19.5 -15t-35.5 -5q-13 0 -18 2.5zM95 29.5q-33 37.5 -33 106.5v363q0 25 43 25h17q44 0 44 -25v-345q0 -36 15.5 -55t45.5 -19q25 0 46 16t35 43v360q0 25 43 25h18q43 0 43 -25v-343q0 -66 5 -96t5 -35q0 -13 -27 -19t-47 -6q-16 0 -21.5 12.5
t-8.5 30t-4 25.5q-23 -35 -55.5 -55.5t-70.5 -20.5q-60 0 -93 37.5z" />
    <glyph glyph-name="Uogonek" unicode="&#x172;" horiz-adv-x="583" 
d="M495 91q-25 -45 -72 -70q-22 -41 -22 -77q0 -25 14 -34t35 -9q8 0 20.5 3t15.5 3q23 0 23 -26q0 -19 -14 -28q-27 -17 -64 -17q-55 0 -74 29t-19 61q0 35 16 72q-32 -5 -62 -5q-109 0 -169 54t-60 151v479q0 25 44 25h21q44 0 44 -25v-478q0 -50 33.5 -82t86.5 -32t86 32
t33 82v478q0 25 44 25h21q44 0 44 -25v-479q0 -62 -25 -107z" />
    <glyph glyph-name="uogonek" unicode="&#x173;" 
d="M506 -116q0 -19 -14 -28q-27 -17 -64 -17q-55 0 -74 29t-19 61q0 35 16 71h-3q-16 0 -21.5 12.5t-8.5 30t-4 25.5q-23 -35 -55.5 -55.5t-70.5 -20.5q-60 0 -93 37.5t-33 106.5v363q0 25 43 25h17q44 0 44 -25v-345q0 -36 15.5 -55t45.5 -19q25 0 46 16t35 43v360
q0 25 43 25h18q43 0 43 -25v-343q0 -66 5 -96t5 -35q0 -6 -7 -11q-17 -35 -17 -67q0 -25 14 -34t35 -9q8 0 20.5 3t15.5 3q23 0 23 -26z" />
    <glyph glyph-name="Wcircumflex" unicode="&#x174;" horiz-adv-x="752" 
d="M267 755.5q-5 3.5 -5 8.5q0 4 7 18l54 92q14 21 47 21h11q32 0 46 -21l55 -92q7 -10 7 -17q0 -13 -20 -13h-22q-23 0 -32 15l-40 65l-39 -65q-10 -15 -33 -15h-21q-10 0 -15 3.5zM153 15l-136 653l-2 13q0 21 46 21h17q43 0 47 -20l79 -450q4 -21 11 -81l5 -42l21 125
l84 450q2 10 11.5 14t27.5 4h29q18 0 27.5 -4t11.5 -14l84 -452q8 -40 18 -124q1 6 12 74l8 50l77 450q3 20 47 20h14q46 0 46 -21l-2 -13l-138 -653q-3 -17 -39 -17h-48q-35 0 -38 17l-82 402l-15 120l-15 -120l-82 -402q-4 -17 -39 -17h-47q-36 0 -40 17z" />
    <glyph glyph-name="wcircumflex" unicode="&#x175;" horiz-adv-x="616" 
d="M199 578.5q-5 3.5 -5 8.5q0 4 7 18l54 92q14 21 47 21h11q32 0 46 -21l55 -92q7 -10 7 -17q0 -13 -20 -13h-22q-23 0 -32 15l-40 65l-39 -65q-10 -15 -33 -15h-21q-10 0 -15 3.5zM123 15l-106 472l-2 18q0 20 46 20q51 0 54 -17l47 -299q5 -33 4 -26q6 -29 13 -81h5
q6 48 19 109l56 296q3 18 39 18h21q37 0 41 -18l56 -296q16 -82 19 -108h5q8 56 17 106l47 299q3 17 52 17q45 0 45 -20l-2 -16l-106 -474q-3 -17 -37 -17h-34q-34 0 -37 17l-61 286q-5 24 -13 86h-4q-5 -40 -13 -86l-62 -286q-4 -17 -37 -17h-34q-35 0 -38 17z" />
    <glyph glyph-name="Ycircumflex" unicode="&#x176;" horiz-adv-x="484" 
d="M133 755.5q-5 3.5 -5 8.5q0 4 7 18l54 92q14 21 47 21h11q32 0 46 -21l55 -92q7 -10 7 -17q0 -13 -20 -13h-22q-23 0 -32 15l-40 65l-39 -65q-11 -15 -33 -15h-21q-10 0 -15 3.5zM187 23v290l-165 351q-7 14 -7 20q0 18 47 18h27q18 0 29 -3.5t15 -12.5l112 -272l113 273
q3 9 14 12t30 3h22q45 -1 45 -18q0 -8 -6 -20l-166 -354v-287q0 -25 -44 -25h-21q-45 0 -45 25z" />
    <glyph glyph-name="ycircumflex" unicode="&#x177;" horiz-adv-x="402" 
d="M94 578.5q-5 3.5 -5 8.5q0 4 7 18l54 92q14 21 47 21h11q32 0 46 -21l55 -92q7 -10 7 -17q0 -13 -20 -13h-22q-23 0 -32 15l-40 65l-39 -65q-10 -15 -33 -15h-21q-10 0 -15 3.5zM390 507q0 -4 -3 -18l-188 -675q-7 -21 -45 -21h-20q-39 0 -39 17q0 6 3 17l69 229
q-16 2 -21 16l-127 415q-4 18 -4 19q0 19 42 19h23q36 0 40 -18l63 -251q5 -20 19 -90h5l8 38l10 52l63 252q4 17 42 17h17q43 0 43 -18z" />
    <glyph glyph-name="Ydieresis" unicode="&#x178;" horiz-adv-x="484" 
d="M131 801v53q0 25 44 25t44 -25v-53q0 -25 -45 -25q-43 0 -43 25zM267 801v53q0 25 45 25q43 0 43 -25v-53q0 -25 -44 -25t-44 25zM187 23v290l-165 351q-7 14 -7 20q0 18 47 18h27q18 0 29 -3.5t15 -12.5l112 -272l113 273q3 9 14 12t30 3h22q45 -1 45 -18q0 -8 -6 -20
l-166 -354v-287q0 -25 -44 -25h-21q-45 0 -45 25z" />
    <glyph glyph-name="Zacute" unicode="&#x179;" horiz-adv-x="507" 
d="M40.5 22.5q-9.5 22.5 -9.5 40.5q0 6 2 12l301 533h-257q-11 0 -16 9.5t-5 29.5v14q0 21 5 30t16 9h365q9 0 18 -23t9 -41q0 -8 -1 -11l-300 -533h279q22 0 22 -39v-14q0 -21 -5.5 -30t-16.5 -9h-388q-9 0 -18.5 22.5zM228.5 761.5q-5.5 2.5 -5.5 9.5q0 6 8 23.5t23 47.5
l20 41q14 27 63 27q24 0 34.5 -3t10.5 -11q0 -6 -8.5 -19t-28.5 -39q-7 -9 -17.5 -23t-26.5 -36q-7 -10 -19.5 -15t-34.5 -5q-13 0 -18.5 2.5z" />
    <glyph glyph-name="zacute" unicode="&#x17a;" horiz-adv-x="405" 
d="M176.5 584.5q-5.5 2.5 -5.5 9.5q0 6 8 23.5t23 47.5l20 41q14 27 63 27q24 0 34.5 -3t10.5 -11q0 -6 -8.5 -19t-28.5 -39q-7 -9 -17.5 -23t-26.5 -36q-7 -10 -19.5 -15t-34.5 -5q-13 0 -18.5 2.5zM38.5 20.5q-7.5 20.5 -7.5 37.5q0 6 2 12l210 368h-176q-22 0 -22 36v13
q0 36 22 36h283q6 0 13 -21.5t7 -37.5q0 -6 -2 -12l-209 -367h192q22 0 22 -36v-13q0 -36 -22 -36h-298q-7 0 -14.5 20.5z" />
    <glyph glyph-name="Zdotaccent" unicode="&#x17b;" horiz-adv-x="507" 
d="M40.5 22.5q-9.5 22.5 -9.5 40.5q0 6 2 12l301 533h-257q-11 0 -16 9.5t-5 29.5v14q0 21 5 30t16 9h365q9 0 18 -23t9 -41q0 -8 -1 -11l-300 -533h279q22 0 22 -39v-14q0 -21 -5.5 -30t-16.5 -9h-388q-9 0 -18.5 22.5zM206 801v53q0 25 52 25t52 -25v-53q0 -25 -52 -25
t-52 25z" />
    <glyph glyph-name="zdotaccent" unicode="&#x17c;" horiz-adv-x="405" 
d="M154 624v53q0 25 52 25t52 -25v-53q0 -25 -52 -25t-52 25zM38.5 20.5q-7.5 20.5 -7.5 37.5q0 6 2 12l210 368h-176q-22 0 -22 36v13q0 36 22 36h283q6 0 13 -21.5t7 -37.5q0 -6 -2 -12l-209 -367h192q22 0 22 -36v-13q0 -36 -22 -36h-298q-7 0 -14.5 20.5z" />
    <glyph glyph-name="Zcaron" unicode="&#x17d;" horiz-adv-x="507" 
d="M40.5 22.5q-9.5 22.5 -9.5 40.5q0 6 2 12l301 533h-257q-11 0 -16 9.5t-5 29.5v14q0 21 5 30t16 9h365q9 0 18 -23t9 -41q0 -8 -1 -11l-300 -533h279q22 0 22 -39v-14q0 -21 -5.5 -30t-16.5 -9h-388q-9 0 -18.5 22.5zM205 778l-54 91q-7 14 -7 18q0 13 20 13h21
q23 0 33 -16l39 -64l40 64q9 16 32 16h22q20 0 20 -14q0 -5 -7 -17l-55 -91q-7 -12 -18 -16.5t-27 -4.5h-13q-33 0 -46 21z" />
    <glyph glyph-name="zcaron" unicode="&#x17e;" horiz-adv-x="405" 
d="M153 601l-54 91q-7 14 -7 18q0 13 20 13h21q23 0 33 -16l39 -64l40 64q9 16 32 16h22q20 0 20 -14q0 -5 -7 -17l-55 -91q-7 -12 -18 -16.5t-27 -4.5h-13q-33 0 -46 21zM38.5 20.5q-7.5 20.5 -7.5 37.5q0 6 2 12l210 368h-176q-22 0 -22 36v13q0 36 22 36h283
q6 0 13 -21.5t7 -37.5q0 -6 -2 -12l-209 -367h192q22 0 22 -36v-13q0 -36 -22 -36h-298q-7 0 -14.5 20.5z" />
    <glyph glyph-name="longs" unicode="&#x17f;" horiz-adv-x="273" 
d="M82 23v415h-24q-12 0 -17.5 8.5t-5.5 27.5v13q0 19 5.5 27.5t17.5 8.5h24v97q0 75 35.5 106t86.5 31q28 0 52.5 -9t24.5 -27q0 -11 -7 -33t-17 -22q-3 0 -13 3t-21 3q-19 0 -28.5 -12t-9.5 -45v-592q0 -25 -46 -25h-11q-46 0 -46 25z" />
    <glyph glyph-name="uni018F" unicode="&#x18f;" horiz-adv-x="560" 
d="M93.5 73q-50.5 80 -50.5 248q0 10 15 28t23 18h302q-2 96 -18 151.5t-45 78.5t-74 23q-40 0 -71.5 -11t-60.5 -27q-20 -10 -25 -10q-11 0 -24.5 23t-13.5 35q0 17 30.5 35t78.5 30t95 12q120 0 178.5 -89t58.5 -281q0 -180 -59.5 -262t-175.5 -82q-113 0 -163.5 80z
M346 126q31 47 38 161h-237q0 -110 25.5 -159t84.5 -49q58 0 89 47z" />
    <glyph glyph-name="florin" unicode="&#x192;" horiz-adv-x="329" 
d="M19 -201.5q-9 5.5 -9 18.5l8 71q30 252 59 543h-39q-19 0 -19 22q0 23 6 43t25 20h36l11 96q9 80 53 112.5t101 32.5q32 0 54 -7t22 -28q-1 -12 -11 -33.5t-21 -21.5q-5 0 -14.5 2.5t-23.5 2.5q-25 0 -39.5 -13.5t-18.5 -51.5l-11 -91h74q19 0 19 -23q0 -19 -6 -40.5
t-25 -21.5h-71l-66 -614q-2 -12 -12.5 -18t-34.5 -6h-16q-22 0 -31 5.5z" />
    <glyph glyph-name="Ohorn" unicode="&#x1a0;" horiz-adv-x="599" 
d="M110.5 81.5q-64.5 88.5 -64.5 269.5q0 356 253 356q80 0 141 -41q18 -11 33 -11q39 0 39 33q0 12 -5 21.5t-13.5 21.5t-8.5 17q0 11 9 17l27 18q5 4 13 4q17 0 30.5 -26t13.5 -50q0 -39 -23 -63t-69 -28q67 -88 67 -269q0 -358 -254 -358q-124 0 -188.5 88.5zM406.5 149
q35.5 64 35.5 202t-35.5 200.5t-106.5 62.5q-72 0 -107 -62t-35 -201q0 -138 35.5 -202t106.5 -64t106.5 64z" />
    <glyph glyph-name="ohorn" unicode="&#x1a1;" horiz-adv-x="477" 
d="M93 61.5q-50 68.5 -50 198.5t50.5 200t145.5 70q49 0 90 -23q20 -10 38 -10q19 0 28 9.5t9 23.5q0 11 -4.5 21t-13.5 22t-9 17q0 11 10 17l26 18q7 4 13 4q17 0 31 -26.5t14 -50.5q0 -38 -22.5 -62t-67.5 -28q53 -70 53 -202q0 -130 -49.5 -198.5t-145.5 -68.5t-146 68.5
zM306.5 122q21.5 44 21.5 139q0 96 -21.5 140t-68.5 44q-46 0 -67 -44t-21 -140t21 -139.5t67 -43.5q47 0 68.5 44z" />
    <glyph glyph-name="Uhorn" unicode="&#x1af;" horiz-adv-x="570" 
d="M572.5 697q-19.5 -23 -59.5 -28v-471q0 -97 -60 -151t-168 -54q-109 0 -169 54t-60 151v479q0 25 44 25h21q44 0 44 -25v-478q0 -50 33.5 -82t86.5 -32t86 32t33 82v478q0 25 44 25h35q22 0 32.5 9.5t10.5 23.5q0 12 -5 22t-13 22t-9 16q0 11 10 17l26 18q5 4 13 4
q17 0 30.5 -26t13.5 -51q0 -37 -19.5 -60z" />
    <glyph glyph-name="uhorn" unicode="&#x1b0;" horiz-adv-x="468" 
d="M468 518.5q-21 -23.5 -63 -28.5v-334q0 -66 5 -96t5 -35q0 -13 -27 -19t-47 -6q-16 0 -21.5 12.5t-8.5 30t-4 25.5q-23 -35 -55.5 -55.5t-70.5 -20.5q-60 0 -93 37.5t-33 106.5v363q0 25 43 25h17q44 0 44 -25v-345q0 -36 15.5 -55t45.5 -19q25 0 46 16t35 43v360
q0 25 43 25h35q23 0 33 9.5t10 23.5q0 11 -4.5 21t-13.5 22t-9 17q0 11 10 17l26 18q7 4 13 4q17 0 31 -26.5t14 -50.5q0 -37 -21 -60.5z" />
    <glyph glyph-name="uni01C4" unicode="&#x1c4;" horiz-adv-x="1084" 
d="M79 8q-7 8 -7 25v634q0 17 7 25t23 8h174q252 0 252 -350q0 -183 -65 -266.5t-187 -83.5h-174q-16 0 -23 8zM273 92q69 0 106 61t37 197q0 258 -143 258h-91v-516h91zM617.5 22.5q-9.5 22.5 -9.5 40.5q0 6 2 12l301 533h-257q-11 0 -16 9.5t-5 29.5v14q0 21 5 30t16 9
h365q9 0 18 -23t9 -41q0 -8 -1 -11l-300 -533h279q22 0 22 -39v-14q0 -21 -5.5 -30t-16.5 -9h-388q-9 0 -18.5 22.5zM781 778l-54 91q-7 14 -7 18q0 13 20 13h21q23 0 33 -16l39 -64l40 64q9 16 32 16h22q20 0 20 -14q0 -5 -7 -17l-55 -91q-7 -12 -18 -16.5t-27 -4.5h-13
q-33 0 -46 21z" />
    <glyph glyph-name="uni01C5" unicode="&#x1c5;" horiz-adv-x="982" 
d="M705 601l-54 91q-7 14 -7 18q0 13 20 13h21q23 0 33 -16l39 -64l40 64q9 16 32 16h22q20 0 20 -14q0 -5 -7 -17l-55 -91q-7 -12 -18 -16.5t-27 -4.5h-13q-33 0 -46 21zM79 8q-7 8 -7 25v634q0 17 7 25t23 8h174q252 0 252 -350q0 -183 -65 -266.5t-187 -83.5h-174
q-16 0 -23 8zM273 92q69 0 106 61t37 197q0 258 -143 258h-91v-516h91zM615.5 20.5q-7.5 20.5 -7.5 37.5q0 6 2 12l210 368h-176q-22 0 -22 36v13q0 36 22 36h283q6 0 13 -21.5t7 -37.5q0 -6 -2 -12l-209 -367h192q22 0 22 -36v-13q0 -36 -22 -36h-298q-7 0 -14.5 20.5z" />
    <glyph glyph-name="uni01C6" unicode="&#x1c6;" horiz-adv-x="886" 
d="M117 26.5q-35 33.5 -54 94.5t-19 143q0 126 44.5 196t120.5 70q58 0 99 -45v243q0 25 44 25h16q44 0 44 -25v-572q0 -65 5.5 -95.5t5.5 -36.5q0 -12 -27 -18.5t-47 -6.5q-17 0 -23.5 16.5t-11.5 51.5q-21 -36 -50.5 -55t-64.5 -19q-47 0 -82 33.5zM633 601l-54 91
q-7 14 -7 18q0 13 20 13h21q23 0 33 -16l39 -64l40 64q9 16 32 16h22q20 0 20 -14q0 -5 -7 -17l-55 -91q-7 -12 -18 -16.5t-27 -4.5h-13q-33 0 -46 21zM519.5 20.5q-7.5 20.5 -7.5 37.5q0 6 2 12l210 368h-176q-22 0 -22 36v13q0 36 22 36h283q6 0 13 -21.5t7 -37.5
q0 -6 -2 -12l-209 -367h192q22 0 22 -36v-13q0 -36 -22 -36h-298q-7 0 -14.5 20.5zM271 96q21 16 37 45v266q-30 36 -71 36q-44 0 -65.5 -44.5t-21.5 -134.5t19.5 -137t58.5 -47q22 0 43 16z" />
    <glyph glyph-name="uni01C7" unicode="&#x1c7;" horiz-adv-x="645" 
d="M79 8q-7 8 -7 25v644q0 25 44 25h21q44 0 44 -25v-585h159q12 0 17.5 -8.5t5.5 -27.5v-20q0 -19 -5.5 -27.5t-17.5 -8.5h-238q-16 0 -23 8zM341 -154q-31 10 -31 26q0 18 9 42t20 24q5 0 21 -4t33 -4q43 0 62 27.5t19 89.5v630q0 25 44 25h22q45 0 45 -25v-628
q0 -101 -43.5 -157t-134.5 -56q-35 0 -66 10z" />
    <glyph glyph-name="uni01C8" unicode="&#x1c8;" horiz-adv-x="657" 
d="M79 8q-7 8 -7 25v644q0 25 44 25h21q44 0 44 -25v-585h191q12 0 17.5 -8.5t5.5 -27.5v-20q0 -19 -5.5 -27.5t-17.5 -8.5h-270q-16 0 -23 8zM484 624v53q0 25 52 25t52 -25v-53q0 -25 -52 -25t-52 25zM392 -176q0 13 7 33.5t17 20.5q3 0 12 -2.5t22 -2.5q34 0 34 61v566
q0 25 46 25h10q46 0 46 -25v-571q0 -76 -34.5 -108.5t-81.5 -32.5q-78 0 -78 36z" />
    <glyph glyph-name="uni01C9" unicode="&#x1c9;" horiz-adv-x="519" 
d="M101.5 23q-32.5 30 -32.5 100v605q0 25 45 25h11q46 0 46 -25v-600q0 -50 33 -50q10 0 17.5 2.5t11.5 2.5q10 0 17 -20.5t7 -34.5q0 -18 -24.5 -26.5t-51.5 -8.5q-47 0 -79.5 30zM346 624v53q0 25 52 25t52 -25v-53q0 -25 -52 -25t-52 25zM254 -176q0 13 6.5 33.5
t17.5 20.5q3 0 12 -2.5t22 -2.5q34 0 34 61v566q0 25 46 25h10q46 0 46 -25v-571q0 -76 -34.5 -108.5t-81.5 -32.5q-78 0 -78 36z" />
    <glyph glyph-name="uni01CA" unicode="&#x1ca;" horiz-adv-x="945" 
d="M67 23v654q0 25 44 25h24q16 0 26.5 -4.5t16.5 -17.5l217 -412q13 -25 28 -68l5 2q-8 37 -8 70v405q0 25 44 25h15q44 0 44 -25v-654q0 -25 -44 -25h-20q-33 0 -41 19l-225 427q-13 23 -26 63l-5 -2q8 -37 8 -67v-415q0 -25 -44 -25h-15q-44 0 -44 25zM630 3
q-31 10 -31 26q0 18 8.5 42t19.5 24q6 0 22 -4t32 -4q44 0 63 28t19 89v473q0 25 44 25h22q44 0 44 -25v-473q0 -100 -43 -155.5t-134 -55.5q-35 0 -66 10z" />
    <glyph glyph-name="uni01CB" unicode="&#x1cb;" horiz-adv-x="839" 
d="M67 23v654q0 25 44 25h24q16 0 26.5 -4.5t16.5 -17.5l217 -412q13 -25 28 -68l5 2q-8 37 -8 70v405q0 25 44 25h15q44 0 44 -25v-654q0 -25 -44 -25h-20q-33 0 -41 19l-225 427q-13 23 -26 63l-5 -2q8 -37 8 -67v-415q0 -25 -44 -25h-15q-44 0 -44 25zM666 624v53
q0 25 52 25t52 -25v-53q0 -25 -52 -25t-52 25zM574 -176q0 13 7 33.5t17 20.5q3 0 12 -2.5t22 -2.5q34 0 34 61v566q0 25 46 25h10q46 0 46 -25v-571q0 -76 -34.5 -108.5t-81.5 -32.5q-78 0 -78 36z" />
    <glyph glyph-name="uni01CC" unicode="&#x1cc;" horiz-adv-x="731" 
d="M70 23v343q0 66 -5 96t-5 34q0 13 27.5 19.5t46.5 6.5q16 0 21.5 -12.5t8.5 -30t4 -25.5q23 35 56 55.5t72 20.5q60 0 92 -40t32 -112v-355q0 -25 -43 -25h-17q-45 0 -45 25v340q0 79 -61 79q-24 0 -45 -16t-35 -43v-360q0 -25 -43 -25h-18q-43 0 -43 25zM558 624v53
q0 25 52 25t52 -25v-53q0 -25 -52 -25t-52 25zM466 -176q0 13 6.5 33.5t17.5 20.5q3 0 12 -2.5t22 -2.5q34 0 34 61v566q0 25 46 25h10q46 0 46 -25v-571q0 -76 -34.5 -108.5t-81.5 -32.5q-78 0 -78 36z" />
    <glyph glyph-name="uni01EA" unicode="&#x1ea;" horiz-adv-x="599" 
d="M376 3q-20 -39 -20 -74q0 -25 14 -34t35 -9q8 0 20.5 3t15.5 3q23 0 23 -26q0 -19 -14 -28q-27 -17 -64 -17q-55 0 -74 29t-19 61q0 41 21 82h-15q-124 0 -188.5 88.5t-64.5 269.5q0 356 253 356q254 0 254 -356q0 -299 -177 -348zM193.5 149q35.5 -64 106.5 -64
t106.5 64t35.5 202t-35.5 200.5t-106.5 62.5q-72 0 -107 -62t-35 -201q0 -138 35.5 -202z" />
    <glyph glyph-name="uni01EB" unicode="&#x1eb;" horiz-adv-x="477" 
d="M373 -142q0 -19 -14 -28q-27 -17 -64 -17q-55 0 -74 29t-19 61q0 19 6 43t20 47q-91 4 -138 72.5t-47 194.5q0 130 50.5 200t145.5 70q96 0 145.5 -69.5t49.5 -200.5q0 -113 -37 -179.5t-110 -82.5q-22 -41 -22 -77q0 -25 14 -34t35 -9q8 0 20.5 3t15.5 3q23 0 23 -26z
M171 121.5q21 -43.5 67 -43.5q47 0 68.5 44t21.5 139q0 96 -21.5 140t-68.5 44q-46 0 -67 -44t-21 -140t21 -139.5z" />
    <glyph glyph-name="uni01F1" unicode="&#x1f1;" horiz-adv-x="1084" 
d="M79 8q-7 8 -7 25v634q0 17 7 25t23 8h174q252 0 252 -350q0 -183 -65 -266.5t-187 -83.5h-174q-16 0 -23 8zM273 92q69 0 106 61t37 197q0 258 -143 258h-91v-516h91zM617.5 22.5q-9.5 22.5 -9.5 40.5q0 6 2 12l301 533h-257q-11 0 -16 9.5t-5 29.5v14q0 21 5 30t16 9
h365q9 0 18 -23t9 -41q0 -8 -1 -11l-300 -533h279q22 0 22 -39v-14q0 -21 -5.5 -30t-16.5 -9h-388q-9 0 -18.5 22.5z" />
    <glyph glyph-name="uni01F2" unicode="&#x1f2;" horiz-adv-x="982" 
d="M79 8q-7 8 -7 25v634q0 17 7 25t23 8h174q252 0 252 -350q0 -183 -65 -266.5t-187 -83.5h-174q-16 0 -23 8zM273 92q69 0 106 61t37 197q0 258 -143 258h-91v-516h91zM615.5 20.5q-7.5 20.5 -7.5 37.5q0 6 2 12l210 368h-176q-22 0 -22 36v13q0 36 22 36h283
q6 0 13 -21.5t7 -37.5q0 -6 -2 -12l-209 -367h192q22 0 22 -36v-13q0 -36 -22 -36h-298q-7 0 -14.5 20.5z" />
    <glyph glyph-name="uni01F3" unicode="&#x1f3;" horiz-adv-x="886" 
d="M117 26.5q-35 33.5 -54 94.5t-19 143q0 126 44.5 196t120.5 70q58 0 99 -45v243q0 25 44 25h16q44 0 44 -25v-572q0 -65 5.5 -95.5t5.5 -36.5q0 -12 -27 -18.5t-47 -6.5q-17 0 -23.5 16.5t-11.5 51.5q-21 -36 -50.5 -55t-64.5 -19q-47 0 -82 33.5zM271 96q21 16 37 45
v266q-30 36 -71 36q-44 0 -65.5 -44.5t-21.5 -134.5t19.5 -137t58.5 -47q22 0 43 16zM519.5 20.5q-7.5 20.5 -7.5 37.5q0 6 2 12l210 368h-176q-22 0 -22 36v13q0 36 22 36h283q6 0 13 -21.5t7 -37.5q0 -6 -2 -12l-209 -367h192q22 0 22 -36v-13q0 -36 -22 -36h-298
q-7 0 -14.5 20.5z" />
    <glyph glyph-name="Aringacute" unicode="&#x1fa;" horiz-adv-x="505" 
d="M223 883q0 7 10 31t30 69q12 26 60 26q18 0 25.5 -3.5t7.5 -12.5q0 -6 -11.5 -23.5t-35.5 -51.5l-22 -30q-15 -17 -42 -17q-22 0 -22 12zM495 16q0 -18 -39 -18h-27q-37 0 -41 17l-38 152h-197l-37 -152q-4 -17 -40 -17h-26q-40 0 -40 18q0 3 2 15l173 649q3 9 8 12
q-28 23 -28 67q0 40 24 65t63 25q40 0 64 -25t24 -65q0 -42 -28 -67q5 -4 7 -12l173 -649q3 -9 3 -15zM220 793q-11 -12 -12 -34q2 -45 44 -45q21 0 32.5 11.5t11.5 33.5t-11.5 34t-32.5 12t-32 -12zM330 257l-64 256q-4 16 -11 65h-5l-4 -24q-2 -17 -8 -41l-63 -256h155z
" />
    <glyph glyph-name="aringacute" unicode="&#x1fb;" horiz-adv-x="481" 
d="M212.5 766.5q-5.5 2.5 -5.5 9.5q0 6 8 23.5t23 47.5l20 41q14 27 63 27q24 0 34.5 -3t10.5 -11q0 -6 -8.5 -19t-28.5 -39q-7 -9 -17.5 -23t-26.5 -36q-7 -10 -19.5 -15t-34.5 -5q-13 0 -18.5 2.5zM176 584.5q-24 24.5 -24 63.5q0 40 24 65t63 25q40 0 64 -25t24 -65
q0 -39 -24 -63.5t-64 -24.5q-39 0 -63 24.5zM271.5 614.5q11.5 11.5 11.5 33.5t-11.5 34t-32.5 12t-32 -12t-12 -34q2 -45 44 -45q21 0 32.5 11.5zM85.5 34q-38.5 41 -38.5 115q0 97 70 140t189 44v38q0 33 -19 53.5t-61 20.5q-31 0 -54.5 -7.5t-42.5 -17t-23 -9.5
q-11 0 -25.5 23t-14.5 35q0 14 23.5 28t61.5 23.5t79 9.5q87 0 132.5 -42t45.5 -116v-216q0 -67 6 -97t6 -34q0 -14 -24.5 -20t-45.5 -6q-15 0 -22 13.5t-14 43.5q-49 -63 -123 -63q-67 0 -105.5 41zM306 131v125q-73 -1 -115.5 -22.5t-42.5 -80.5q0 -72 68 -72q56 0 90 50z
" />
    <glyph glyph-name="AEacute" unicode="&#x1fc;" horiz-adv-x="746" 
d="M361.5 761.5q-5.5 2.5 -5.5 9.5q0 6 8 23.5t23 47.5l20 41q14 27 63 27q24 0 34.5 -3t10.5 -11q0 -6 -8.5 -19t-28.5 -39q-7 -9 -17.5 -23t-26.5 -36q-7 -10 -19.5 -15t-34.5 -5q-13 0 -18.5 2.5zM2 16q0 8 3 17l253 640q6 14 14 20.5t21 6.5h371q22 0 22 -36v-20
q0 -36 -22 -36h-262l29 -204h211q22 0 22 -36v-20q0 -36 -22 -36h-197l32 -220h188q22 0 22 -36v-20q0 -36 -22 -36h-256q-13 0 -19.5 7t-8.5 22l-19 138h-200l-58 -152q-8 -17 -35 -17h-23q-44 0 -44 18zM349 259l-34 246l-1 62h-3l-20 -61l-94 -247h152z" />
    <glyph glyph-name="aeacute" unicode="&#x1fd;" horiz-adv-x="664" 
d="M311.5 584.5q-5.5 2.5 -5.5 9.5q0 6 8 23.5t23 47.5l20 41q14 27 63 27q24 0 34.5 -3t10.5 -11q0 -6 -8.5 -19t-28.5 -39q-7 -9 -17.5 -23t-26.5 -36q-7 -10 -19.5 -15t-34.5 -5q-13 0 -18.5 2.5zM87.5 34.5q-40.5 41.5 -40.5 115.5q0 89 63 132.5t174 45.5q4 39 16 69
q-15 48 -74 48q-30 0 -52 -7t-47 -19q-16 -7 -19 -7q-11 0 -25 22.5t-14 34.5q0 14 23 28.5t60 23.5t78 9q40 0 73 -10.5t54 -30.5q47 41 121 41q178 0 178 -258q0 -11 -14.5 -28.5t-24.5 -17.5h-228q3 -77 28 -112.5t76 -35.5q32 0 54.5 9t38 19.5t18.5 10.5
q11 0 25.5 -22.5t14.5 -35.5q0 -15 -22 -30.5t-58 -25.5t-74 -10q-101 0 -152 59q-24 -27 -61 -43t-80 -16q-69 0 -109.5 41.5zM551 305q0 140 -75 140q-40 0 -62 -34t-26 -106h163zM299 124q-17 49 -19 124q-129 -4 -129 -94q0 -34 15.5 -52.5t45.5 -18.5q54 0 87 41z" />
    <glyph glyph-name="Oslashacute" unicode="&#x1fe;" horiz-adv-x="599" 
d="M271.5 761.5q-5.5 2.5 -5.5 9.5q0 6 8 23.5t23 47.5l20 41q14 27 63 27q24 0 34.5 -3t10.5 -11q0 -6 -8.5 -19t-28.5 -39q-7 -9 -17.5 -23t-26.5 -36q-7 -10 -19.5 -15t-34.5 -5q-13 0 -18.5 2.5zM553 351q0 -358 -254 -358q-101 0 -163 59l-36 -58q-6 -13 -17 -13
q-9 0 -20 8t-11 17t5 15l46 73q-57 89 -57 257q0 356 253 356q96 0 156 -51l33 52q8 12 17 12q10 0 21 -8t11 -17q0 -6 -5 -14l-41 -65q62 -89 62 -265zM172 205l226 360q-33 49 -98 49q-72 0 -107 -62t-35 -201q0 -87 14 -146zM406.5 149q35.5 64 35.5 202q0 98 -18 158
l-229 -364q35 -60 105 -60q71 0 106.5 64z" />
    <glyph glyph-name="oslashacute" unicode="&#x1ff;" horiz-adv-x="477" 
d="M210.5 584.5q-5.5 2.5 -5.5 9.5q0 6 8 23.5t23 47.5l20 41q14 27 63 27q24 0 34.5 -3t10.5 -11q0 -6 -8.5 -19t-28.5 -39q-7 -9 -17.5 -23t-26.5 -36q-7 -10 -19.5 -15t-34.5 -5q-13 0 -18.5 2.5zM434 260q0 -130 -49.5 -198.5t-145.5 -68.5q-78 0 -126 45l-26 -38
q-5 -9 -15 -9q-9 0 -21 9t-12 18q0 5 7 15l34 49q-37 65 -37 178q0 130 50.5 200t145.5 70q73 0 119 -41l25 36q8 9 16 9t20.5 -9t12.5 -17q0 -5 -6 -16l-32 -46q40 -69 40 -186zM154 190l149 218q-22 37 -65 37q-46 0 -67 -44t-21 -140q0 -43 4 -71zM306.5 122
q21.5 44 21.5 139q0 43 -5 81l-152 -220q21 -44 67 -44q47 0 68.5 44z" />
    <glyph glyph-name="Scommaaccent" unicode="&#x218;" horiz-adv-x="437" 
d="M113 6.5q-42 12.5 -71 35.5q-6 6 -9 11.5t-3 14.5q0 21 9 43.5t21 22.5q5 0 11.5 -3.5t10.5 -5.5q50 -37 118 -37q46 0 75.5 26t29.5 74q0 44 -25 69t-75 51q-54 28 -87 52.5t-53.5 62t-20.5 92.5q0 91 57.5 143t149.5 52q35 0 68 -8.5t57 -23.5q10 -6 10 -18
q0 -18 -10 -43t-21 -25q-4 0 -18 6q-40 18 -85 18t-73 -24.5t-28 -67.5q0 -31 13.5 -52.5t35.5 -36.5t64 -38q49 -26 80 -50t50 -60.5t19 -90.5q0 -92 -57.5 -147t-153.5 -55q-47 0 -89 12.5zM157 -232q-10 4 -10 13q0 5 6 27q18 49 18 106q0 35 43 35h13q19 0 28.5 -9
t9.5 -24q0 -40 -15 -75t-35.5 -56t-34.5 -21q-13 0 -23 4z" />
    <glyph glyph-name="scommaaccent" unicode="&#x219;" horiz-adv-x="353" 
d="M97.5 0.5q-31.5 9.5 -51 24.5t-19.5 29t15 37t25 23q3 0 18 -10t32.5 -17.5t39.5 -7.5q32 0 49 16t17 47q0 32 -20 53t-61 42q-51 24 -77.5 57t-26.5 89q0 67 42.5 107t109.5 40q43 0 79.5 -13.5t36.5 -33.5q0 -14 -12.5 -38t-21.5 -24q-2 0 -23 11.5t-48 11.5t-44 -14
t-17 -39q0 -31 19 -50t56 -40q55 -26 82 -61t27 -94q0 -69 -45 -112t-115 -43q-35 0 -66.5 9.5zM115 -232q-10 4 -10 13q0 5 6 27q18 49 18 106q0 35 43 35h13q19 0 28.5 -9t9.5 -24q0 -40 -15 -75t-35.5 -56t-34.5 -21q-13 0 -23 4z" />
    <glyph glyph-name="uni021A" unicode="&#x21a;" horiz-adv-x="454" 
d="M173 23v585h-135q-11 0 -16 8.5t-5 27.5v20q0 19 5 27.5t16 8.5h378q12 0 17 -8.5t5 -27.5v-20q0 -19 -5 -27.5t-17 -8.5h-134v-585q0 -25 -44 -25h-21q-44 0 -44 25zM165 -232q-10 4 -10 13q0 5 6 27q18 49 18 106q0 35 43 35h13q19 0 28.5 -9t9.5 -24q0 -40 -15 -75
t-35.5 -56t-34.5 -21q-13 0 -23 4z" />
    <glyph glyph-name="uni021B" unicode="&#x21b;" horiz-adv-x="298" 
d="M115 23.5q-34 30.5 -34 101.5v313h-26q-12 0 -17.5 8.5t-5.5 27.5v13q0 19 5.5 27.5t17.5 8.5h26l13 102q2 25 38 25h16q36 0 36 -25v-102h58q12 0 17 -8.5t5 -27.5v-13q0 -19 -5 -27.5t-17 -8.5h-58v-305q0 -31 9 -43t26 -12q10 0 19 2.5t13 2.5q10 0 16.5 -21.5
t6.5 -33.5q0 -19 -25 -27t-52 -8q-48 0 -82 30.5zM120 -232q-10 4 -10 13q0 5 6 27q18 49 18 106q0 35 43 35h13q19 0 28.5 -9t9.5 -24q0 -40 -15 -75t-35.5 -56t-34.5 -21q-13 0 -23 4z" />
    <glyph glyph-name="uni0237" unicode="&#x237;" horiz-adv-x="249" 
d="M-16 -176q0 13 6.5 33.5t17.5 20.5q3 0 12 -2.5t22 -2.5q34 0 34 61v566q0 25 46 25h10q46 0 46 -25v-571q0 -76 -34.5 -108.5t-81.5 -32.5q-78 0 -78 36z" />
    <glyph glyph-name="uni0259" unicode="&#x259;" horiz-adv-x="440" 
d="M350 464q53 -66 53 -199q0 -137 -51.5 -204.5t-148.5 -67.5q-90 0 -134.5 67.5t-44.5 196.5q0 10 15 28t24 18h232q-4 75 -29.5 108.5t-77.5 33.5q-33 0 -55 -9t-37.5 -19.5t-18.5 -10.5q-12 0 -26 23t-14 35q0 15 22.5 30.5t58 25.5t71.5 10q108 0 161 -66zM127 226
q0 -76 19 -113t59 -37q43 0 65 36t26 114h-169z" />
    <glyph glyph-name="uni02BC" unicode="&#x2bc;" horiz-adv-x="90" 
d="M-6 540q-10 4 -10 13q0 5 6 27q18 49 18 106q0 35 43 35h13q19 0 28.5 -9t9.5 -24q0 -40 -15 -75t-35.5 -56t-34.5 -21q-13 0 -23 4z" />
    <glyph glyph-name="circumflex" unicode="&#x2c6;" horiz-adv-x="256" 
d="M17 578.5q-5 3.5 -5 8.5q0 4 7 18l54 92q14 21 47 21h11q32 0 46 -21l55 -92q7 -10 7 -17q0 -13 -20 -13h-22q-23 0 -32 15l-40 65l-39 -65q-10 -15 -33 -15h-21q-10 0 -15 3.5z" />
    <glyph glyph-name="caron" unicode="&#x2c7;" horiz-adv-x="256" 
d="M73 601l-54 91q-7 14 -7 18q0 13 20 13h21q23 0 33 -16l39 -64l40 64q9 16 32 16h22q20 0 20 -14q0 -5 -7 -17l-55 -91q-7 -12 -18 -16.5t-27 -4.5h-13q-33 0 -46 21z" />
    <glyph glyph-name="uni02C9" unicode="&#x2c9;" horiz-adv-x="256" 
d="M6 641v11q0 33 22 33h197q12 0 17 -8t5 -25v-11q0 -17 -5 -25t-17 -8h-197q-22 0 -22 33z" />
    <glyph glyph-name="breve" unicode="&#x2d8;" horiz-adv-x="256" 
d="M39.5 613q-33.5 31 -33.5 82q0 20 24 20q10 0 14 -4.5t10 -18.5q8 -18 25 -27.5t48 -9.5q58 0 73 38q5 13 9 17.5t14 4.5q24 0 24 -20q0 -51 -33.5 -82t-86.5 -31q-54 0 -87.5 31z" />
    <glyph glyph-name="dotaccent" unicode="&#x2d9;" horiz-adv-x="256" 
d="M78 624v53q0 25 52 25t52 -25v-53q0 -25 -52 -25t-52 25z" />
    <glyph glyph-name="ring" unicode="&#x2da;" horiz-adv-x="256" 
d="M65 584.5q-24 24.5 -24 63.5q0 40 24 65t63 25q40 0 64 -25t24 -65q0 -39 -24 -63.5t-64 -24.5q-39 0 -63 24.5zM160.5 614.5q11.5 11.5 11.5 33.5t-11.5 34t-32.5 12t-32 -12t-12 -34q2 -45 44 -45q21 0 32.5 11.5z" />
    <glyph glyph-name="ogonek" unicode="&#x2db;" horiz-adv-x="256" 
d="M62 -154q-19 29 -19 61q0 24 9.5 55t31.5 58l45 -16q-11 -21 -17 -42t-6 -37q0 -25 14 -34t35 -9q8 0 20.5 3t15.5 3q23 0 23 -26q0 -19 -14 -28q-27 -17 -64 -17q-55 0 -74 29z" />
    <glyph glyph-name="tilde" unicode="&#x2dc;" horiz-adv-x="292" 
d="M13 592q-14 5 -14 16q0 7 3 14q26 69 85 69q23 0 69 -20q4 -2 23 -9.5t32 -7.5q10 0 17.5 5t16.5 18q10 16 22 16q5 0 12 -3l8 -3q8 -3 11.5 -6.5t3.5 -9.5q0 -4 -4 -14q-27 -69 -85 -69q-15 0 -30.5 5t-39.5 15q-15 7 -30 12t-26 5q-9 0 -16 -5t-16 -19q-10 -14 -21 -14
q-3 0 -11 2z" />
    <glyph glyph-name="hungarumlaut" unicode="&#x2dd;" horiz-adv-x="307" 
d="M13.5 584.5q-5.5 2.5 -5.5 9.5q0 4 4.5 14.5t12.5 26.5l34 71q12 27 63 27q24 0 35 -3t11 -11q0 -6 -7.5 -17t-23.5 -33q-10 -13 -50 -67q-15 -20 -55 -20q-13 0 -18.5 2.5zM152 584.5q-5 2.5 -5 9.5q0 4 4.5 14.5t12.5 26.5l34 71q12 27 63 27q24 0 34.5 -3t10.5 -11
t-12 -25t-69 -92q-7 -10 -19.5 -15t-35.5 -5q-13 0 -18 2.5z" />
    <glyph glyph-name="gravecomb" unicode="&#x300;" horiz-adv-x="0" 
d="M-32 602l-32 42q-34 45 -42 56.5t-8 18.5q0 8 11 11t35 3q50 0 63 -27q24 -50 37 -77.5t13 -34.5t-5 -9.5t-18 -2.5q-41 0 -54 20z" />
    <glyph glyph-name="acutecomb" unicode="&#x301;" horiz-adv-x="0" 
d="M-123.5 584.5q-5.5 2.5 -5.5 9.5q0 6 8 23.5t23 47.5l20 41q14 27 63 27q24 0 34.5 -3t10.5 -11q0 -6 -8.5 -19t-28.5 -39q-7 -9 -17.5 -23t-26.5 -36q-7 -10 -19.5 -15t-34.5 -5q-13 0 -18.5 2.5z" />
    <glyph glyph-name="uni0302" unicode="&#x302;" horiz-adv-x="0" 
d="M-107 578.5q-5 3.5 -5 8.5q0 4 7 18l54 92q14 21 47 21h11q32 0 46 -21l55 -92q7 -10 7 -17q0 -13 -20 -13h-22q-23 0 -32 15l-40 65l-39 -65q-10 -15 -33 -15h-21q-10 0 -15 3.5z" />
    <glyph glyph-name="tildecomb" unicode="&#x303;" horiz-adv-x="0" 
d="M-135 592q-14 5 -14 16q0 7 3 14q26 69 85 69q23 0 69 -20q4 -2 23 -9.5t32 -7.5q10 0 17.5 5t16.5 18q10 16 22 16q5 0 12 -3l8 -3q8 -3 11.5 -6.5t3.5 -9.5q0 -4 -4 -14q-27 -69 -85 -69q-15 0 -30.5 5t-39.5 15q-15 7 -30 12t-26 5q-9 0 -16 -5t-16 -19
q-10 -14 -21 -14q-3 0 -11 2z" />
    <glyph glyph-name="uni0304" unicode="&#x304;" horiz-adv-x="0" 
d="M-122 641v11q0 33 22 33h197q12 0 17 -8t5 -25v-11q0 -17 -5 -25t-17 -8h-197q-22 0 -22 33z" />
    <glyph glyph-name="uni0306" unicode="&#x306;" horiz-adv-x="0" 
d="M-86.5 613q-33.5 31 -33.5 82q0 20 24 20q10 0 14 -4.5t10 -18.5q8 -18 25 -27.5t48 -9.5q58 0 73 38q5 13 9 17.5t14 4.5q24 0 24 -20q0 -51 -33.5 -82t-86.5 -31q-54 0 -87.5 31z" />
    <glyph glyph-name="uni0307" unicode="&#x307;" horiz-adv-x="0" 
d="M-51 624v53q0 25 52 25t52 -25v-53q0 -25 -52 -25t-52 25z" />
    <glyph glyph-name="uni0308" unicode="&#x308;" horiz-adv-x="0" 
d="M-113 624v53q0 25 44 25t44 -25v-53q0 -25 -45 -25q-43 0 -43 25zM23 624v53q0 25 45 25q43 0 43 -25v-53q0 -25 -44 -25t-44 25z" />
    <glyph glyph-name="hookabovecomb" unicode="&#x309;" horiz-adv-x="0" 
d="M-253 571.5q-14 6.5 -14 12.5q0 7 5.5 13t19.5 18q18 14 28 26.5t10 29.5q0 12 -10 18.5t-25 6.5q-20 0 -31.5 -6t-13.5 -6q-6 0 -16 13.5t-10 21.5q0 10 26.5 20.5t52.5 10.5q39 0 68 -18t29 -55q0 -28 -19 -53.5t-42.5 -42t-32.5 -16.5q-11 0 -25 6.5z" />
    <glyph glyph-name="uni030A" unicode="&#x30a;" horiz-adv-x="0" 
d="M-63 584.5q-24 24.5 -24 63.5q0 40 24 65t63 25q40 0 64 -25t24 -65q0 -39 -24 -63.5t-64 -24.5q-39 0 -63 24.5zM32.5 614.5q11.5 11.5 11.5 33.5t-11.5 34t-32.5 12t-32 -12t-12 -34q2 -45 44 -45q21 0 32.5 11.5z" />
    <glyph glyph-name="uni030B" unicode="&#x30b;" horiz-adv-x="0" 
d="M-132.5 584.5q-5.5 2.5 -5.5 9.5q0 4 4.5 14.5t12.5 26.5l34 71q12 27 63 27q24 0 35 -3t11 -11q0 -6 -7.5 -17t-23.5 -33q-10 -13 -50 -67q-15 -20 -55 -20q-13 0 -18.5 2.5zM6 584.5q-5 2.5 -5 9.5q0 4 4.5 14.5t12.5 26.5l34 71q12 27 63 27q24 0 34.5 -3t10.5 -11
t-12 -25t-69 -92q-7 -10 -19.5 -15t-35.5 -5q-13 0 -18 2.5z" />
    <glyph glyph-name="uni030C" unicode="&#x30c;" horiz-adv-x="0" 
d="M-47 601l-54 91q-7 14 -7 18q0 13 20 13h21q23 0 33 -16l39 -64l40 64q9 16 32 16h22q20 0 20 -14q0 -5 -7 -17l-55 -91q-7 -12 -18 -16.5t-27 -4.5h-13q-33 0 -46 21z" />
    <glyph glyph-name="dotbelowcomb" unicode="&#x323;" horiz-adv-x="0" 
d="M-48 -158v53q0 25 52 25t52 -25v-53q0 -25 -52 -25t-52 25z" />
    <glyph glyph-name="uni0326" unicode="&#x326;" horiz-adv-x="0" 
d="M-192 -232q-10 4 -10 13q0 5 6 27q18 49 18 106q0 35 43 35h13q19 0 28.5 -9t9.5 -24q0 -40 -15 -75t-35.5 -56t-34.5 -21q-13 0 -23 4z" />
    <glyph glyph-name="uni0327" unicode="&#x327;" horiz-adv-x="0" 
d="M60.5 -74q21.5 -16 21.5 -52q0 -45 -27 -65t-71 -20q-35 0 -66.5 13.5t-31.5 32.5q0 11 8 21t15 10q6 0 24 -8q26 -13 44 -13q12 0 21.5 6.5t9.5 19.5t-7.5 19t-22.5 11q-12 5 -17 9t-5 11q0 6 5.5 25t18.5 57h48l-17 -59q28 -2 49.5 -18z" />
    <glyph glyph-name="uni0394" unicode="&#x394;" horiz-adv-x="581" 
d="M39 8q-7 8 -7 22v16q0 19 7 39l199 601q7 24 32 24h41q23 0 31 -24l200 -601q6 -26 6 -37v-17q0 -31 -28 -31h-462q-12 0 -19 8zM440 86l-147 490h-8l-147 -490h302z" />
    <glyph glyph-name="uni03A9" unicode="&#x3a9;" horiz-adv-x="599" 
d="M31 36v14q0 36 22 36q15 0 37 -3t31 -5q-75 91 -75 276q0 173 65 263t188 90q124 0 189.5 -90t65.5 -263q0 -184 -77 -276q9 2 31.5 5t37.5 3q12 0 17 -8.5t5 -27.5v-14q0 -19 -5 -27.5t-17 -8.5h-195q-12 0 -17.5 8.5t-5.5 27.5v10q0 10 2 15.5t8 8.5q103 38 103 281
q0 130 -36 196.5t-106 66.5t-106 -66.5t-36 -196.5q0 -243 104 -281q6 -3 7.5 -8t1.5 -16v-10q0 -36 -22 -36h-195q-22 0 -22 36z" />
    <glyph glyph-name="uni03BC" unicode="&#x3bc;" horiz-adv-x="467" 
d="M401.5 59q4.5 -30 4.5 -34q0 -14 -27 -20t-49 -6q-14 0 -19.5 14t-8 31.5l-3.5 24.5q-20 -34 -52.5 -55t-69.5 -21q-6 0 -16 2v-178q0 -12 -10 -18t-33 -6h-17q-44 0 -44 24v683q0 25 44 25h17q43 0 43 -25v-333q0 -86 58 -86q24 0 43 18.5t31 47.5v353q0 25 44 25h17
q43 0 43 -25v-344q0 -67 4.5 -97z" />
    <glyph glyph-name="pi" unicode="&#x3c0;" horiz-adv-x="507" 
d="M66.5 4q-11.5 6 -11.5 16q0 3 2 9q21 80 36.5 196t19.5 213q-34 -1 -52.5 -5.5t-22.5 -4.5q-26 0 -26 49q0 46 124 46h324q26 0 26 -22q0 -10 -4 -38q-1 -14 -7.5 -19.5t-19.5 -5.5h-40v-284q0 -45 5 -103q2 -22 2 -27q0 -12 -10.5 -19t-30.5 -7h-21q-30 0 -38.5 32
t-7.5 108l1 300h-103q-4 -102 -19 -223.5t-35 -190.5q-4 -12 -17 -19t-31 -7h-12q-20 0 -31.5 6z" />
    <glyph glyph-name="uni1E0C" unicode="&#x1e0c;" horiz-adv-x="577" 
d="M79 8q-7 8 -7 25v634q0 17 7 25t23 8h174q252 0 252 -350q0 -183 -65 -266.5t-187 -83.5h-174q-16 0 -23 8zM273 92q69 0 106 61t37 197q0 258 -143 258h-91v-516h91zM225 -158v53q0 25 52 25t52 -25v-53q0 -25 -52 -25t-52 25z" />
    <glyph glyph-name="uni1E0D" unicode="&#x1e0d;" horiz-adv-x="481" 
d="M117 26.5q-35 33.5 -54 94.5t-19 143q0 126 44.5 196t120.5 70q58 0 99 -45v243q0 25 44 25h16q44 0 44 -25v-572q0 -65 5.5 -95.5t5.5 -36.5q0 -12 -27 -18.5t-47 -6.5q-17 0 -23.5 16.5t-11.5 51.5q-21 -36 -50.5 -55t-64.5 -19q-47 0 -82 33.5zM271 96q21 16 37 45
v266q-30 36 -71 36q-44 0 -65.5 -44.5t-21.5 -134.5t19.5 -137t58.5 -47q22 0 43 16zM186 -158v53q0 25 52 25t52 -25v-53q0 -25 -52 -25t-52 25z" />
    <glyph glyph-name="uni1E24" unicode="&#x1e24;" horiz-adv-x="601" 
d="M72 23v654q0 25 44 25h23q42 0 42 -25v-272h237v272q0 25 44 25h21q44 0 44 -25v-654q0 -25 -44 -25h-21q-44 0 -44 25v289h-237v-289q0 -25 -42 -25h-23q-44 0 -44 25zM251 -158v53q0 25 52 25t52 -25v-53q0 -25 -52 -25t-52 25z" />
    <glyph glyph-name="uni1E25" unicode="&#x1e25;" horiz-adv-x="485" 
d="M72 23v705q0 25 44 25h18q43 0 43 -25v-266q22 31 53.5 49.5t69.5 18.5q54 0 88.5 -38t34.5 -114v-355q0 -25 -43 -25h-17q-44 0 -44 25v340q0 79 -62 79q-29 0 -50.5 -19.5t-29.5 -39.5v-360q0 -25 -44 -25h-17q-44 0 -44 25zM196 -158v53q0 25 52 25t52 -25v-53
q0 -25 -52 -25t-52 25z" />
    <glyph glyph-name="uni1E44" unicode="&#x1e44;" horiz-adv-x="590" 
d="M244 801v53q0 25 52 25t52 -25v-53q0 -25 -52 -25t-52 25zM67 23v654q0 25 44 25h24q16 0 26.5 -4.5t16.5 -17.5l217 -412q13 -25 28 -68l5 2q-8 37 -8 70v405q0 25 44 25h15q44 0 44 -25v-654q0 -25 -44 -25h-20q-33 0 -41 19l-225 427q-13 23 -26 63l-5 -2q8 -37 8 -67
v-415q0 -25 -44 -25h-15q-44 0 -44 25z" />
    <glyph glyph-name="uni1E45" unicode="&#x1e45;" 
d="M192 624v53q0 25 52 25t52 -25v-53q0 -25 -52 -25t-52 25zM70 23v343q0 66 -5 96t-5 34q0 13 27.5 19.5t46.5 6.5q16 0 21.5 -12.5t8.5 -30t4 -25.5q23 35 56 55.5t72 20.5q60 0 92 -40t32 -112v-355q0 -25 -43 -25h-17q-45 0 -45 25v340q0 79 -61 79q-24 0 -45 -16
t-35 -43v-360q0 -25 -43 -25h-18q-43 0 -43 25z" />
    <glyph glyph-name="uni1E5A" unicode="&#x1e5a;" horiz-adv-x="513" 
d="M70 23v644q0 33 31 33h154q97 0 147 -43t50 -140q0 -120 -93 -169v-4q21 -11 37 -40t32 -78l62 -195q1 -4 2 -7.5t1 -6.5q0 -19 -46 -19h-22q-17 0 -29 5t-15 14l-58 195q-15 47 -34.5 64t-57.5 17h-52v-270q0 -25 -45 -25h-19q-45 0 -45 25zM266 389q32 0 54.5 32.5
t22.5 80.5q0 54 -22 80t-60 26h-83v-219h88zM207 -158v53q0 25 52 25t52 -25v-53q0 -25 -52 -25t-52 25z" />
    <glyph glyph-name="uni1E5B" unicode="&#x1e5b;" horiz-adv-x="337" 
d="M75 23v343q0 66 -6 96t-6 34q0 14 25 20t46 6q15 0 21.5 -14.5t10 -31t4.5 -22.5q44 76 98 76q27 0 39.5 -12.5t12.5 -31.5q0 -18 -6.5 -41t-15.5 -23q-5 0 -18.5 5t-29.5 5q-24 0 -45 -20t-28 -38v-351q0 -25 -45 -25h-11q-46 0 -46 25zM80 -160v53q0 25 52 25t52 -25
v-53q0 -25 -52 -25t-52 25z" />
    <glyph glyph-name="uni1E62" unicode="&#x1e62;" horiz-adv-x="437" 
d="M113 6.5q-42 12.5 -71 35.5q-6 6 -9 11.5t-3 14.5q0 21 9 43.5t21 22.5q5 0 11.5 -3.5t10.5 -5.5q50 -37 118 -37q46 0 75.5 26t29.5 74q0 44 -25 69t-75 51q-54 28 -87 52.5t-53.5 62t-20.5 92.5q0 91 57.5 143t149.5 52q35 0 68 -8.5t57 -23.5q10 -6 10 -18
q0 -18 -10 -43t-21 -25q-4 0 -18 6q-40 18 -85 18t-73 -24.5t-28 -67.5q0 -31 13.5 -52.5t35.5 -36.5t64 -38q49 -26 80 -50t50 -60.5t19 -90.5q0 -92 -57.5 -147t-153.5 -55q-47 0 -89 12.5zM170 -158v53q0 25 52 25t52 -25v-53q0 -25 -52 -25t-52 25z" />
    <glyph glyph-name="uni1E63" unicode="&#x1e63;" horiz-adv-x="353" 
d="M97.5 0.5q-31.5 9.5 -51 24.5t-19.5 29t15 37t25 23q3 0 18 -10t32.5 -17.5t39.5 -7.5q32 0 49 16t17 47q0 32 -20 53t-61 42q-51 24 -77.5 57t-26.5 89q0 67 42.5 107t109.5 40q43 0 79.5 -13.5t36.5 -33.5q0 -14 -12.5 -38t-21.5 -24q-2 0 -23 11.5t-48 11.5t-44 -14
t-17 -39q0 -31 19 -50t56 -40q55 -26 82 -61t27 -94q0 -69 -45 -112t-115 -43q-35 0 -66.5 9.5zM128 -158v53q0 25 52 25t52 -25v-53q0 -25 -52 -25t-52 25z" />
    <glyph glyph-name="uni1E6C" unicode="&#x1e6c;" horiz-adv-x="454" 
d="M173 23v585h-135q-11 0 -16 8.5t-5 27.5v20q0 19 5 27.5t16 8.5h378q12 0 17 -8.5t5 -27.5v-20q0 -19 -5 -27.5t-17 -8.5h-134v-585q0 -25 -44 -25h-21q-44 0 -44 25zM178 -158v53q0 25 52 25t52 -25v-53q0 -25 -52 -25t-52 25z" />
    <glyph glyph-name="uni1E6D" unicode="&#x1e6d;" horiz-adv-x="298" 
d="M115 23.5q-34 30.5 -34 101.5v313h-26q-12 0 -17.5 8.5t-5.5 27.5v13q0 19 5.5 27.5t17.5 8.5h26l13 102q2 25 38 25h16q36 0 36 -25v-102h58q12 0 17 -8.5t5 -27.5v-13q0 -19 -5 -27.5t-17 -8.5h-58v-305q0 -31 9 -43t26 -12q10 0 19 2.5t13 2.5q10 0 16.5 -21.5
t6.5 -33.5q0 -19 -25 -27t-52 -8q-48 0 -82 30.5zM133 -158v53q0 25 52 25t52 -25v-53q0 -25 -52 -25t-52 25z" />
    <glyph glyph-name="Wgrave" unicode="&#x1e80;" horiz-adv-x="752" 
d="M343 779l-32 42q-34 45 -42 56.5t-8 18.5q0 8 11 11t35 3q50 0 63 -27q24 -50 37 -77.5t13 -34.5t-5 -9.5t-18 -2.5q-41 0 -54 20zM153 15l-136 653l-2 13q0 21 46 21h17q43 0 47 -20l79 -450q4 -21 11 -81l5 -42l21 125l84 450q2 10 11.5 14t27.5 4h29q18 0 27.5 -4
t11.5 -14l84 -452q8 -40 18 -124q1 6 12 74l8 50l77 450q3 20 47 20h14q46 0 46 -21l-2 -13l-138 -653q-3 -17 -39 -17h-48q-35 0 -38 17l-82 402l-15 120l-15 -120l-82 -402q-4 -17 -39 -17h-47q-36 0 -40 17z" />
    <glyph glyph-name="wgrave" unicode="&#x1e81;" horiz-adv-x="616" 
d="M275 602l-32 42q-34 45 -42 56.5t-8 18.5q0 8 11 11t35 3q50 0 63 -27q24 -50 37 -77.5t13 -34.5t-5 -9.5t-18 -2.5q-41 0 -54 20zM123 15l-106 472l-2 18q0 20 46 20q51 0 54 -17l47 -299q5 -33 4 -26q6 -29 13 -81h5q6 48 19 109l56 296q3 18 39 18h21q37 0 41 -18
l56 -296q16 -82 19 -108h5q8 56 17 106l47 299q3 17 52 17q45 0 45 -20l-2 -16l-106 -474q-3 -17 -37 -17h-34q-34 0 -37 17l-61 286q-5 24 -13 86h-4q-5 -40 -13 -86l-62 -286q-4 -17 -37 -17h-34q-35 0 -38 17z" />
    <glyph glyph-name="Wacute" unicode="&#x1e82;" horiz-adv-x="752" 
d="M347.5 761.5q-5.5 2.5 -5.5 9.5q0 6 8 23.5t23 47.5l20 41q14 27 63 27q24 0 34.5 -3t10.5 -11q0 -6 -8.5 -19t-28.5 -39q-7 -9 -17.5 -23t-26.5 -36q-7 -10 -19.5 -15t-34.5 -5q-13 0 -18.5 2.5zM153 15l-136 653l-2 13q0 21 46 21h17q43 0 47 -20l79 -450q4 -21 11 -81
l5 -42l21 125l84 450q2 10 11.5 14t27.5 4h29q18 0 27.5 -4t11.5 -14l84 -452q8 -40 18 -124q1 6 12 74l8 50l77 450q3 20 47 20h14q46 0 46 -21l-2 -13l-138 -653q-3 -17 -39 -17h-48q-35 0 -38 17l-82 402l-15 120l-15 -120l-82 -402q-4 -17 -39 -17h-47q-36 0 -40 17z
" />
    <glyph glyph-name="wacute" unicode="&#x1e83;" horiz-adv-x="616" 
d="M279.5 584.5q-5.5 2.5 -5.5 9.5q0 6 8 23.5t23 47.5l20 41q14 27 63 27q24 0 34.5 -3t10.5 -11q0 -6 -8.5 -19t-28.5 -39q-7 -9 -17.5 -23t-26.5 -36q-7 -10 -19.5 -15t-34.5 -5q-13 0 -18.5 2.5zM123 15l-106 472l-2 18q0 20 46 20q51 0 54 -17l47 -299q5 -33 4 -26
q6 -29 13 -81h5q6 48 19 109l56 296q3 18 39 18h21q37 0 41 -18l56 -296q16 -82 19 -108h5q8 56 17 106l47 299q3 17 52 17q45 0 45 -20l-2 -16l-106 -474q-3 -17 -37 -17h-34q-34 0 -37 17l-61 286q-5 24 -13 86h-4q-5 -40 -13 -86l-62 -286q-4 -17 -37 -17h-34
q-35 0 -38 17z" />
    <glyph glyph-name="Wdieresis" unicode="&#x1e84;" horiz-adv-x="752" 
d="M265 801v53q0 25 44 25t44 -25v-53q0 -25 -45 -25q-43 0 -43 25zM401 801v53q0 25 45 25q43 0 43 -25v-53q0 -25 -44 -25t-44 25zM153 15l-136 653l-2 13q0 21 46 21h17q43 0 47 -20l79 -450q4 -21 11 -81l5 -42l21 125l84 450q2 10 11.5 14t27.5 4h29q18 0 27.5 -4
t11.5 -14l84 -452q8 -40 18 -124q1 6 12 74l8 50l77 450q3 20 47 20h14q46 0 46 -21l-2 -13l-138 -653q-3 -17 -39 -17h-48q-35 0 -38 17l-82 402l-15 120l-15 -120l-82 -402q-4 -17 -39 -17h-47q-36 0 -40 17z" />
    <glyph glyph-name="wdieresis" unicode="&#x1e85;" horiz-adv-x="616" 
d="M197 624v53q0 25 44 25t44 -25v-53q0 -25 -45 -25q-43 0 -43 25zM333 624v53q0 25 45 25q43 0 43 -25v-53q0 -25 -44 -25t-44 25zM123 15l-106 472l-2 18q0 20 46 20q51 0 54 -17l47 -299q5 -33 4 -26q6 -29 13 -81h5q6 48 19 109l56 296q3 18 39 18h21q37 0 41 -18
l56 -296q16 -82 19 -108h5q8 56 17 106l47 299q3 17 52 17q45 0 45 -20l-2 -16l-106 -474q-3 -17 -37 -17h-34q-34 0 -37 17l-61 286q-5 24 -13 86h-4q-5 -40 -13 -86l-62 -286q-4 -17 -37 -17h-34q-35 0 -38 17z" />
    <glyph glyph-name="uni1E92" unicode="&#x1e92;" horiz-adv-x="507" 
d="M40.5 22.5q-9.5 22.5 -9.5 40.5q0 6 2 12l301 533h-257q-11 0 -16 9.5t-5 29.5v14q0 21 5 30t16 9h365q9 0 18 -23t9 -41q0 -8 -1 -11l-300 -533h279q22 0 22 -39v-14q0 -21 -5.5 -30t-16.5 -9h-388q-9 0 -18.5 22.5zM210 -158v53q0 25 52 25t52 -25v-53q0 -25 -52 -25
t-52 25z" />
    <glyph glyph-name="uni1E93" unicode="&#x1e93;" horiz-adv-x="405" 
d="M38.5 20.5q-7.5 20.5 -7.5 37.5q0 6 2 12l210 368h-176q-22 0 -22 36v13q0 36 22 36h283q6 0 13 -21.5t7 -37.5q0 -6 -2 -12l-209 -367h192q22 0 22 -36v-13q0 -36 -22 -36h-298q-7 0 -14.5 20.5zM151 -158v53q0 25 52 25t52 -25v-53q0 -25 -52 -25t-52 25z" />
    <glyph glyph-name="uni1E9E" unicode="&#x1e9e;" horiz-adv-x="593" 
d="M298 2q-33 9 -54 23t-21 29q0 14 14 35.5t25 21.5q9 0 27 -11q16 -10 31 -16t35 -6q40 0 69 30.5t29 98.5q0 121 -104 121h-29q-9 0 -19 23t-10 40q0 8 3 12l113 197q-45 14 -101 14q-68 0 -99 -41t-31 -131v-419q0 -25 -46 -25h-16q-46 0 -46 25v420q0 131 58.5 197
t173.5 66q98 0 203 -30q7 -1 16.5 -24t9.5 -40q0 -5 -2 -11l-110 -190q64 -18 103 -68t39 -138q0 -72 -27.5 -119.5t-72 -70t-95.5 -22.5q-33 0 -66 9z" />
    <glyph glyph-name="uni1EA0" unicode="&#x1ea0;" horiz-adv-x="505" 
d="M10 16q0 3 2 15l173 649q7 22 46 22h42q42 0 46 -22l173 -649q3 -9 3 -15q0 -18 -39 -18h-27q-37 0 -41 17l-38 152h-197l-37 -152q-4 -17 -40 -17h-26q-40 0 -40 18zM330 257l-64 256q-4 16 -11 65h-5l-4 -24q-2 -17 -8 -41l-63 -256h155zM205 -158v53q0 25 52 25
t52 -25v-53q0 -25 -52 -25t-52 25z" />
    <glyph glyph-name="uni1EA1" unicode="&#x1ea1;" horiz-adv-x="481" 
d="M85.5 34q-38.5 41 -38.5 115q0 97 70 140t189 44v38q0 33 -19 53.5t-61 20.5q-31 0 -54.5 -7.5t-42.5 -17t-23 -9.5q-11 0 -25.5 23t-14.5 35q0 14 23.5 28t61.5 23.5t79 9.5q87 0 132.5 -42t45.5 -116v-216q0 -67 6 -97t6 -34q0 -14 -24.5 -20t-45.5 -6q-15 0 -22 13.5
t-14 43.5q-49 -63 -123 -63q-67 0 -105.5 41zM306 131v125q-73 -1 -115.5 -22.5t-42.5 -80.5q0 -72 68 -72q56 0 90 50zM185 -158v53q0 25 52 25t52 -25v-53q0 -25 -52 -25t-52 25z" />
    <glyph glyph-name="uni1EA2" unicode="&#x1ea2;" horiz-adv-x="505" 
d="M10 16q0 3 2 15l173 649q7 22 46 22h42q42 0 46 -22l173 -649q3 -9 3 -15q0 -18 -39 -18h-27q-37 0 -41 17l-38 152h-197l-37 -152q-4 -17 -40 -17h-26q-40 0 -40 18zM330 257l-64 256q-4 16 -11 65h-5l-4 -24q-2 -17 -8 -41l-63 -256h155zM240 748.5q-14 6.5 -14 12.5
q0 7 5.5 13t19.5 18q18 14 28 26.5t10 29.5q0 12 -10 18.5t-25 6.5q-20 0 -31.5 -6t-13.5 -6q-6 0 -16 13.5t-10 21.5q0 10 26.5 20.5t52.5 10.5q39 0 68 -18t29 -55q0 -28 -19 -53.5t-42.5 -42t-32.5 -16.5q-11 0 -25 6.5z" />
    <glyph glyph-name="uni1EA3" unicode="&#x1ea3;" horiz-adv-x="481" 
d="M85.5 34q-38.5 41 -38.5 115q0 97 70 140t189 44v38q0 33 -19 53.5t-61 20.5q-31 0 -54.5 -7.5t-42.5 -17t-23 -9.5q-11 0 -25.5 23t-14.5 35q0 14 23.5 28t61.5 23.5t79 9.5q87 0 132.5 -42t45.5 -116v-216q0 -67 6 -97t6 -34q0 -14 -24.5 -20t-45.5 -6q-15 0 -22 13.5
t-14 43.5q-49 -63 -123 -63q-67 0 -105.5 41zM306 131v125q-73 -1 -115.5 -22.5t-42.5 -80.5q0 -72 68 -72q56 0 90 50zM228 571.5q-14 6.5 -14 12.5q0 7 5.5 13t19.5 18q18 14 28 26.5t10 29.5q0 12 -10 18.5t-25 6.5q-20 0 -31.5 -6t-13.5 -6q-6 0 -16 13.5t-10 21.5
q0 10 26.5 20.5t52.5 10.5q39 0 68 -18t29 -55q0 -28 -19 -53.5t-42.5 -42t-32.5 -16.5q-11 0 -25 6.5z" />
    <glyph glyph-name="uni1EA4" unicode="&#x1ea4;" horiz-adv-x="491" 
d="M328 852.5q-5 2.5 -5 9.5t10 31t30 68q12 27 60 27q18 0 25.5 -3.5t7.5 -12.5q0 -7 -10.5 -23t-58.5 -82q-7 -9 -16.5 -13t-25.5 -4q-12 0 -17 2.5zM138 764q0 8 5 18l50 92q12 21 46 21h12q17 0 28.5 -4.5t17.5 -16.5l50 -92q6 -12 6 -17q0 -6 -5.5 -9.5t-14.5 -3.5h-21
q-25 0 -33 14l-34 66l-34 -65q-4 -9 -12 -12t-20 -3h-21q-20 0 -20 12zM10 16q0 3 2 15l173 649q7 22 46 22h42q42 0 46 -22l173 -649q3 -9 3 -15q0 -18 -39 -18h-27q-37 0 -41 17l-38 152h-197l-37 -152q-4 -17 -40 -17h-26q-40 0 -40 18zM330 257l-64 256q-4 16 -11 65h-5
l-4 -24q-2 -17 -8 -41l-63 -256h155z" />
    <glyph glyph-name="uni1EA5" unicode="&#x1ea5;" horiz-adv-x="445" 
d="M304.5 720.5q-5.5 2.5 -5.5 9.5q0 6 8 23.5t23 47.5l20 41q14 27 63 27q24 0 34.5 -3t10.5 -11q0 -6 -8.5 -19t-28.5 -39q-7 -9 -17.5 -23t-26.5 -36q-7 -10 -19.5 -15t-34.5 -5q-13 0 -18.5 2.5zM114 587q0 8 5 18l50 92q12 21 46 21h12q17 0 28 -4.5t17 -16.5l50 -92
q7 -10 7 -17q0 -6 -5.5 -9.5t-14.5 -3.5h-22q-25 0 -32 14l-34 66l-34 -65q-5 -10 -12.5 -12.5t-20.5 -2.5h-20q-20 0 -20 12zM85.5 34q-38.5 41 -38.5 115q0 97 70 140t189 44v38q0 33 -19 53.5t-61 20.5q-31 0 -54.5 -7.5t-42.5 -17t-23 -9.5q-11 0 -25.5 23t-14.5 35
q0 14 23.5 28t61.5 23.5t79 9.5q87 0 132.5 -42t45.5 -116v-216q0 -67 6 -97t6 -34q0 -14 -24.5 -20t-45.5 -6q-15 0 -22 13.5t-14 43.5q-49 -63 -123 -63q-67 0 -105.5 41zM306 131v125q-73 -1 -115.5 -22.5t-42.5 -80.5q0 -72 68 -72q56 0 90 50z" />
    <glyph glyph-name="uni1EA6" unicode="&#x1ea6;" horiz-adv-x="491" 
d="M341 868l-17 25q-26 38 -37.5 56t-11.5 24q0 8 8 11.5t27 3.5q49 0 60 -27q19 -44 28 -68t9 -31t-5.5 -9.5t-17.5 -2.5q-30 0 -43 18zM138 764q0 8 5 18l50 92q12 21 46 21h12q17 0 28.5 -4.5t17.5 -16.5l50 -92q6 -12 6 -17q0 -6 -5.5 -9.5t-14.5 -3.5h-21q-25 0 -33 14
l-34 66l-34 -65q-4 -9 -12 -12t-20 -3h-21q-20 0 -20 12zM10 16q0 3 2 15l173 649q7 22 46 22h42q42 0 46 -22l173 -649q3 -9 3 -15q0 -18 -39 -18h-27q-37 0 -41 17l-38 152h-197l-37 -152q-4 -17 -40 -17h-26q-40 0 -40 18zM330 257l-64 256q-4 16 -11 65h-5l-4 -24
q-2 -17 -8 -41l-63 -256h155z" />
    <glyph glyph-name="uni1EA7" unicode="&#x1ea7;" horiz-adv-x="445" 
d="M301 738l-32 42q-34 45 -42 56.5t-8 18.5q0 8 11 11t35 3q50 0 63 -27q24 -50 37 -77.5t13 -34.5t-5 -9.5t-18 -2.5q-41 0 -54 20zM114 587q0 8 5 18l50 92q12 21 46 21h12q17 0 28 -4.5t17 -16.5l50 -92q7 -10 7 -17q0 -6 -5.5 -9.5t-14.5 -3.5h-22q-25 0 -32 14l-34 66
l-34 -65q-5 -10 -12.5 -12.5t-20.5 -2.5h-20q-20 0 -20 12zM85.5 34q-38.5 41 -38.5 115q0 97 70 140t189 44v38q0 33 -19 53.5t-61 20.5q-31 0 -54.5 -7.5t-42.5 -17t-23 -9.5q-11 0 -25.5 23t-14.5 35q0 14 23.5 28t61.5 23.5t79 9.5q87 0 132.5 -42t45.5 -116v-216
q0 -67 6 -97t6 -34q0 -14 -24.5 -20t-45.5 -6q-15 0 -22 13.5t-14 43.5q-49 -63 -123 -63q-67 0 -105.5 41zM306 131v125q-73 -1 -115.5 -22.5t-42.5 -80.5q0 -72 68 -72q56 0 90 50z" />
    <glyph glyph-name="uni1EA8" unicode="&#x1ea8;" horiz-adv-x="491" 
d="M332 863.5q-11 6.5 -11 14.5q0 5 6.5 10t16.5 10q31 16 31 34q0 12 -9.5 18.5t-22.5 6.5q-22 0 -34 -7.5t-14 -7.5q-6 0 -16 14t-10 22q0 10 26 19t52 9q35 0 61.5 -17t26.5 -50t-32 -60q-11 -8 -24 -15t-19 -7q-17 0 -28 6.5zM138 764q0 8 5 18l50 92q12 21 46 21h12
q17 0 28.5 -4.5t17.5 -16.5l50 -92q6 -12 6 -17q0 -6 -5.5 -9.5t-14.5 -3.5h-21q-25 0 -33 14l-34 66l-34 -65q-4 -9 -12 -12t-20 -3h-21q-20 0 -20 12zM10 16q0 3 2 15l173 649q7 22 46 22h42q42 0 46 -22l173 -649q3 -9 3 -15q0 -18 -39 -18h-27q-37 0 -41 17l-38 152
h-197l-37 -152q-4 -17 -40 -17h-26q-40 0 -40 18zM330 257l-64 256q-4 16 -11 65h-5l-4 -24q-2 -17 -8 -41l-63 -256h155z" />
    <glyph glyph-name="uni1EA9" unicode="&#x1ea9;" horiz-adv-x="445" 
d="M320 707.5q-14 6.5 -14 12.5q0 7 5.5 13t19.5 18q18 14 28 26.5t10 29.5q0 12 -10 18.5t-25 6.5q-20 0 -31.5 -6t-13.5 -6q-6 0 -16 13.5t-10 21.5q0 10 26.5 20.5t52.5 10.5q39 0 68 -18t29 -55q0 -28 -19 -53.5t-42.5 -42t-32.5 -16.5q-11 0 -25 6.5zM114 587q0 8 5 18
l50 92q12 21 46 21h12q17 0 28 -4.5t17 -16.5l50 -92q7 -10 7 -17q0 -6 -5.5 -9.5t-14.5 -3.5h-22q-25 0 -32 14l-34 66l-34 -65q-5 -10 -12.5 -12.5t-20.5 -2.5h-20q-20 0 -20 12zM85.5 34q-38.5 41 -38.5 115q0 97 70 140t189 44v38q0 33 -19 53.5t-61 20.5
q-31 0 -54.5 -7.5t-42.5 -17t-23 -9.5q-11 0 -25.5 23t-14.5 35q0 14 23.5 28t61.5 23.5t79 9.5q87 0 132.5 -42t45.5 -116v-216q0 -67 6 -97t6 -34q0 -14 -24.5 -20t-45.5 -6q-15 0 -22 13.5t-14 43.5q-49 -63 -123 -63q-67 0 -105.5 41zM306 131v125q-73 -1 -115.5 -22.5
t-42.5 -80.5q0 -72 68 -72q56 0 90 50z" />
    <glyph glyph-name="uni1EAA" unicode="&#x1eaa;" horiz-adv-x="491" 
d="M122 901q-6 2 -9 6.5t-3 9.5t3 14q25 69 77 69q20 0 62 -20q36 -17 51 -17q10 0 16.5 4.5t14.5 18.5q9 16 20 16q5 0 11 -3l7 -3q14 -6 14 -16q0 -5 -1 -8l-2 -6q-25 -69 -77 -69q-11 0 -26.5 5t-24.5 9t-14 6q-14 7 -27.5 12t-22.5 5t-15.5 -5t-14.5 -19
q-6 -8 -9.5 -11.5t-9.5 -3.5q-2 0 -10 2zM138 765q0 3 8 19l47 68q9 11 19.5 16t27.5 5h12q31 0 46 -21l48 -68q7 -11 7 -19q0 -13 -19 -13h-22q-21 0 -33 14l-34 53l-32 -52q-6 -8 -13.5 -11.5t-20.5 -3.5h-21q-20 0 -20 13zM10 16q0 3 2 15l173 649q7 22 46 22h42
q42 0 46 -22l173 -649q3 -9 3 -15q0 -18 -39 -18h-27q-37 0 -41 17l-38 152h-197l-37 -152q-4 -17 -40 -17h-26q-40 0 -40 18zM330 257l-64 256q-4 16 -11 65h-5l-4 -24q-2 -17 -8 -41l-63 -256h155z" />
    <glyph glyph-name="uni1EAB" unicode="&#x1eab;" horiz-adv-x="445" 
d="M109 752q-12 5 -12 16q0 7 3 14q25 69 77 69q21 0 63 -20q34 -17 49 -17q9 0 16 5t16 18q9 16 20 16q5 0 11 -3l7 -3q7 -3 10 -6.5t3 -9.5t-3 -14q-25 -69 -77 -69q-22 0 -64 20q-36 17 -51 17q-9 0 -15.5 -5t-13.5 -19q-10 -14 -19 -14q-3 0 -11 2zM114 588q0 6 8 19
l47 68q9 11 19.5 16t27.5 5h12q31 0 47 -21l46 -68q8 -13 8 -19q0 -13 -19 -13h-22q-12 0 -19.5 3.5t-13.5 10.5l-33 53l-34 -52q-11 -15 -33 -15h-21q-20 0 -20 13zM85.5 34q-38.5 41 -38.5 115q0 97 70 140t189 44v38q0 33 -19 53.5t-61 20.5q-31 0 -54.5 -7.5t-42.5 -17
t-23 -9.5q-11 0 -25.5 23t-14.5 35q0 14 23.5 28t61.5 23.5t79 9.5q87 0 132.5 -42t45.5 -116v-216q0 -67 6 -97t6 -34q0 -14 -24.5 -20t-45.5 -6q-15 0 -22 13.5t-14 43.5q-49 -63 -123 -63q-67 0 -105.5 41zM306 131v125q-73 -1 -115.5 -22.5t-42.5 -80.5q0 -72 68 -72
q56 0 90 50z" />
    <glyph glyph-name="uni1EAC" unicode="&#x1eac;" horiz-adv-x="505" 
d="M144 755.5q-5 3.5 -5 8.5q0 4 7 18l54 92q14 21 47 21h11q32 0 46 -21l55 -92q7 -10 7 -17q0 -13 -20 -13h-22q-23 0 -32 15l-40 65l-39 -65q-10 -15 -33 -15h-21q-10 0 -15 3.5zM10 16q0 3 2 15l173 649q7 22 46 22h42q42 0 46 -22l173 -649q3 -9 3 -15q0 -18 -39 -18
h-27q-37 0 -41 17l-38 152h-197l-37 -152q-4 -17 -40 -17h-26q-40 0 -40 18zM330 257l-64 256q-4 16 -11 65h-5l-4 -24q-2 -17 -8 -41l-63 -256h155zM205 -158v53q0 25 52 25t52 -25v-53q0 -25 -52 -25t-52 25z" />
    <glyph glyph-name="uni1EAD" unicode="&#x1ead;" horiz-adv-x="481" 
d="M132 578.5q-5 3.5 -5 8.5q0 4 7 18l54 92q14 21 47 21h11q32 0 46 -21l55 -92q7 -10 7 -17q0 -13 -20 -13h-22q-23 0 -32 15l-40 65l-39 -65q-10 -15 -33 -15h-21q-10 0 -15 3.5zM85.5 34q-38.5 41 -38.5 115q0 97 70 140t189 44v38q0 33 -19 53.5t-61 20.5
q-31 0 -54.5 -7.5t-42.5 -17t-23 -9.5q-11 0 -25.5 23t-14.5 35q0 14 23.5 28t61.5 23.5t79 9.5q87 0 132.5 -42t45.5 -116v-216q0 -67 6 -97t6 -34q0 -14 -24.5 -20t-45.5 -6q-15 0 -22 13.5t-14 43.5q-49 -63 -123 -63q-67 0 -105.5 41zM306 131v125q-73 -1 -115.5 -22.5
t-42.5 -80.5q0 -72 68 -72q56 0 90 50zM185 -158v53q0 25 52 25t52 -25v-53q0 -25 -52 -25t-52 25z" />
    <glyph glyph-name="uni1EAE" unicode="&#x1eae;" horiz-adv-x="491" 
d="M216 853.5q-5 2.5 -5 9.5t10 31t30 68q12 27 60 27q18 0 25.5 -3.5t7.5 -12.5q0 -7 -10.5 -23t-58.5 -82q-7 -9 -16.5 -13t-25.5 -4q-12 0 -17 2.5zM158.5 786q-33.5 27 -33.5 68q0 14 5.5 19.5t17.5 5.5q10 0 14.5 -5t10.5 -18q8 -15 25.5 -27t47.5 -12q31 0 48.5 12
t24.5 28q5 12 9.5 17t14.5 5q23 0 23 -25q0 -40 -33.5 -67.5t-86.5 -27.5q-54 0 -87.5 27zM10 16q0 3 2 15l173 649q7 22 46 22h42q42 0 46 -22l173 -649q3 -9 3 -15q0 -18 -39 -18h-27q-37 0 -41 17l-38 152h-197l-37 -152q-4 -17 -40 -17h-26q-40 0 -40 18zM330 257
l-64 256q-4 16 -11 65h-5l-4 -24q-2 -17 -8 -41l-63 -256h155z" />
    <glyph glyph-name="uni1EAF" unicode="&#x1eaf;" horiz-adv-x="481" 
d="M211.5 761.5q-5.5 2.5 -5.5 9.5q0 6 8 23.5t23 47.5l20 41q14 27 63 27q24 0 34.5 -3t10.5 -11q0 -6 -8.5 -19t-28.5 -39q-7 -9 -17.5 -23t-26.5 -36q-7 -10 -19.5 -15t-34.5 -5q-13 0 -18.5 2.5zM153.5 613q-33.5 31 -33.5 82q0 20 24 20q10 0 14 -4.5t10 -18.5
q8 -18 25 -27.5t48 -9.5q58 0 73 38q5 13 9 17.5t14 4.5q24 0 24 -20q0 -51 -33.5 -82t-86.5 -31q-54 0 -87.5 31zM85.5 34q-38.5 41 -38.5 115q0 97 70 140t189 44v38q0 33 -19 53.5t-61 20.5q-31 0 -54.5 -7.5t-42.5 -17t-23 -9.5q-11 0 -25.5 23t-14.5 35q0 14 23.5 28
t61.5 23.5t79 9.5q87 0 132.5 -42t45.5 -116v-216q0 -67 6 -97t6 -34q0 -14 -24.5 -20t-45.5 -6q-15 0 -22 13.5t-14 43.5q-49 -63 -123 -63q-67 0 -105.5 41zM306 131v125q-73 -1 -115.5 -22.5t-42.5 -80.5q0 -72 68 -72q56 0 90 50z" />
    <glyph glyph-name="uni1EB0" unicode="&#x1eb0;" horiz-adv-x="491" 
d="M225 869l-30 44q-20 28 -28.5 41.5t-8.5 19.5q0 8 8 11.5t28 3.5q48 0 60 -27q37 -86 37 -99q0 -7 -5.5 -9.5t-18.5 -2.5q-29 0 -42 18zM158.5 786q-33.5 27 -33.5 68q0 14 5.5 19.5t17.5 5.5q10 0 14.5 -5t10.5 -18q8 -15 25.5 -27t47.5 -12q31 0 48.5 12t24.5 28
q5 12 9.5 17t14.5 5q23 0 23 -25q0 -40 -33.5 -67.5t-86.5 -27.5q-54 0 -87.5 27zM10 16q0 3 2 15l173 649q7 22 46 22h42q42 0 46 -22l173 -649q3 -9 3 -15q0 -18 -39 -18h-27q-37 0 -41 17l-38 152h-197l-37 -152q-4 -17 -40 -17h-26q-40 0 -40 18zM330 257l-64 256
q-4 16 -11 65h-5l-4 -24q-2 -17 -8 -41l-63 -256h155z" />
    <glyph glyph-name="uni1EB1" unicode="&#x1eb1;" horiz-adv-x="481" 
d="M208 779l-32 42q-34 45 -42 56.5t-8 18.5q0 8 11 11t35 3q50 0 63 -27q24 -50 37 -77.5t13 -34.5t-5 -9.5t-18 -2.5q-41 0 -54 20zM153.5 613q-33.5 31 -33.5 82q0 20 24 20q10 0 14 -4.5t10 -18.5q8 -18 25 -27.5t48 -9.5q58 0 73 38q5 13 9 17.5t14 4.5q24 0 24 -20
q0 -51 -33.5 -82t-86.5 -31q-54 0 -87.5 31zM85.5 34q-38.5 41 -38.5 115q0 97 70 140t189 44v38q0 33 -19 53.5t-61 20.5q-31 0 -54.5 -7.5t-42.5 -17t-23 -9.5q-11 0 -25.5 23t-14.5 35q0 14 23.5 28t61.5 23.5t79 9.5q87 0 132.5 -42t45.5 -116v-216q0 -67 6 -97t6 -34
q0 -14 -24.5 -20t-45.5 -6q-15 0 -22 13.5t-14 43.5q-49 -63 -123 -63q-67 0 -105.5 41zM306 131v125q-73 -1 -115.5 -22.5t-42.5 -80.5q0 -72 68 -72q56 0 90 50z" />
    <glyph glyph-name="uni1EB2" unicode="&#x1eb2;" horiz-adv-x="491" 
d="M220 864.5q-11 6.5 -11 14.5q0 5 6.5 10t16.5 10q31 16 31 34q0 12 -9.5 18.5t-22.5 6.5q-22 0 -34 -7.5t-14 -7.5q-6 0 -16 14t-10 22q0 10 26 19t53 9q34 0 61 -17t27 -50q0 -32 -33 -60q-11 -8 -24 -15t-19 -7q-17 0 -28 6.5zM158.5 786q-33.5 27 -33.5 68
q0 14 5.5 19.5t17.5 5.5q10 0 14.5 -5t10.5 -18q8 -15 25.5 -27t47.5 -12q31 0 48.5 12t24.5 28q5 12 9.5 17t14.5 5q23 0 23 -25q0 -40 -33.5 -67.5t-86.5 -27.5q-54 0 -87.5 27zM10 16q0 3 2 15l173 649q7 22 46 22h42q42 0 46 -22l173 -649q3 -9 3 -15q0 -18 -39 -18h-27
q-37 0 -41 17l-38 152h-197l-37 -152q-4 -17 -40 -17h-26q-40 0 -40 18zM330 257l-64 256q-4 16 -11 65h-5l-4 -24q-2 -17 -8 -41l-63 -256h155z" />
    <glyph glyph-name="uni1EB3" unicode="&#x1eb3;" horiz-adv-x="481" 
d="M227 748.5q-14 6.5 -14 12.5q0 7 5.5 13t19.5 18q18 14 28 26.5t10 29.5q0 12 -10 18.5t-25 6.5q-20 0 -31.5 -6t-13.5 -6q-6 0 -16 13.5t-10 21.5q0 10 26.5 20.5t52.5 10.5q39 0 68 -18t29 -55q0 -28 -19 -53.5t-42.5 -42t-32.5 -16.5q-11 0 -25 6.5zM153.5 613
q-33.5 31 -33.5 82q0 20 24 20q10 0 14 -4.5t10 -18.5q8 -18 25 -27.5t48 -9.5q58 0 73 38q5 13 9 17.5t14 4.5q24 0 24 -20q0 -51 -33.5 -82t-86.5 -31q-54 0 -87.5 31zM85.5 34q-38.5 41 -38.5 115q0 97 70 140t189 44v38q0 33 -19 53.5t-61 20.5q-31 0 -54.5 -7.5
t-42.5 -17t-23 -9.5q-11 0 -25.5 23t-14.5 35q0 14 23.5 28t61.5 23.5t79 9.5q87 0 132.5 -42t45.5 -116v-216q0 -67 6 -97t6 -34q0 -14 -24.5 -20t-45.5 -6q-15 0 -22 13.5t-14 43.5q-49 -63 -123 -63q-67 0 -105.5 41zM306 131v125q-73 -1 -115.5 -22.5t-42.5 -80.5
q0 -72 68 -72q56 0 90 50z" />
    <glyph glyph-name="uni1EB4" unicode="&#x1eb4;" horiz-adv-x="491" 
d="M123 911q-12 5 -12 16q0 7 3 14q23 69 77 69q13 0 27 -5t36 -15q3 -1 20.5 -9t29.5 -8q9 0 16 5t15 18q9 16 20 16q4 0 10 -3l7 -3q8 -3 11 -6.5t3 -9.5t-3 -14q-25 -69 -77 -69q-12 0 -25 4.5t-24.5 9.5t-14.5 6q-14 7 -27.5 12t-22.5 5t-15.5 -5t-15.5 -19
q-8 -14 -18 -14q-3 0 -11 2zM158.5 773q-33.5 27 -33.5 68q0 14 5.5 19.5t17.5 5.5q10 0 14.5 -5t10.5 -18q8 -15 25.5 -27t47.5 -12q31 0 48.5 12t24.5 28q5 12 9.5 17t14.5 5q11 0 17 -5.5t6 -19.5q0 -40 -33.5 -67.5t-86.5 -27.5q-54 0 -87.5 27zM10 16q0 3 2 15l173 649
q7 22 46 22h42q42 0 46 -22l173 -649q3 -9 3 -15q0 -18 -39 -18h-27q-37 0 -41 17l-38 152h-197l-37 -152q-4 -17 -40 -17h-26q-40 0 -40 18zM330 257l-64 256q-4 16 -11 65h-5l-4 -24q-2 -17 -8 -41l-63 -256h155z" />
    <glyph glyph-name="uni1EB5" unicode="&#x1eb5;" horiz-adv-x="481" 
d="M103 769q-14 5 -14 16q0 7 3 14q26 69 85 69q23 0 69 -20q4 -2 23 -9.5t32 -7.5q10 0 17.5 5t16.5 18q10 16 22 16q5 0 12 -3l8 -3q8 -3 11.5 -6.5t3.5 -9.5q0 -4 -4 -14q-27 -69 -85 -69q-15 0 -30.5 5t-39.5 15q-15 7 -30 12t-26 5q-9 0 -16 -5t-16 -19
q-10 -14 -21 -14q-3 0 -11 2zM153.5 613q-33.5 31 -33.5 82q0 20 24 20q10 0 14 -4.5t10 -18.5q8 -18 25 -27.5t48 -9.5q58 0 73 38q5 13 9 17.5t14 4.5q24 0 24 -20q0 -51 -33.5 -82t-86.5 -31q-54 0 -87.5 31zM85.5 34q-38.5 41 -38.5 115q0 97 70 140t189 44v38
q0 33 -19 53.5t-61 20.5q-31 0 -54.5 -7.5t-42.5 -17t-23 -9.5q-11 0 -25.5 23t-14.5 35q0 14 23.5 28t61.5 23.5t79 9.5q87 0 132.5 -42t45.5 -116v-216q0 -67 6 -97t6 -34q0 -14 -24.5 -20t-45.5 -6q-15 0 -22 13.5t-14 43.5q-49 -63 -123 -63q-67 0 -105.5 41zM306 131
v125q-73 -1 -115.5 -22.5t-42.5 -80.5q0 -72 68 -72q56 0 90 50z" />
    <glyph glyph-name="uni1EB6" unicode="&#x1eb6;" horiz-adv-x="505" 
d="M165.5 790q-33.5 31 -33.5 82q0 20 24 20q10 0 14 -4.5t10 -18.5q8 -18 25 -27.5t48 -9.5q58 0 73 38q5 13 9 17.5t14 4.5q24 0 24 -20q0 -51 -33.5 -82t-86.5 -31q-54 0 -87.5 31zM10 16q0 3 2 15l173 649q7 22 46 22h42q42 0 46 -22l173 -649q3 -9 3 -15q0 -18 -39 -18
h-27q-37 0 -41 17l-38 152h-197l-37 -152q-4 -17 -40 -17h-26q-40 0 -40 18zM330 257l-64 256q-4 16 -11 65h-5l-4 -24q-2 -17 -8 -41l-63 -256h155zM205 -158v53q0 25 52 25t52 -25v-53q0 -25 -52 -25t-52 25z" />
    <glyph glyph-name="uni1EB7" unicode="&#x1eb7;" horiz-adv-x="481" 
d="M153.5 613q-33.5 31 -33.5 82q0 20 24 20q10 0 14 -4.5t10 -18.5q8 -18 25 -27.5t48 -9.5q58 0 73 38q5 13 9 17.5t14 4.5q24 0 24 -20q0 -51 -33.5 -82t-86.5 -31q-54 0 -87.5 31zM85.5 34q-38.5 41 -38.5 115q0 97 70 140t189 44v38q0 33 -19 53.5t-61 20.5
q-31 0 -54.5 -7.5t-42.5 -17t-23 -9.5q-11 0 -25.5 23t-14.5 35q0 14 23.5 28t61.5 23.5t79 9.5q87 0 132.5 -42t45.5 -116v-216q0 -67 6 -97t6 -34q0 -14 -24.5 -20t-45.5 -6q-15 0 -22 13.5t-14 43.5q-49 -63 -123 -63q-67 0 -105.5 41zM306 131v125q-73 -1 -115.5 -22.5
t-42.5 -80.5q0 -72 68 -72q56 0 90 50zM185 -158v53q0 25 52 25t52 -25v-53q0 -25 -52 -25t-52 25z" />
    <glyph glyph-name="uni1EB8" unicode="&#x1eb8;" horiz-adv-x="457" 
d="M79 8q-7 8 -7 25v634q0 17 7 25t23 8h290q22 0 22 -36v-20q0 -36 -22 -36h-211v-204h189q22 0 22 -36v-20q0 -36 -22 -36h-189v-220h211q12 0 17 -8.5t5 -27.5v-20q0 -19 -5 -27.5t-17 -8.5h-290q-16 0 -23 8zM195 -158v53q0 25 52 25t52 -25v-53q0 -25 -52 -25t-52 25z
" />
    <glyph glyph-name="uni1EB9" unicode="&#x1eb9;" horiz-adv-x="454" 
d="M96 59q-53 66 -53 199q0 137 51.5 204.5t148.5 67.5q90 0 134.5 -67.5t44.5 -196.5q0 -10 -15 -28t-24 -18h-232q4 -75 29.5 -108.5t77.5 -33.5q33 0 55 9t37.5 19.5t18.5 10.5q12 0 26 -23t14 -35q0 -15 -22.5 -30.5t-58 -25.5t-71.5 -10q-108 0 -161 66zM319 297
q0 76 -19 113t-59 37q-43 0 -65 -36t-26 -114h169zM182 -158v53q0 25 52 25t52 -25v-53q0 -25 -52 -25t-52 25z" />
    <glyph glyph-name="uni1EBA" unicode="&#x1eba;" horiz-adv-x="457" 
d="M79 8q-7 8 -7 25v634q0 17 7 25t23 8h290q22 0 22 -36v-20q0 -36 -22 -36h-211v-204h189q22 0 22 -36v-20q0 -36 -22 -36h-189v-220h211q12 0 17 -8.5t5 -27.5v-20q0 -19 -5 -27.5t-17 -8.5h-290q-16 0 -23 8zM233 748.5q-14 6.5 -14 12.5q0 7 5.5 13t19.5 18
q18 14 28 26.5t10 29.5q0 12 -10 18.5t-25 6.5q-20 0 -31.5 -6t-13.5 -6q-6 0 -16 13.5t-10 21.5q0 10 26.5 20.5t52.5 10.5q39 0 68 -18t29 -55q0 -28 -19 -53.5t-42.5 -42t-32.5 -16.5q-11 0 -25 6.5z" />
    <glyph glyph-name="uni1EBB" unicode="&#x1ebb;" horiz-adv-x="454" 
d="M96 59q-53 66 -53 199q0 137 51.5 204.5t148.5 67.5q90 0 134.5 -67.5t44.5 -196.5q0 -10 -15 -28t-24 -18h-232q4 -75 29.5 -108.5t77.5 -33.5q33 0 55 9t37.5 19.5t18.5 10.5q12 0 26 -23t14 -35q0 -15 -22.5 -30.5t-58 -25.5t-71.5 -10q-108 0 -161 66zM319 297
q0 76 -19 113t-59 37q-43 0 -65 -36t-26 -114h169zM218 571.5q-14 6.5 -14 12.5q0 7 5.5 13t19.5 18q18 14 28 26.5t10 29.5q0 12 -10 18.5t-25 6.5q-20 0 -31.5 -6t-13.5 -6q-6 0 -16 13.5t-10 21.5q0 10 26.5 20.5t52.5 10.5q39 0 68 -18t29 -55q0 -28 -19 -53.5
t-42.5 -42t-32.5 -16.5q-11 0 -25 6.5z" />
    <glyph glyph-name="uni1EBC" unicode="&#x1ebc;" horiz-adv-x="457" 
d="M109 769q-14 5 -14 16q0 7 3 14q26 69 85 69q23 0 69 -20q4 -2 23 -9.5t32 -7.5q10 0 17.5 5t16.5 18q10 16 22 16q5 0 12 -3l8 -3q8 -3 11.5 -6.5t3.5 -9.5q0 -4 -4 -14q-27 -69 -85 -69q-15 0 -30.5 5t-39.5 15q-15 7 -30 12t-26 5q-9 0 -16 -5t-16 -19
q-10 -14 -21 -14q-3 0 -11 2zM79 8q-7 8 -7 25v634q0 17 7 25t23 8h290q22 0 22 -36v-20q0 -36 -22 -36h-211v-204h189q22 0 22 -36v-20q0 -36 -22 -36h-189v-220h211q12 0 17 -8.5t5 -27.5v-20q0 -19 -5 -27.5t-17 -8.5h-290q-16 0 -23 8z" />
    <glyph glyph-name="uni1EBD" unicode="&#x1ebd;" horiz-adv-x="454" 
d="M94 592q-14 5 -14 16q0 7 3 14q26 69 85 69q23 0 69 -20q4 -2 23 -9.5t32 -7.5q10 0 17.5 5t16.5 18q10 16 22 16q5 0 12 -3l8 -3q8 -3 11.5 -6.5t3.5 -9.5q0 -4 -4 -14q-27 -69 -85 -69q-15 0 -30.5 5t-39.5 15q-15 7 -30 12t-26 5q-9 0 -16 -5t-16 -19q-10 -14 -21 -14
q-3 0 -11 2zM96 59q-53 66 -53 199q0 137 51.5 204.5t148.5 67.5q90 0 134.5 -67.5t44.5 -196.5q0 -10 -15 -28t-24 -18h-232q4 -75 29.5 -108.5t77.5 -33.5q33 0 55 9t37.5 19.5t18.5 10.5q12 0 26 -23t14 -35q0 -15 -22.5 -30.5t-58 -25.5t-71.5 -10q-108 0 -161 66z
M319 297q0 76 -19 113t-59 37q-43 0 -65 -36t-26 -114h169z" />
    <glyph glyph-name="uni1EBE" unicode="&#x1ebe;" horiz-adv-x="443" 
d="M320.5 852.5q-5.5 2.5 -5.5 9.5t20 51q4 9 21 48q14 27 60 27q18 0 26 -3.5t8 -12.5q0 -6 -9.5 -20t-29.5 -41l-32 -44q-12 -17 -41 -17q-12 0 -17.5 2.5zM136 755.5q-5 3.5 -5 8.5q0 3 5 18l50 92q13 21 47 21h12q33 0 45 -21l50 -92q6 -12 6 -17q0 -13 -19 -13h-22
q-25 0 -33 14l-34 66l-33 -65q-5 -9 -13 -12t-20 -3h-21q-10 0 -15 3.5zM79 8q-7 8 -7 25v634q0 17 7 25t23 8h290q22 0 22 -36v-20q0 -36 -22 -36h-211v-204h189q22 0 22 -36v-20q0 -36 -22 -36h-189v-220h211q12 0 17 -8.5t5 -27.5v-20q0 -19 -5 -27.5t-17 -8.5h-290
q-16 0 -23 8z" />
    <glyph glyph-name="uni1EBF" unicode="&#x1ebf;" horiz-adv-x="440" 
d="M307.5 720.5q-5.5 2.5 -5.5 9.5q0 6 8 23.5t23 47.5l20 41q14 27 63 27q24 0 34.5 -3t10.5 -11q0 -6 -8.5 -19t-28.5 -39q-7 -9 -17.5 -23t-26.5 -36q-7 -10 -19.5 -15t-34.5 -5q-13 0 -18.5 2.5zM121 578.5q-5 3.5 -5 8.5q0 3 5 18l50 92q13 21 47 21h12q33 0 45 -21
l50 -92q6 -9 6 -17q0 -13 -19 -13h-22q-25 0 -33 14l-34 66l-33 -65q-5 -9 -13 -12t-20 -3h-21q-10 0 -15 3.5zM96 59q-53 66 -53 199q0 137 51.5 204.5t148.5 67.5q90 0 134.5 -67.5t44.5 -196.5q0 -10 -15 -28t-24 -18h-232q4 -75 29.5 -108.5t77.5 -33.5q33 0 55 9
t37.5 19.5t18.5 10.5q12 0 26 -23t14 -35q0 -15 -22.5 -30.5t-58 -25.5t-71.5 -10q-108 0 -161 66zM319 297q0 76 -19 113t-59 37q-43 0 -65 -36t-26 -114h169z" />
    <glyph glyph-name="uni1EC0" unicode="&#x1ec0;" horiz-adv-x="443" 
d="M334 868l-39 57q-14 21 -21 32t-7 16q0 8 8 11.5t28 3.5q49 0 60 -27q18 -44 27.5 -68.5t9.5 -30.5q0 -7 -5.5 -9.5t-18.5 -2.5q-27 0 -42 18zM136 755.5q-5 3.5 -5 8.5q0 3 5 18l50 92q13 21 47 21h12q33 0 45 -21l50 -92q6 -12 6 -17q0 -13 -19 -13h-22q-25 0 -33 14
l-34 66l-33 -65q-5 -9 -13 -12t-20 -3h-21q-10 0 -15 3.5zM79 8q-7 8 -7 25v634q0 17 7 25t23 8h290q22 0 22 -36v-20q0 -36 -22 -36h-211v-204h189q22 0 22 -36v-20q0 -36 -22 -36h-189v-220h211q12 0 17 -8.5t5 -27.5v-20q0 -19 -5 -27.5t-17 -8.5h-290q-16 0 -23 8z" />
    <glyph glyph-name="uni1EC1" unicode="&#x1ec1;" horiz-adv-x="440" 
d="M303 738l-32 42q-34 45 -42 56.5t-8 18.5q0 8 11 11t35 3q50 0 63 -27q24 -50 37 -77.5t13 -34.5t-5 -9.5t-18 -2.5q-41 0 -54 20zM121 578.5q-5 3.5 -5 8.5q0 3 5 18l50 92q13 21 47 21h12q33 0 45 -21l50 -92q6 -9 6 -17q0 -13 -19 -13h-22q-25 0 -33 14l-34 66
l-33 -65q-5 -9 -13 -12t-20 -3h-21q-10 0 -15 3.5zM96 59q-53 66 -53 199q0 137 51.5 204.5t148.5 67.5q90 0 134.5 -67.5t44.5 -196.5q0 -10 -15 -28t-24 -18h-232q4 -75 29.5 -108.5t77.5 -33.5q33 0 55 9t37.5 19.5t18.5 10.5q12 0 26 -23t14 -35q0 -15 -22.5 -30.5
t-58 -25.5t-71.5 -10q-108 0 -161 66zM319 297q0 76 -19 113t-59 37q-43 0 -65 -36t-26 -114h169z" />
    <glyph glyph-name="uni1EC2" unicode="&#x1ec2;" horiz-adv-x="443" 
d="M325 863.5q-11 6.5 -11 14.5q0 5 6.5 10t16.5 10q31 16 31 34q0 12 -9.5 18.5t-22.5 6.5q-22 0 -34.5 -7.5t-14.5 -7.5q-6 0 -15.5 14t-9.5 22q0 10 26 19t52 9q35 0 61.5 -17t26.5 -50t-32 -60q-11 -8 -24 -15t-19 -7q-17 0 -28 6.5zM136 755.5q-5 3.5 -5 8.5q0 3 5 18
l50 92q13 21 47 21h12q33 0 45 -21l50 -92q6 -12 6 -17q0 -13 -19 -13h-22q-25 0 -33 14l-34 66l-33 -65q-5 -9 -13 -12t-20 -3h-21q-10 0 -15 3.5zM79 8q-7 8 -7 25v634q0 17 7 25t23 8h290q22 0 22 -36v-20q0 -36 -22 -36h-211v-204h189q22 0 22 -36v-20q0 -36 -22 -36
h-189v-220h211q12 0 17 -8.5t5 -27.5v-20q0 -19 -5 -27.5t-17 -8.5h-290q-16 0 -23 8z" />
    <glyph glyph-name="uni1EC3" unicode="&#x1ec3;" horiz-adv-x="440" 
d="M323 707.5q-14 6.5 -14 12.5q0 7 5.5 13t19.5 18q18 14 28 26.5t10 29.5q0 12 -10 18.5t-25 6.5q-20 0 -31.5 -6t-13.5 -6q-6 0 -16 13.5t-10 21.5q0 10 26.5 20.5t52.5 10.5q39 0 68 -18t29 -55q0 -28 -19 -53.5t-42.5 -42t-32.5 -16.5q-11 0 -25 6.5zM121 578.5
q-5 3.5 -5 8.5q0 3 5 18l50 92q13 21 47 21h12q33 0 45 -21l50 -92q6 -9 6 -17q0 -13 -19 -13h-22q-25 0 -33 14l-34 66l-33 -65q-5 -9 -13 -12t-20 -3h-21q-10 0 -15 3.5zM96 59q-53 66 -53 199q0 137 51.5 204.5t148.5 67.5q90 0 134.5 -67.5t44.5 -196.5q0 -10 -15 -28
t-24 -18h-232q4 -75 29.5 -108.5t77.5 -33.5q33 0 55 9t37.5 19.5t18.5 10.5q12 0 26 -23t14 -35q0 -15 -22.5 -30.5t-58 -25.5t-71.5 -10q-108 0 -161 66zM319 297q0 76 -19 113t-59 37q-43 0 -65 -36t-26 -114h169z" />
    <glyph glyph-name="uni1EC4" unicode="&#x1ec4;" horiz-adv-x="443" 
d="M114 903q-12 6 -12 16q0 7 3 14q25 69 77 69q13 0 28 -5t35 -15q14 -7 27.5 -12t22.5 -5t16 5t15 18q9 16 20 16q5 0 11 -3l7 -3q8 -3 11 -6.5t3 -9.5t-3 -14q-25 -69 -77 -69q-11 0 -26.5 5t-24.5 9t-14 6q-14 7 -27.5 12t-22.5 5t-15.5 -5t-14.5 -19t-19 -14
q-2 0 -10 2zM132 765q0 6 8 19l46 68q9 11 19.5 16t27.5 5h12q32 0 47 -21l47 -68q8 -13 8 -19t-5.5 -9.5t-14.5 -3.5h-22q-12 0 -19 3.5t-13 10.5l-34 53l-34 -52q-10 -15 -33 -15h-20q-20 0 -20 13zM79 8q-7 8 -7 25v634q0 17 7 25t23 8h290q22 0 22 -36v-20
q0 -36 -22 -36h-211v-204h189q22 0 22 -36v-20q0 -36 -22 -36h-189v-220h211q12 0 17 -8.5t5 -27.5v-20q0 -19 -5 -27.5t-17 -8.5h-290q-16 0 -23 8z" />
    <glyph glyph-name="uni1EC5" unicode="&#x1ec5;" horiz-adv-x="440" 
d="M108 752q-12 5 -12 16q0 7 3 14q23 69 77 69q21 0 63 -20q34 -17 49 -17q9 0 16 5t16 18q9 16 20 16q5 0 11 -3l6 -3q8 -3 11 -6.5t3 -9.5t-3 -14q-25 -69 -77 -69q-22 0 -64 20q-36 17 -51 17q-9 0 -15.5 -5t-13.5 -19q-10 -14 -19 -14q-3 0 -11 2zM117 588q0 6 8 19
l46 68q9 11 19.5 16t27.5 5h12q32 0 47 -21l47 -68q8 -13 8 -19t-5.5 -9.5t-14.5 -3.5h-22q-21 0 -32 14l-34 53l-33 -52q-6 -8 -13.5 -11.5t-20.5 -3.5h-20q-20 0 -20 13zM96 59q-53 66 -53 199q0 137 51.5 204.5t148.5 67.5q90 0 134.5 -67.5t44.5 -196.5q0 -10 -15 -28
t-24 -18h-232q4 -75 29.5 -108.5t77.5 -33.5q33 0 55 9t37.5 19.5t18.5 10.5q12 0 26 -23t14 -35q0 -15 -22.5 -30.5t-58 -25.5t-71.5 -10q-108 0 -161 66zM319 297q0 76 -19 113t-59 37q-43 0 -65 -36t-26 -114h169z" />
    <glyph glyph-name="uni1EC6" unicode="&#x1ec6;" horiz-adv-x="457" 
d="M137 755.5q-5 3.5 -5 8.5q0 4 7 18l54 92q14 21 47 21h11q32 0 46 -21l55 -92q7 -10 7 -17q0 -13 -20 -13h-22q-23 0 -32 15l-40 65l-39 -65q-10 -15 -33 -15h-21q-10 0 -15 3.5zM79 8q-7 8 -7 25v634q0 17 7 25t23 8h290q22 0 22 -36v-20q0 -36 -22 -36h-211v-204h189
q22 0 22 -36v-20q0 -36 -22 -36h-189v-220h211q12 0 17 -8.5t5 -27.5v-20q0 -19 -5 -27.5t-17 -8.5h-290q-16 0 -23 8zM195 -158v53q0 25 52 25t52 -25v-53q0 -25 -52 -25t-52 25z" />
    <glyph glyph-name="uni1EC7" unicode="&#x1ec7;" horiz-adv-x="454" 
d="M122 578.5q-5 3.5 -5 8.5q0 4 7 18l54 92q14 21 47 21h11q32 0 46 -21l55 -92q7 -10 7 -17q0 -13 -20 -13h-22q-23 0 -32 15l-40 65l-39 -65q-10 -15 -33 -15h-21q-10 0 -15 3.5zM96 59q-53 66 -53 199q0 137 51.5 204.5t148.5 67.5q90 0 134.5 -67.5t44.5 -196.5
q0 -10 -15 -28t-24 -18h-232q4 -75 29.5 -108.5t77.5 -33.5q33 0 55 9t37.5 19.5t18.5 10.5q12 0 26 -23t14 -35q0 -15 -22.5 -30.5t-58 -25.5t-71.5 -10q-108 0 -161 66zM319 297q0 76 -19 113t-59 37q-43 0 -65 -36t-26 -114h169zM182 -158v53q0 25 52 25t52 -25v-53
q0 -25 -52 -25t-52 25z" />
    <glyph glyph-name="uni1EC8" unicode="&#x1ec8;" horiz-adv-x="262" 
d="M76 23v654q0 25 44 25h23q43 0 43 -25v-654q0 -25 -43 -25h-23q-44 0 -44 25zM118 748.5q-14 6.5 -14 12.5q0 7 5.5 13t19.5 18q18 14 28 26.5t10 29.5q0 12 -10 18.5t-25 6.5q-20 0 -31.5 -6t-13.5 -6q-6 0 -16 13.5t-10 21.5q0 10 26.5 20.5t52.5 10.5q39 0 68 -18
t29 -55q0 -28 -19 -53.5t-42.5 -42t-32.5 -16.5q-11 0 -25 6.5z" />
    <glyph glyph-name="uni1EC9" unicode="&#x1ec9;" horiz-adv-x="254" 
d="M76 23v477q0 25 46 25h10q46 0 46 -25v-477q0 -25 -46 -25h-10q-46 0 -46 25zM114 571.5q-14 6.5 -14 12.5q0 7 5.5 13t19.5 18q18 14 28 26.5t10 29.5q0 12 -10 18.5t-25 6.5q-20 0 -31.5 -6t-13.5 -6q-6 0 -16 13.5t-10 21.5q0 10 26.5 20.5t52.5 10.5q39 0 68 -18
t29 -55q0 -28 -19 -53.5t-42.5 -42t-32.5 -16.5q-11 0 -25 6.5z" />
    <glyph glyph-name="uni1ECA" unicode="&#x1eca;" horiz-adv-x="262" 
d="M76 23v654q0 25 44 25h23q43 0 43 -25v-654q0 -25 -43 -25h-23q-44 0 -44 25zM81 -158v53q0 25 52 25t52 -25v-53q0 -25 -52 -25t-52 25z" />
    <glyph glyph-name="uni1ECB" unicode="&#x1ecb;" horiz-adv-x="254" 
d="M76 624v53q0 25 52 25t52 -25v-53q0 -25 -52 -25t-52 25zM76 23v477q0 25 46 25h10q46 0 46 -25v-477q0 -25 -46 -25h-10q-46 0 -46 25zM65 -158v53q0 25 52 25t52 -25v-53q0 -25 -52 -25t-52 25z" />
    <glyph glyph-name="uni1ECC" unicode="&#x1ecc;" horiz-adv-x="599" 
d="M110.5 81.5q-64.5 88.5 -64.5 269.5q0 356 253 356q254 0 254 -356q0 -358 -254 -358q-124 0 -188.5 88.5zM406.5 149q35.5 64 35.5 202t-35.5 200.5t-106.5 62.5q-72 0 -107 -62t-35 -201q0 -138 35.5 -202t106.5 -64t106.5 64zM251 -158v53q0 25 52 25t52 -25v-53
q0 -25 -52 -25t-52 25z" />
    <glyph glyph-name="uni1ECD" unicode="&#x1ecd;" horiz-adv-x="477" 
d="M93 61.5q-50 68.5 -50 198.5t50.5 200t145.5 70q96 0 145.5 -69.5t49.5 -200.5q0 -130 -49.5 -198.5t-145.5 -68.5t-146 68.5zM306.5 122q21.5 44 21.5 139q0 96 -21.5 140t-68.5 44q-46 0 -67 -44t-21 -140t21 -139.5t67 -43.5q47 0 68.5 44zM192 -158v53q0 25 52 25
t52 -25v-53q0 -25 -52 -25t-52 25z" />
    <glyph glyph-name="uni1ECE" unicode="&#x1ece;" horiz-adv-x="599" 
d="M110.5 81.5q-64.5 88.5 -64.5 269.5q0 356 253 356q254 0 254 -356q0 -358 -254 -358q-124 0 -188.5 88.5zM406.5 149q35.5 64 35.5 202t-35.5 200.5t-106.5 62.5q-72 0 -107 -62t-35 -201q0 -138 35.5 -202t106.5 -64t106.5 64zM287 748.5q-14 6.5 -14 12.5q0 7 5.5 13
t19.5 18q18 14 28 26.5t10 29.5q0 12 -10 18.5t-25 6.5q-20 0 -31.5 -6t-13.5 -6q-6 0 -16 13.5t-10 21.5q0 10 26.5 20.5t52.5 10.5q39 0 68 -18t29 -55q0 -28 -19 -53.5t-42.5 -42t-32.5 -16.5q-11 0 -25 6.5z" />
    <glyph glyph-name="uni1ECF" unicode="&#x1ecf;" horiz-adv-x="477" 
d="M93 61.5q-50 68.5 -50 198.5t50.5 200t145.5 70q96 0 145.5 -69.5t49.5 -200.5q0 -130 -49.5 -198.5t-145.5 -68.5t-146 68.5zM306.5 122q21.5 44 21.5 139q0 96 -21.5 140t-68.5 44q-46 0 -67 -44t-21 -140t21 -139.5t67 -43.5q47 0 68.5 44zM226 571.5
q-14 6.5 -14 12.5q0 7 5.5 13t19.5 18q18 14 28 26.5t10 29.5q0 12 -10 18.5t-25 6.5q-20 0 -31.5 -6t-13.5 -6q-6 0 -16 13.5t-10 21.5q0 10 26.5 20.5t52.5 10.5q39 0 68 -18t29 -55q0 -28 -19 -53.5t-42.5 -42t-32.5 -16.5q-11 0 -25 6.5z" />
    <glyph glyph-name="uni1ED0" unicode="&#x1ed0;" horiz-adv-x="585" 
d="M375 852.5q-5 2.5 -5 9.5t10 31t30 68q12 27 60 27q18 0 25.5 -3.5t7.5 -12.5q0 -7 -10.5 -23t-58.5 -82q-7 -9 -16.5 -13t-25.5 -4q-12 0 -17 2.5zM185 764q0 8 5 18l50 92q12 21 46 21h12q17 0 28.5 -4.5t17.5 -16.5l50 -92q6 -12 6 -17q0 -6 -5.5 -9.5t-14.5 -3.5h-21
q-25 0 -33 14l-34 66l-34 -65q-4 -9 -12 -12t-20 -3h-21q-20 0 -20 12zM110.5 81.5q-64.5 88.5 -64.5 269.5q0 356 253 356q254 0 254 -356q0 -358 -254 -358q-124 0 -188.5 88.5zM406.5 149q35.5 64 35.5 202t-35.5 200.5t-106.5 62.5q-72 0 -107 -62t-35 -201
q0 -138 35.5 -202t106.5 -64t106.5 64z" />
    <glyph glyph-name="uni1ED1" unicode="&#x1ed1;" horiz-adv-x="463" 
d="M315.5 720.5q-5.5 2.5 -5.5 9.5q0 6 8 23.5t23 47.5l20 41q14 27 63 27q24 0 34.5 -3t10.5 -11q0 -6 -8.5 -19t-28.5 -39q-7 -9 -17.5 -23t-26.5 -36q-7 -10 -19.5 -15t-34.5 -5q-13 0 -18.5 2.5zM124 587q0 8 5 18l50 92q12 21 46 21h12q17 0 28.5 -4.5t17.5 -16.5
l50 -92q6 -12 6 -17q0 -6 -5.5 -9.5t-14.5 -3.5h-21q-25 0 -33 14l-34 66l-34 -65q-4 -9 -12 -12t-20 -3h-21q-20 0 -20 12zM93 61.5q-50 68.5 -50 198.5t50.5 200t145.5 70q96 0 145.5 -69.5t49.5 -200.5q0 -130 -49.5 -198.5t-145.5 -68.5t-146 68.5zM306.5 122
q21.5 44 21.5 139q0 96 -21.5 140t-68.5 44q-46 0 -67 -44t-21 -140t21 -139.5t67 -43.5q47 0 68.5 44z" />
    <glyph glyph-name="uni1ED2" unicode="&#x1ed2;" horiz-adv-x="585" 
d="M388 868l-17 25q-26 38 -37.5 56t-11.5 24q0 8 8 11.5t27 3.5q49 0 60 -27q19 -44 28 -68t9 -31t-5.5 -9.5t-17.5 -2.5q-30 0 -43 18zM185 764q0 8 5 18l50 92q12 21 46 21h12q17 0 28.5 -4.5t17.5 -16.5l50 -92q6 -12 6 -17q0 -6 -5.5 -9.5t-14.5 -3.5h-21q-25 0 -33 14
l-34 66l-34 -65q-4 -9 -12 -12t-20 -3h-21q-20 0 -20 12zM110.5 81.5q-64.5 88.5 -64.5 269.5q0 356 253 356q254 0 254 -356q0 -358 -254 -358q-124 0 -188.5 88.5zM406.5 149q35.5 64 35.5 202t-35.5 200.5t-106.5 62.5q-72 0 -107 -62t-35 -201q0 -138 35.5 -202
t106.5 -64t106.5 64z" />
    <glyph glyph-name="uni1ED3" unicode="&#x1ed3;" horiz-adv-x="463" 
d="M311 738l-32 42q-34 45 -42 56.5t-8 18.5q0 8 11 11t35 3q50 0 63 -27q24 -50 37 -77.5t13 -34.5t-5 -9.5t-18 -2.5q-41 0 -54 20zM124 587q0 8 5 18l50 92q12 21 46 21h12q17 0 28.5 -4.5t17.5 -16.5l50 -92q6 -12 6 -17q0 -6 -5.5 -9.5t-14.5 -3.5h-21q-25 0 -33 14
l-34 66l-34 -65q-4 -9 -12 -12t-20 -3h-21q-20 0 -20 12zM93 61.5q-50 68.5 -50 198.5t50.5 200t145.5 70q96 0 145.5 -69.5t49.5 -200.5q0 -130 -49.5 -198.5t-145.5 -68.5t-146 68.5zM306.5 122q21.5 44 21.5 139q0 96 -21.5 140t-68.5 44q-46 0 -67 -44t-21 -140
t21 -139.5t67 -43.5q47 0 68.5 44z" />
    <glyph glyph-name="uni1ED4" unicode="&#x1ed4;" horiz-adv-x="585" 
d="M379 863.5q-11 6.5 -11 14.5q0 5 6.5 10t16.5 10q31 16 31 34q0 12 -9.5 18.5t-22.5 6.5q-22 0 -34 -7.5t-14 -7.5q-6 0 -16 14t-10 22q0 10 26 19t52 9q35 0 61.5 -17t26.5 -50t-32 -60q-11 -8 -24 -15t-19 -7q-17 0 -28 6.5zM185 764q0 8 5 18l50 92q12 21 46 21h12
q17 0 28.5 -4.5t17.5 -16.5l50 -92q6 -12 6 -17q0 -6 -5.5 -9.5t-14.5 -3.5h-21q-25 0 -33 14l-34 66l-34 -65q-4 -9 -12 -12t-20 -3h-21q-20 0 -20 12zM110.5 81.5q-64.5 88.5 -64.5 269.5q0 356 253 356q254 0 254 -356q0 -358 -254 -358q-124 0 -188.5 88.5zM406.5 149
q35.5 64 35.5 202t-35.5 200.5t-106.5 62.5q-72 0 -107 -62t-35 -201q0 -138 35.5 -202t106.5 -64t106.5 64z" />
    <glyph glyph-name="uni1ED5" unicode="&#x1ed5;" horiz-adv-x="463" 
d="M331 707.5q-14 6.5 -14 12.5q0 7 5.5 13t19.5 18q18 14 28 26.5t10 29.5q0 12 -10 18.5t-25 6.5q-20 0 -31.5 -6t-13.5 -6q-6 0 -16 13.5t-10 21.5q0 10 26.5 20.5t52.5 10.5q39 0 68 -18t29 -55q0 -28 -19 -53.5t-42.5 -42t-32.5 -16.5q-11 0 -25 6.5zM124 587q0 8 5 18
l50 92q12 21 46 21h12q17 0 28.5 -4.5t17.5 -16.5l50 -92q6 -12 6 -17q0 -6 -5.5 -9.5t-14.5 -3.5h-21q-25 0 -33 14l-34 66l-34 -65q-4 -9 -12 -12t-20 -3h-21q-20 0 -20 12zM93 61.5q-50 68.5 -50 198.5t50.5 200t145.5 70q96 0 145.5 -69.5t49.5 -200.5
q0 -130 -49.5 -198.5t-145.5 -68.5t-146 68.5zM306.5 122q21.5 44 21.5 139q0 96 -21.5 140t-68.5 44q-46 0 -67 -44t-21 -140t21 -139.5t67 -43.5q47 0 68.5 44z" />
    <glyph glyph-name="uni1ED6" unicode="&#x1ed6;" horiz-adv-x="585" 
d="M164 904q-13 6 -13 16q0 5 3 14q25 69 77 69q20 0 62 -20q36 -17 51 -17q9 0 16 5t15 18q9 16 20 16q5 0 11 -3l7 -3q14 -6 14 -16q0 -5 -1 -8l-2 -6q-26 -69 -77 -69q-13 0 -27 5t-38 16q-36 17 -51 17t-29 -25q-9 -15 -19 -15q-2 0 -10 2zM185 765q0 3 8 19l47 68
q9 11 19.5 16t27.5 5h12q31 0 46 -21l48 -68q7 -11 7 -19q0 -13 -19 -13h-22q-21 0 -33 14l-34 53l-32 -52q-6 -8 -13.5 -11.5t-20.5 -3.5h-21q-20 0 -20 13zM110.5 81.5q-64.5 88.5 -64.5 269.5q0 356 253 356q254 0 254 -356q0 -358 -254 -358q-124 0 -188.5 88.5z
M406.5 149q35.5 64 35.5 202t-35.5 200.5t-106.5 62.5q-72 0 -107 -62t-35 -201q0 -138 35.5 -202t106.5 -64t106.5 64z" />
    <glyph glyph-name="uni1ED7" unicode="&#x1ed7;" horiz-adv-x="463" 
d="M115 752q-12 5 -12 16q0 7 3 14q23 69 77 69q13 0 28 -5t35 -15q14 -7 27.5 -12t22.5 -5t16 5t15 18q9 16 20 16q4 0 10 -3l8 -3q7 -3 10 -6.5t3 -9.5t-3 -14q-25 -69 -77 -69q-12 0 -25 4.5t-24.5 9.5t-14.5 6q-14 7 -27.5 12t-22.5 5t-15.5 -5t-14.5 -19
q-10 -14 -19 -14q-2 0 -10 2zM124 588q0 3 8 19l47 68q9 11 19.5 16t27.5 5h12q31 0 46 -21l48 -68q7 -11 7 -19q0 -13 -19 -13h-22q-21 0 -33 14l-34 53l-32 -52q-6 -8 -13.5 -11.5t-20.5 -3.5h-21q-20 0 -20 13zM93 61.5q-50 68.5 -50 198.5t50.5 200t145.5 70
q96 0 145.5 -69.5t49.5 -200.5q0 -130 -49.5 -198.5t-145.5 -68.5t-146 68.5zM306.5 122q21.5 44 21.5 139q0 96 -21.5 140t-68.5 44q-46 0 -67 -44t-21 -140t21 -139.5t67 -43.5q47 0 68.5 44z" />
    <glyph glyph-name="uni1ED8" unicode="&#x1ed8;" horiz-adv-x="599" 
d="M191 755.5q-5 3.5 -5 8.5q0 4 7 18l54 92q14 21 47 21h11q32 0 46 -21l55 -92q7 -10 7 -17q0 -13 -20 -13h-22q-23 0 -32 15l-40 65l-39 -65q-10 -15 -33 -15h-21q-10 0 -15 3.5zM110.5 81.5q-64.5 88.5 -64.5 269.5q0 356 253 356q254 0 254 -356q0 -358 -254 -358
q-124 0 -188.5 88.5zM406.5 149q35.5 64 35.5 202t-35.5 200.5t-106.5 62.5q-72 0 -107 -62t-35 -201q0 -138 35.5 -202t106.5 -64t106.5 64zM251 -158v53q0 25 52 25t52 -25v-53q0 -25 -52 -25t-52 25z" />
    <glyph glyph-name="uni1ED9" unicode="&#x1ed9;" horiz-adv-x="477" 
d="M130 578.5q-5 3.5 -5 8.5q0 4 7 18l54 92q14 21 47 21h11q32 0 46 -21l55 -92q7 -10 7 -17q0 -13 -20 -13h-22q-23 0 -32 15l-40 65l-39 -65q-10 -15 -33 -15h-21q-10 0 -15 3.5zM93 61.5q-50 68.5 -50 198.5t50.5 200t145.5 70q96 0 145.5 -69.5t49.5 -200.5
q0 -130 -49.5 -198.5t-145.5 -68.5t-146 68.5zM306.5 122q21.5 44 21.5 139q0 96 -21.5 140t-68.5 44q-46 0 -67 -44t-21 -140t21 -139.5t67 -43.5q47 0 68.5 44zM192 -158v53q0 25 52 25t52 -25v-53q0 -25 -52 -25t-52 25z" />
    </font>
</defs>
</svg>
